<svg xmlns="http://www.w3.org/2000/svg" width="581.3" height="578.3" viewBox="0 0 436 433.7"><path d="M5 217c1 23 6 70 24 89 4 4 18 1 24 0l21-4c12-4 20-6 29-15 6-6 22-20 27-27 12-13 16 2 34 5 5 0 16-5 19 0 2 2 27-5 28-3 2 3 37 0 39 1 62 9-12 60 16 82 11 9 37 19 43 32 17 33 53-19 72-36 26-24 27-36 38-69 10-27 6-56 6-85 1-19-19-57-25-75A212 212 0 0 0 239 4c-22 1-46-3-68 0-23 4-44 18-65 30-24 12-73 60-90 102" style="fill:#95c11f"/><path d="m434 227 1-2v-18l-1-8-1-7-1-10-2-9-2-8-5-17c-2-9-6-17-10-25l-7-14a184 184 0 0 0-33-43l-17-16A248 248 0 0 0 238 2a232 232 0 0 0-59 2l-25 7a233 233 0 0 0-59 27L70 58C58 68 49 79 40 92a245 245 0 0 0-30 66l-5 19v3l-1 6-1 5 1 1-1 3v5l-1 5v6l-1 4h1l-1 2h1l-1 3v4l1 2v6l1 11a334 334 0 0 0 18 64l7 14a189 189 0 0 0 46 58 276 276 0 0 0 44 30 167 167 0 0 0 42 16l18 4c8 2 16 3 25 3l20 1h6a773 773 0 0 0 38-6l13-3a168 168 0 0 0 37-15 453 453 0 0 0 41-27l10-10 7-7 5-5 6-7 5-7 6-8 9-13 5-10 7-15 8-21 2-8c1-2 0-4 2-5v-2l1-2v-5l1-6 1-7v-2l1-3v-11ZM4 231c0-1-2-1-1-3l1 2v1Zm390-106 3-4 1-4 3 5 2 6c4 8 8 15 10 23l8 31 1 9-5-4-6-3c-4-3-8-3-12-3l-5 1h-1l2-2 1-2 2-2c6 0 10-5 11-10v-6l-1-6c1-1 0-1-1-1-6 2-11 6-13 13l-1 5c-1 4-4 9-10 10h-3l-1-1c1-4 2-8 5-12l2-1c5-1 7-5 9-9 1-2 0-3-2-3-5 0-9 3-11 8l-6 13-2 1-1-2v-5l1-2-2-2c-1-1-2 0-3 1-2 2-1 4 0 6 2 2 2 5 1 7l-1 1-12 5h-4c-1-5 0-9 3-13 5-2 7-6 9-11s1-10-1-15a21 21 0 0 0-12 20l-1 3c-3 5-4 11-4 17l-1 1c-4 1-8 2-12 1h-16l-8-1c-2 0-2 0-1-1 0-2 2-4 4-4 5-3 7-7 8-13v-6c0-2-1-2-1-1l-6 5c-3 3-4 6-6 10l-3 8c-1 1-2 2-4 1l-16 1c-6 2-12 5-17 9l-4 3a10 10 0 0 1 2-9c3-3 4-6 3-10 0-4-2-7-4-10v-1h-2l-3 4c1-4 5-11 9-14h8c3 5 11 12 17 7l1-1c3-2 3-4 0-6l-8-5h-14 1c4-4 9-8 14-9 5-2 11-3 16-3h2l2 1 3 1 3 1 6 8 1 1c0 3 1 5 3 7 2 3 5 4 8 6v-3l-1-9c-2-2-4-5-7-5-3-1-5-4-5-7h2l19-1 8-4 12-5 3-1h6l7 2 4 1 1 1 4 8 7 2h4l4-1h1c0-3 0-7-2-9-4-5-9-7-15-6-2 1-3 0-5-1l6-4h8l1-1Zm-135 65 1 1-1 6-2 5-10 7-1 1v-2l5-13 4-11 1-3 2-3-1 7 2 5Zm-8 25c4-4 8-7 13-8l2 1 4 2 4-1 1 1c3 2 5 2 8 2 2 1 4-1 5-2 2-2 2-2 0-4-2-4-6-6-10-5h-5l1-1 14-5 11-1 1 1 2 1 4 1 1 1 1 7v1c-4 1-6 3-7 7l-2 1-17 3-19 4c-7 2-12 6-18 9l-3 2v-1l2-3c1-5 4-9 7-13Zm132-112v-8l5 6 4 7v1l-2 1c-3 2-5 5-6 8-3 5-8 9-14 9-2 0-2-1-1-2a271 271 0 0 1 5-11c4-2 7-6 8-10l1-1Zm-30-33c3-6 1-7 2-6l7 7 4 4 12 13v1l1 1 2 2-4 3c-4 3-8 7-9 12v3c0 6-2 11-7 15l-18 10c-8 3-16 4-24 3l-9-2-1-1a51 51 0 0 1 8-18l2-1 2 1h4l2 1c3 2 6 2 8 1l7-4c-3-3-5-6-9-7-4-2-8 0-12 1l3-5 7-11 4-3h2l5 2h2c3 3 6 4 9 3l6-2 1-1c-2-7-9-11-15-10l-3-1 1-1 4-6c4-2 5-2 6-4Zm-29-17 2-4v-5l6 3 12 9 3 2-2 2c-2 1-2 3-2 4l-1 8c-1 5-4 9-8 12l-1 1v-7l2-4c3-4 4-8 5-13l-1-4c0-2-2-2-4-1l-1 1c-4 5-6 10-7 16l1 4v7l-1 6-1 3-10 15-3 5v-2l3-12 3-6c3-6 4-12 3-18l-1-3-3 2a33 33 0 0 0-7 22l-1 8-4 16-3 12-2 3c-1 2-3 2-5 3-5 0-11 2-15 4-7 3-12 7-16 13l-7 12-1 1v-1c1-6 3-13 6-19l8-11h12c4-1 7-5 7-8l-1-2-9 3h-3l2-2c3-3 4-7 6-10l2-5 3-3 3-2h1c5 0 9-3 11-8l1-4-7 1-6 6c0 1-1 2-2 1v-1l12-28c3-6 6-10 11-14l2-2 2-1c3-1 5-3 6-5ZM65 81l11-12 7-5 4-3h6l7 8 4 4h-1c-5-1-11 0-15 5l-3 5 6 2 4 1c2 1 3 0 5-2l1-1c1-1 2-2 4-1l4-1h1l3 3 10 17 1 1-4-1h-7c-4 1-8 5-9 8 3 3 8 6 13 3l4-1c1-1 4-3 6-2l2 2 4 9 1 4 1 3-1 3-16 1-10-2c-8-2-15-6-22-11l-3-3c-4-2-5-6-6-10v-5c0-4-1-7-4-10l-8-7v-2ZM55 92c5-7 5-8 7 1 0 3 3 6 5 9l2 1 4 7 2 5-1 2c-6 0-11-3-14-8l-4-7-4-3c0-3 2-5 3-7Zm-34 71 3-9 2-4 3-11 4-10 6-12 4-7c3-2 0-4 5 3 1 2 4 3 7 3l3 1c2-1 4 1 6 2-2 2-3 2-5 2h-6c-6 1-11 5-12 11v2l4 1c3 2 6 1 8 2l2-1 3-2 4-7 1-2 5-2c2-1 4-1 6 1h10c4 1 8 4 11 6 3 3 7 4 11 5 5 1 11 2 16 1h2c-1 4-4 6-7 6-4 0-6 1-7 4-3 3-4 7-4 10v1c4-1 9-3 12-6l1-3 2-2 8-8 3-1 11 1 11 3a35 35 0 0 1 15 10h1-7c-4-1-7-1-10 1l-5 3v1c-3 2-2 4 0 6 3 3 7 4 11 3 3-1 6-3 8-6l1-1 3 1 3-1 2 1 2 5 3 8v2l-1 1-1-4-2-4h-1c-4 5-6 11-4 17l2 6c2 2 2 4 2 7l-4-3c-6-5-13-9-21-11l-11-1-8 1h-1l2-4c2-4 3-9 2-14l1-2c1-2 2-3 4-3l-3-5-3-2c-2-1-4-1-5 2l-6 6c-4 2-6 5-7 9l-2 10c-1 2-1 1-3 2l-13-1-5-1-1-1v-5c0-4-1-9-3-13v-3c0-6 0-12-5-17l-5-4-2 5c-1 6-1 12 2 17l5 4 1 1c2 3 2 6 2 10v3l-2 1-4-2-10-5-2-2 3-6c1-1 2-3 1-6l-2-2c-1 0-2 1-2 3l-1 5c0 2-1 3-2 3l-2-1-3-9-1-4c-1-5-3-8-8-10h-2l-1 1v2l1 4 2 2 4 4 2 2 3 12-1 1c-6-1-10-3-12-9l-1-5c-1-8-5-13-12-17h-1v1l-1 5-1 3v3l1 3-1 1c1 4 4 7 8 8l4 3 2 3v1l-2-1c-4 0-8-1-12 1l-7 4-5 3-1 1-1-2 3-13Zm128 40c3 4 8 6 13 3l1-1 2-1 1 1h1l-1-1 2 1c2 1 3 0 5-1h2l5 3c4 2 6 5 8 9l6 11 2 2c-5-1-9-4-13-6-6-4-14-7-22-9l-23-5-1-1-1-3-5-4-1-1 2-7 1-2h1c3-2 6-2 9-2l5 1 6 1 12 5v1h-2c-6-3-12 0-15 4v2Zm42 1-1 2-2-2-5-4c-3-3-4-5-3-9l1-9v-4l3 3 1 1 3 8 3 13 1 2h-1Zm-59-46v-1l2 1-1 1-1-1ZM21 270l-3-13a179 179 0 0 1-4-44l1-21c1-2 1-2 3-2h2l1-1 9 1c4 0 7-3 10-6l6-6 3-2h8l7 2 9 2 2 1-2 1-5 1-9 1c-3 2-5 6-6 9l-1 4 9 2c3 0 5 0 7-3l5-6 4-4h5l7 1 7 2 8 2v1l-4 6-14 13h-3c-4-1-8 1-11 5-3 3-4 7-5 12v5h5c6-2 9-5 12-10l2-4c1-3 5-6 8-6h2l-1 6-2 7-2 3c-3 2-4 5-4 9v6c3 0 6-1 8-3 3-4 4-8 4-13-1-6 1-11 2-16s3-10 7-15l4-4 5-1h6l2 1 2 7-1 1-3 1-1 1c0 5 4 10 9 11l1 1 6 1 2-1v1l-2 1-9 7-1 2-2 2-2 2-4 3-13 12c-5 4-10 5-16 5l-14-1c-5-2-8-5-11-10a150 150 0 0 0-20-30c0-5-2-9-7-11l-7-4c-2 5-2 9 0 14 1 3 3 5 7 6a396 396 0 0 0 11 12c-3 1-6 1-8-2-1-2-4-4-7-5-3 0-5 0-8 2-3 1-6 2-8 5l1 1c3 4 6 6 11 7l7-1 2-1 5-1h2l2 1h3l4 2 8 13 1 1-1 1-12 2h-5l-1-1-4-4h-9c-2 1-2 2-2 3 2 3 4 7 8 8h6l7-2 13-1h3l16 3 2 1h3l-1 3c-6 3-12 6-19 7l-16 2-4-1-7-3c-4-1-8 1-12 2l-7 3-2-1Zm23 51-1-1-11-19-6-16-3-8c2 1 5 4 11 6 3 0 6 0 8-2l6-1 3-2h3l8-1 11-3c-1 3-2 6-6 8l-6 4c-6 3-9 7-10 13v7l10-5c3-1 5-4 5-4l1 6c2 3 6 4 9 5l4 5c1 1 0 2-1 2l-18 5h-1c-3-3-6-3-10-2l-6 3Zm17 21-2 1h-1l-6-8 1-2 3-3c3-3 6-5 10-6l5-2h2l2-1 6-2h1l-5 10-3 3-2 2c-5 0-9 3-11 8Zm132 0-3 21c-2 11-5 22-10 32-2 4-6 8-10 10s-8 4-12 4l-5-1a213 213 0 0 1-67-37l-16-15v-3c3-3 5-6 6-10l1-6 1-3a143 143 0 0 0 10-17l17-5h1l-2 4-6 6c-4 4-6 9-7 15v1l5-1c6-2 9-6 11-12l3-10c0-2 2-4 4-5l12-3 3-1 5-1 1-1v1l-4 7-2 3-2 2-10 9-7 8-7 7-6 3c-7 2-11 8-13 15l-1 3 1 1 4 1h1l4-1c3-2 5-5 6-8l4-6c2-2 2-5 4-6l4-2-2 7-4 9c-1 5-2 10 0 16l2 3 1-3c3-3 5-8 7-12v-13c-2-5 0-10 3-15l9-9-1 4-2 12c0 2 0 5-2 7l-2 2v2l-1 3v3c1 5-1 10-1 16l6-4c4-3 6-8 6-14 1-4 0-7-1-11v-4l4-16 8-18 7-12c2-4 3-7 6-10 1-2 4-3 6-4l1-1h3l-1 3-6 14c-2 6-5 12-9 17-1 3-4 5-7 7l-3 2c-3 3-5 7-5 11l-1 1c0 2 1 2 3 2 6 0 9-3 11-9l4-9 4-4 1 6-2 8c-1 5-1 10 2 15l2-5c2-4 4-9 3-13l-2-16v-4c2-9 6-17 10-25l2-3 1 7-1 1-2 3v8l2 7c1 2 2 3 3 1l3-7 1-9-1-2-1-2v-10l1-2 3-1 4 1 6 1h1l2 6 1 14 1 23-1 26Zm2-79-5-3c-4-3-8-2-12 1-2 1-2 1-3-1l-3-5-2-5c-2-3-5-5-9-5h-3l-2 1c-1 1 0 2 1 2l2 3 2 6 4 3 2 1c2 0 2 2 2 3v1l-8 6-9 2-1-1-5-2h-6v2l3 4 3 1 2 1-1 1-6 10c-4 7-9 10-16 13h-3l-1-2c-1-2-2-3-5-4l-4 1v1l2 1c1 1 3 3 2 5h-1l-18 6-10 3-2-1c-2-3-2-6-2-10 0-3-1-5-3-6-2-2-4-2-6-2l-5-1v-1l7-13 6-9 2-1c5-1 10-4 14-8l2-1 1 1v6c-4 5-5 10-5 16l1 6 1 7 6-6c3-4 4-9 5-14l-1-11-1-11 2-2c4-2 7-5 10-9l1-1v1l-1 12-1 2c-4 2-5 5-5 10v9l1 2v2h1l8-13v-17c1-5 2-11 5-15 4-7 10-12 18-13h1l-1 1-1 1h9l-1 1-7 6-2 1c-5 2-8 6-10 11l-3 11v1c8-1 13-3 16-10l2-10 1-2 8-5 4-1c1 3 3 4 5 3 5 0 8 1 12 3l1 1 2 1c4 3 7 7 9 11l6 17v1l-2-1Zm37-199c-1-3-3-6-2-10-6 5-9 11-9 18l2 5v3l-1 7v1l-2-7a1353 1353 0 0 1-9-39l-6-6h-1l-1 8c0 5 2 8 5 12l3 4 3 16 2 10v3l-4-1c-6-8-10-16-15-25l-5-9c-3-5-1-7-1-9-1-3-3-4-6-6l-8-3h-9l-5 1 3 5 4 5 6 3 8 1a828 828 0 0 0 32 47c3 2 5 6 5 11l4 7c2 4 4 9 4 14l2 12s2 6 1 10l-3-4c-1-3-1-7-3-9l-5-4h-5c2 2 1 5 1 7l1 8 7 4 3 1c3 2 4 4 3 7l-1 11v7c0 7-2 13-6 19l-4 4-1-2c-3-4-6-9-6-15v-8c1-6 1-12-1-17l1-8c1-5 0-9-1-14-2-3-2-6-2-10 1-5-3-11-7-14l-1 3-1 9c0 3 2 5 4 7l2 2c2 5 2 11 1 16v1l-1-2-7-10-6-15c-2-7-3-13-2-20l1-3c4-7 2-15-4-20l-3 9 1 8v18l-1-2-9-15-1-4c0-4-2-7-4-10l-1-1 2-1c5-1 9-4 11-8 1-3 2-3 5-2h1l-1-2-1-1c0-7-6-9-10-7h-12l-4 1h-1l-4 2c-3 2-6 1-9 1l-4-1c1 2 1 3 3 3l1 1c2 0 2 0 1 1 2 1 4 0 5 3 2-1 2 0 3 1 3 3 5 6 5 10 0 5 1 9 3 12l4 4 3 2 1 2 3 7c-3-1-6-4-10-3-4 0-7 0-11 2l6 5c2 3 6 3 10 4l9 3c4 0 8 2 10 7l6 15-1 2h-1l-3-6c-1-4-3-7-7-9h-6l2 3 1 5 1 5 5 5a184 184 0 0 1 12 5c5 4 6 7 5 12-2 5-1 10-1 15l1 11v3l-1 4v9l-1-4-7-25c-2-7-4-14-8-21-6-11-15-19-27-24l-15-5-3-3-2-7-2-11-2-13v-7c2-4 3-9 3-14a337 337 0 0 0-1-17h-3l-2 3-4 12c-1 5-1 10 1 14l2 8v3l1 2-1 3v2l-2-3-10-17-2-4v-9l1-3c4-5 5-11 5-17l-1-8-2-2c-1-1-2 0-3 1l-4 8v13c1 3 1 7-1 10v1l-1-1c-4-5-8-10-10-15l-1-5-1-5 1-1 13-8a154 154 0 0 1 29-14l6-2 10-4 12-3a148 148 0 0 1 26-4l18-2 14 1 11 2 1 1v7l2 9v6l-3-4-4-8-3-3-6-2h-8l-2 1c1 6 5 11 10 14l5 2c4 0 6 3 9 5 4 3 5 7 6 11l2 12v16c1 7 0 13-2 18l-1 5-3-4v-6c0-3-3-5-6-7l-2 6c0 4 1 8 4 11l1 5 1 5 1 3c2 3 2 6 1 9l-4 13h-1v-2c-3-6-4-13-6-20l-3-9c-2-6-3-11-2-16l1-9v-2c6-6 6-12 4-19Zm-49 6 1-2 1 2-1 1-1-1Zm55 140-1-3c-2-6-1-12 1-17l1-13 2-10 1-8c2-5 0-9 2-14l3-11 2-5c1-1 2-3 5-3 2-1 5-1 7-3 4-3 5-7 6-12h-5l-5 2c-2 0-3 2-4 3l-2 2h-1l1-8c0-4 2-8 4-13l2-1c5-3 9-6 12-10 2-3 2-7 2-10l-4 1-8 5-1 3c-1 1-1 2-3 2l1-3V71c0-4 2-5 3-7l4-7 4-6 2-2c8-3 13-12 10-20v-1l-4 2c-4 2-7 4-8 8l-1 3-1 4-10 15-1 1-1-6-1-15 2-6c2-5 3-9 2-14l-2-4 9 3 12 3a343 343 0 0 1 26 9l15 7c1 0 2 0 1 1-4 3-3 9-3 13l-5 7-1-6 1-6c1-4 0-8-4-11l-1-1c-4 6-5 12-2 19l2 5-1 4-7 13h-1v-7c1-5 0-9-2-12l-6-5-1 5-1 10 4 10 3 5-1 7-8 19-1 1-1-5c1-3 1-7-1-10l-2-4-4 8c0 5 1 10 4 14l1 6-5 7-12 14c-5 5-7 12-9 19-1 9-4 19-7 28l-8 23v1h-1Zm3 48 5-12c3-5 8-9 13-11l7-3h4l7 2 1-1h2l5 5 1 2 2 10c1 4 3 7 7 10l6 2v-10c0-3-1-5-3-8-1-3-4-5-7-7l-1-1-10-10h-1c3 0 5-1 7 1l4 1h5l2 1c7 3 11 9 13 16l2 12v9c-1 4 0 8 2 11l5 9 2-2v-11c1-4 0-8-4-10l-1-2-1-13 2 2 3 3 2 2 5 3 1 2c1 4 0 8-1 12-1 5-2 11 0 16 1 6 5 11 9 15l1-1v-8c3-7 2-14-2-20l-1-4 2-1 3 3h1v-2l1 1 9 4 5 4c4 5 6 10 8 15l1 3c0 2 0 3-2 4h-2l-3-1c-4 0-8 4-8 9v6l-2 4h-1a349 349 0 0 1-29-10c0-2 0-3 3-4l2-1c-2-3-6-3-8 0l-3 3-1 1c-6-3-12-6-16-11l-5-8v-2h10v-1h3c2-2 3 0 4 1h1l6 4 1 2c0-1-1-3 1-3 0-2-2-3-3-4l-4-3-4-7-9-12-5-5-2-2-5 1-2 2h-1v1l2 1 1 1v14l-5-1c-5-1-8-5-11-8-1-1-1-3 1-4l2-1c3 0 5-2 6-4l1-3 3-4 1-2-2-1h-6c-3 0-5 2-7 4l-3 5-3 5v1l-3-2c-4-3-7-3-11-1l-6 3-1 1h-1l3-7Zm94 8v-1l4 5-4-4Zm-21 70 1 1c3 4 4 8 4 12v4l-1 5-3-2-4-6v-1l-5-19v-1c2 1 5 2 4 5l2 4 2 2v-4Zm-2-10c-4-3-9-6-11-11l-2-4 4 2 2-1h2l12 4c2 1 3 3 3 5l1 10 1 6-1-1-1-1h-1l-9-9Zm-25-64v1l-1-1 1-1v1Zm73 101-12 10a167 167 0 0 1-48 28l-21 8-5 2-7-1c-7-2-12-6-16-12l-4-8c-3-9-5-17-6-26l-3-27 2-27 1-15 2-14 1-6 2-2 2 1 4 1h7l1 1a534 534 0 0 1-3 18l2 11 1 2c1 2 2 2 3 0l1-4 2-10c0-2 0-4-3-6l1-7 2 3c4 9 6 18 7 28l-1 4c-3 6-4 12-5 18l1 10 2 5 3-6c2-4 2-9 1-14 0-3-1-6 1-9l1-1 3 5 1 8c1 4 2 7 5 10l6 3 2-2c0-5-1-11-5-15-5-4-8-9-10-15-3-7-4-15-6-23l-1-5c2 0 6 2 6 0l2 2 5 10 10 18a76 76 0 0 1 10 37c-1 8 1 15 6 21l5 4 3 1v-4l2 3 1-3 5 8 2-3 1-12-4-12-2-8v-1l3 4 2 6 3 7c1 1 3 4 7 5l1 1h9v-2c0-4-2-8-4-12l-9-7-3-1 4 1v-6l-3-9-1-3-4-5-2-5 5 1 3 1 4 1 4 1c2 0 3 1 4 3l6 12 2 8 2 7v2l4 6v2Zm-32-20 3 2v1l-3-3Zm47 4-4 3-3-5c-2-2-4-4-8-5-2 0-3-1-4-3l-4-8v-1l3-1 6 2 2 2 5 2 4 1 2 3 2 4 2 1-3 5Zm31-50c-3 9-8 17-13 25l-4 6-2 1-5-3c-3-1-5-2-8 0l-2 1-2 1-16-6c-3-1-3-1-2-3l5-5 4-2 4-2h2l2 2c1 1 2 1 3-1l7 4c2-8 1-15-5-20l-6-6c-3-2-5-5-5-7h1v-1c1 2 3 2 5 2h2l7 2 4 1 10 4a167 167 0 0 1 9 2l2 1 5-1-2 5Zm15-48-5 21-3 10-1 1-9-5c-5-2-10-2-14 0s-7 2-10 1l-20-5-16-8v-1l6 1 14-2 6-1 15 3 4 2 6 1 6-3 3-4v-3c-3-2-6-3-9-1l-4 3-3 1-16-3v-2a1500 1500 0 0 0 13-17h7l3 2h6l1 1c4 0 8-1 11-3l4-5c-2-3-5-4-8-5l-7-2c-3 0-6 2-8 5l-2 2c-2 1-4 1-5-1l-1-1a158 158 0 0 1 7-8c4-1 8-3 10-7 2-2 2-5 3-7 0-3 0-5 2-8-4 0-8 2-11 3-4 2-7 5-9 9l-1 6v2c-6 8-12 16-16 25-4 6-9 10-16 11-7 0-14 0-20-3l-11-8-7-7-4-3c-4-6-9-11-15-16 2-1 4-2 7-1 6 1 9-2 11-7l1-1c1-3 0-4-3-5l-1-2c1-2 1-5 3-7h2l3 1h5l5 5c3 5 4 10 5 15l2 12v7c0 5 1 9 4 12 1 2 4 3 7 4v-2c0-4 1-7-1-10l-1-3c-2-2-3-5-3-7l-2-9 6 4v-2l3 3c2 6 5 11 10 14l8 2 1-7c-1-6-3-10-8-14-3-2-5-2-8-2h-2l-9-10a50 50 0 0 1-8-11l-1-1 4-1 17-2 3-1 4 1 3 3 4 7c1 2 3 4 6 5h4l2 1 2-1c3-1 3-1 2-3l-1-7c-2-4-5-7-11-7h-4l-4-2 1-1 17-3 3 1c2 2 5 2 7 2l2 1 5 6c2 2 5 2 8 3l8 2 6-1c0-1 0-2 2-2v5l1 20c0 9-1 17-3 25Z"/><path d="m434 227 1-2v-18l-1-8-1-7-1-10-2-9-2-8-5-17c-2-9-6-17-10-25l-7-14a184 184 0 0 0-33-43l-17-16A248 248 0 0 0 238 2a232 232 0 0 0-59 2l-25 7a233 233 0 0 0-59 27L70 58C58 68 49 79 40 92a245 245 0 0 0-30 66l-5 19v3l-1 6-1 5 1 1-1 3v5l-1 5v6l-1 4h1l-1 2h1l-1 3v4l1 2v6l1 11a334 334 0 0 0 18 64l7 14a189 189 0 0 0 46 58 276 276 0 0 0 44 30 167 167 0 0 0 42 16l18 4c8 2 16 3 25 3l20 1h6a773 773 0 0 0 38-6l13-3a168 168 0 0 0 37-15 453 453 0 0 0 41-27l10-10 7-7 5-5 6-7 5-7 6-8 9-13 5-10 7-15 8-21 2-8c1-2 0-4 2-5v-2l1-2v-5l1-6 1-7v-2l1-3v-11Zm-40-102 3-4 1-4 3 5 2 6c4 8 8 15 10 23l8 31 1 9-5-4-6-3c-4-3-8-3-12-3l-5 1h-1l2-2 1-2 2-2c6 0 10-5 11-10v-6l-1-6c1-1 0-1-1-1-6 2-11 6-13 13l-1 5c-1 4-4 9-10 10h-3l-1-1c1-4 2-8 5-12l2-1c5-1 7-5 9-9 1-2 0-3-2-3-5 0-9 3-11 8l-6 13-2 1-1-2v-5l1-2-2-2c-1-1-2 0-3 1v6c2 2 2 5 1 7l-1 1-12 5h-4c-1-5 0-9 3-13 5-2 7-6 9-11s1-10-1-15a21 21 0 0 0-12 20l-1 3c-3 5-4 11-4 17l-1 1c-4 1-8 2-12 1h-16l-8-1c-2 0-2 0-1-1 0-2 2-4 4-4 5-3 7-7 8-13v-6c0-2-1-2-1-1l-6 5c-3 3-4 6-6 10l-3 8c-1 1-2 2-4 1l-16 1c-6 2-12 5-17 9l-4 3a10 10 0 0 1 2-9c3-3 4-6 3-10 0-4-1-7-4-10v-1h-2l-3 4c1-4 5-11 9-14h1c0 3 2 3 3 3h3c2 5 12 9 18 4l1-1c3-2 3-4 0-6l-8-5h-14 1c4-4 9-8 14-9 5-2 11-3 16-3h2l3 1 2 1 3 1 6 8 1 1c0 3 1 5 3 7l8 6v-3l-1-9c-2-2-4-5-7-5-3-1-5-4-5-7h2l19-1 8-4 12-5 3-1h6l7 2 4 1 1 1 4 8 7 2h4l4-1h1c0-3 0-7-2-9-4-5-9-7-15-6-2 1-3 0-5-2l6-3h8l1-1Zm-135 65 1 1-1 6-2 5-10 7-1 1v-2l5-13 4-11 1-3 2-3-1 7 2 5Zm-8 25c4-4 8-7 13-8l2 1 4 2 4-1 1 1c3 2 5 2 8 2 2 1 4-1 5-2 2-2 2-2 0-4-2-4-6-6-10-5h-5l1-1 14-5 11-1 1 1 2 1 4 1 1 1 1 7v1c-4 1-6 3-7 7l-2 1-17 3-19 4c-7 2-12 6-18 9l-3 2v-1l2-3c1-5 4-9 7-13Zm132-112v-4c1-2 0-5 1-4l4 6 4 7v1l-2 1c-3 2-5 5-6 8-3 5-8 9-14 9-2 0-2-1-1-2a271 271 0 0 1 5-11c4-2 7-6 8-10l1-1Zm-30-33h3l6 3 4 2 12 13 1 1v1l2 2-4 3c-4 3-8 7-9 12v3c0 6-2 11-7 15l-18 10c-8 3-16 4-24 3l-9-2-1-1a51 51 0 0 1 8-18l2-1 2 1h4l2 1c3 2 6 2 8 1l7-4c-3-3-5-6-9-7-4-2-8 0-12 1l3-5 7-11 4-3h2l5 2h2c3 3 6 4 9 3l6-2 1-1c-2-7-9-10-15-10l-3-1 1-1 4-6 6-4Zm-29-17 2-4 3-1 2 2 2-1 2 1 9 6v1h-1l-1 1c3 5 2 9 0 14s-4 9-8 12l-1 1v-7l2-4c3-4 4-8 5-13l-1-4c0-2-2-2-4-1l-1 1c-4 5-6 10-7 16l1 4v7l-1 6-1 3-10 15-3 5v-2l3-12 3-6c3-6 4-12 3-18l-1-3-3 2a33 33 0 0 0-7 22l-1 8-4 16-3 12-1 3-6 3c-5 0-11 2-15 4-7 3-12 7-16 13l-7 12-1 1v-1c1-6 3-13 6-19 2-4 5-8 9-11h11c4-1 7-5 7-8l-1-2-9 3h-3l2-2c3-3 4-7 6-10l2-5 3-3 3-2h1c5 0 9-3 11-8l1-4-7 1-6 6c0 1-1 2-2 1v-1l12-28c3-6 6-10 11-14l2-2 2-1c3-1 4-3 6-5ZM65 81l11-12 7-5 4-3h2l3-2 1 2 7 8 4 4h-1c-5-1-11 0-15 5l-3 5 6 2 4 1c2 1 3 0 5-2l1-1c1-1 2-2 4-1l4-1h1l3 3 10 17 1 1-4-1h-7c-4 1-8 5-9 8 3 3 8 6 13 3l4-1 4-3h2c1-1 2 2 2 3l4 9 1 4 1 3-1 3-16 1-10-2c-8-2-15-6-22-11l-3-3c-4-2-5-6-6-10v-5c0-4-1-7-4-10l-8-7v-2ZM54 92l5-6 3 7 5 9 2 1 4 7 2 5-1 2c-6 0-11-3-14-8l-4-7-4-3 2-7Zm-33 71 3-9 2-4 3-11 4-10 6-12 4-7c2-4 2 2 5 3 2 2 4 2 7 3l3 1c2-1 4 1 6 2-2 2-3 2-5 2h-6c-6 1-11 5-12 11v2l4 1c3 2 6 1 8 2l2-1 3-2 4-7 1-2 5-2c2-1 4-1 6 1h10l11 6c3 3 7 4 11 5 5 1 11 2 16 1h2c-1 4-4 6-7 6-4 0-6 1-7 4-3 3-4 7-4 10v1c4-1 9-3 12-6l1-3 2-2 8-8 3-1 11 2 11 2a35 35 0 0 1 15 10h1c-3 1-5 2-7 0-4-1-7-1-10 1l-5 3v1c-3 2-2 4 0 6 3 3 7 4 11 3 3-1 6-3 8-6l1-1 3 1 3-1 2 1 2 5 3 8v2l-1 1-1-4-2-4h-1c-4 5-6 11-4 17l2 6c2 2 2 4 2 7l-4-3c-6-5-13-9-21-11l-11-1-8 1h-1l2-4c2-4 3-9 2-14l1-2c1-2 2-3 4-3l-3-5-3-2c-2-1-4-1-5 2l-6 6c-4 2-6 5-7 9l-2 10c-1 2-1 1-3 2l-13-1-5-1-1-1v-5c0-4-1-9-3-13v-3c0-6 0-12-5-17l-5-4-2 5c-1 6-1 12 2 17l5 4 1 1c2 3 2 6 2 10v3l-2 1-4-2-10-5-2-2 3-6c1-1 2-3 1-6l-2-2c-1 0-2 1-2 3l-1 5c0 2-1 3-2 3l-2-1-3-9-1-4c-1-5-3-8-8-10h-2l-1 1v2l2 4c2 0 1 1 2 2-2 0-2-1-3-2l2 2 4 4 2 2c1 4 3 8 2 12v1c-6-1-10-3-12-9l-1-5c-1-8-5-13-12-17h-1v1l-1 5-1 3v3l1 3-1 1c1 4 4 7 8 8l4 3 2 3v1l-2-1c-4 0-8-1-12 1l-7 4-5 3-1 1-1-2 3-13Zm128 40c3 4 8 6 13 3l1-1 2-1 1 1h1l-1-1 2 1c2 1 3 0 5-1h2l5 3c4 2 6 5 8 9l6 11 2 2c-5-1-9-4-13-6-6-4-14-7-22-9l-23-5-1-1-1-3-5-4-1-1 2-7 1-2h1c3-2 6-2 9-2l5 1 6 1 12 5v1h-2c-6-3-12 0-15 4v2Zm42 1-1 2-2-2-5-4c-3-3-4-5-3-9l1-9v-4l3 3 1 1 3 8 3 13 1 2h-1ZM21 271l-3-13a179 179 0 0 1-4-44l1-21c1-2 1-2 3-2h2l1-1 9 1c4 0 7-3 10-6l6-6 3-2h8l7 2 9 2 2 1-2 1-5 1-9 1c-3 2-5 6-6 9l-1 4 9 2c3 0 5 0 7-3l5-6 4-4h5l7 1 7 2 8 2v1l-4 6-14 13h-3c-4-1-8 1-11 5-3 3-4 7-5 12v5h5c6-2 9-5 12-10l2-4c1-3 5-6 8-6h2l-1 6-2 7-2 3c-3 2-4 5-4 9v6c3 0 6-1 8-3 3-4 4-8 4-13-1-6 1-11 2-16s3-10 7-15l4-4 5-1h6l2 1 2 7-1 1-3 1-1 1c0 5 4 10 9 11l1 1 6 1 2-1v1l-2 1-9 7-1 2-2 2-2 2-4 3-13 12c-5 4-10 5-16 5l-14-1c-5-2-8-5-11-10a150 150 0 0 0-20-30c0-5-2-9-7-11l-7-4c-2 5-2 9 0 14 1 3 3 5 7 6a396 396 0 0 0 11 12c-3 1-6 1-8-2-1-2-4-4-7-5-3 0-5 0-8 2-3 1-6 2-8 5l1 1c3 4 6 6 11 7l7-1 2-1 5-1h2l2 1h3l4 2 8 13 1 1-1 1-12 2h-5l-1-1-4-4h-9c-2 1-2 2-2 3 2 3 4 7 8 8h6l7-2 13-1h3l16 3 2 1h3l-1 3c-6 3-12 6-19 7l-16 2-4-1-7-3c-4-1-8 1-12 2l-7 3-2-1Zm23 51-1-1-11-19-6-16-3-8c2 1 5 4 11 6 3 0 6 0 8-2l6-1 3-2h3l8-1 11-3c-1 3-2 6-6 8l-6 4c-6 3-9 7-10 13v7l10-5c3-1 5-4 5-4l1 6c2 3 6 4 9 5l4 5c1 1 0 2-1 2l-18 5h-1c-3-3-6-3-10-2l-6 3Zm17 21-2 1h-1l-6-8 1-2 3-3c3-3 6-5 10-6l5-2h2l2-1 6-2h1l-5 10-3 3-2 2c-5 0-9 3-11 8Zm132 0-3 21c-2 11-5 22-10 32-2 4-6 8-10 10s-8 4-12 4l-5-1a213 213 0 0 1-67-37l-16-15v-3c3-3 5-6 6-10l1-6 1-3a143 143 0 0 0 10-17l17-5h1l-2 4-6 6c-4 4-6 9-7 15v1l5-1c6-2 9-6 11-12l3-10c0-2 2-4 4-5l12-3 3-1 5-1 1-1v1l-4 7-2 3-2 2-10 9-7 8-7 7-6 3c-7 2-11 8-13 15l-1 3 1 1 4 1h1l4-1c3-2 5-5 6-8l4-6c2-2 2-5 4-6l4-2-2 7-4 9c-1 5-2 10 0 16l2 3 1-3c3-3 5-8 7-12v-13c-2-5 0-10 3-15l9-9-1 4-2 12c0 2 0 5-2 7l-2 2v2l-1 3v3c1 5-1 10-1 16l6-4c4-3 6-8 6-14 1-4 0-7-1-11v-4l4-16 8-18 7-12c2-4 3-7 6-10 1-2 4-3 6-4l1-1h3l-1 3-6 14c-2 6-5 12-9 17-1 3-4 5-7 7l-3 2c-3 3-5 7-5 11l-1 1c0 2 1 2 3 2 6 0 9-3 11-9l4-9 4-4 1 6-2 8c-1 5-1 10 2 15l2-5c2-4 4-9 3-13l-2-16v-4c2-9 6-17 10-25l2-3 1 7-1 1-2 3v8l2 7c1 2 2 3 3 1l3-7 1-9-1-2-1-2v-10l1-2 3-1 4 1 6 1h1l2 6 1 14 1 23-1 26Zm2-79-5-3c-4-3-8-2-12 1-2 1-2 1-3-1l-3-5-2-5c-2-3-5-5-9-5h-3l-2 1c-1 1 0 2 1 2l2 3 2 6 4 3 2 1c2 0 2 2 2 3v1l-8 6-9 2-1-1-5-2h-6v2l3 4 3 1 2 1-1 1-6 10c-4 7-9 10-16 13h-3l-1-2c-1-2-2-3-5-4l-4 1v1l2 1c1 1 3 3 2 5h-1l-18 6-10 3-2-1c-2-3-2-6-2-10 0-3-1-5-3-6-2-2-4-2-6-2l-5-1v-1l7-13 6-9 2-1c5-1 10-4 14-8l2-1 1 1v6c-4 5-5 10-5 16l1 6 1 7 6-6c3-4 4-9 5-14l-1-11-1-11 2-2c4-2 7-5 10-9l1-1v1l-1 12-1 2c-4 2-5 5-5 10v9l1 2v2h1l8-13v-17c1-5 2-11 5-15 4-7 10-12 18-13h1l-1 1-1 1h9l-1 1-7 6-2 1c-5 2-8 6-10 11l-3 11v1c8-1 13-3 16-10l2-10 1-2 8-5 4-1c1 3 3 4 5 3 5 0 8 1 12 3l1 1 2 1c4 3 7 7 9 11l6 17v1l-2-1Zm37-199c-1-3-3-6-2-10-6 5-9 11-9 18l2 5v3l-1 7v1l-2-7a1353 1353 0 0 1-9-39l-6-6h-1l-1 8c0 5 2 8 5 12l3 4 3 16 2 10v3c-1 1-3-1-4-1-6-9-10-15-14-25-2-3-8-10-8-13 1-6-2-9-3-10-1-3-7-3-12-4l-12 1 6 9c2 2 5 5 10 5l6-1 5 8 14 24c3 6 7 11 12 15 3 3 5 7 5 12l4 7c2 4 4 9 4 14l2 12s2 6 1 10l-3-4c-1-3-1-7-3-9l-5-4h-5c2 2 1 5 1 7l1 8 7 4 3 1c3 2 4 4 3 7l-1 11v7c0 7-2 13-6 19l-4 4-1-2c-3-4-6-9-6-15v-8c1-6 1-12-1-17l1-8c1-5 0-9-1-14-2-3-2-6-2-10 1-5-3-11-7-14l-1 3-1 9c0 3 2 5 4 7l2 2c2 5 2 11 1 16v1l-1-2-7-10-6-15c-2-7-3-13-2-20l1-3c4-7 2-15-4-20l-3 9 1 8v18l-1-2-9-15-1-4c0-4-2-7-4-10l-1-1 2-1c5-1 9-4 11-8 1-3 2-3 5-2h1l-1-2-1-1c0-7-6-9-10-7h-12l-4 1h-1l-4 2c-3 2-6 1-9 1l-4-1c1 2 1 3 3 3l1 1c2 0 2 0 1 1 2 1 4 0 5 3 2-1 2 0 3 1 3 3 5 6 5 10 0 5 1 9 3 12l4 4 3 2 1 2 3 7c-3-1-6-4-10-3-4 0-7 0-11 2l6 5c2 3 6 3 10 4l9 3c4 0 8 2 10 7l6 15-1 2h-1l-3-6c-1-4-3-7-7-9h-6l2 3 1 5 1 5 5 5a184 184 0 0 1 12 5c5 4 6 7 5 12-2 5-1 10-1 15l1 11v3l-1 4v9l-1-4-7-25c-2-7-4-14-8-21-6-11-15-19-27-24l-15-5-3-3-2-7-2-11-2-13v-7c2-4 3-9 3-14a337 337 0 0 0-1-17h-3l-2 3-4 12c-1 5-1 10 1 14l2 8v3l1 2-1 3v2l-2-3-10-17-2-4v-9l1-3c4-5 5-11 5-17l-1-8-2-2c-1-1-2 0-3 1l-4 8v13c1 3 1 7-1 10v1l-1-1c-4-5-8-10-10-15l-1-5-1-5 1-1 13-8a154 154 0 0 1 25-12l8-3 14-5 8-2a162 162 0 0 1 28-5l18-2 14 1 11 2 1 1v7l2 9v6l-3-4-4-8-3-3-6-2h-8l-2 1c1 6 5 11 10 14l5 2c4 0 6 3 9 5 4 3 5 7 6 11l2 12v16c1 7 0 13-2 18l-1 5-3-4v-6c0-3-3-5-6-7l-2 6c0 4 1 8 4 11l1 5 1 5 1 3c2 3 2 6 1 9l-4 13h-1v-2c-3-6-4-13-6-20l-3-9c-2-6-3-11-2-16l1-9v-2c6-6 6-12 4-19Zm6 146-1-3c-2-6-1-12 1-17l1-13 2-10 1-8c2-5 0-9 2-14l3-11 2-5c1-1 2-3 5-3 2-1 5-1 7-3 4-3 5-7 6-12h-5l-5 2c-2 0-3 2-4 3l-2 2h-1l1-8c0-4 2-8 4-13l2-1c5-3 9-6 12-10 2-3 2-7 2-10l-4 1-8 5-1 3c-1 1-1 2-3 2l1-3V71c0-4 2-5 3-7l4-7 4-6 2-2c8-3 13-12 10-20v-1l-4 2c-4 2-7 4-8 8l-1 3-1 4-10 15-1 1-1-6-1-15 2-6c2-5 3-9 2-14l-2-4 9 3 12 3a343 343 0 0 1 26 9l15 7 1 1c-2 4-3 9-3 13l-5 7-1-6 1-6c1-4 0-8-4-11l-1-1c-4 6-5 12-2 19l2 5-1 4-7 13h-1v-7c1-5 0-9-2-12l-6-5-1 5-1 10 4 10 3 5-1 7-8 19-1 1-1-5c1-3 1-7-1-10l-2-4-4 8c0 5 1 10 4 14l1 6-5 7-12 14c-5 5-7 12-9 19-1 9-4 19-7 28l-8 23v1h-1Zm3 48 5-12c3-5 8-9 13-11l7-3h4l7 2 1-1h2l5 5 1 2 2 10c1 4 3 7 7 10l6 2v-10c0-3-1-5-3-8-1-3-4-5-7-7l-1-1-10-10h-1c3 0 5-1 7 1l4 1h5l2 1c7 3 11 9 13 16l2 12v9c-1 4 0 8 2 11l5 9 2-2v-11c1-4 0-8-4-10l-1-2-1-13 2 2 3 3 2 2 5 3 1 2c1 4 0 8-1 12-1 5-2 11 0 16 1 6 5 11 9 15l1-1v-8c3-7 2-14-2-20l-1-4 2-1 3 3h1v-2l1 1 9 4 5 4c4 5 6 10 8 15l1 3c0 2 0 3-2 4h-2l-3-1c-4 0-8 4-8 9v6l-2 4h-1a349 349 0 0 1-29-10c0-2 0-3 3-4l2-1c-2-3-6-3-8 0l-3 3-1 1c-6-3-12-6-16-11l-5-8v-2h10v-1h3c2-2 3 0 4 1h1l6 4 1 2c0-1-1-3 1-3 0-2-2-3-3-4l-4-3-4-7-9-12-5-5-2-2-5 1-2 2h-1v1l2 1 1 1v14l-5-1c-5-1-8-5-11-8-1-1-1-3 1-4l2-1c3 0 5-2 6-4l1-3 3-4 1-2-2-1h-6c-3 0-5 2-7 4l-3 5-3 5v1l-3-2c-4-3-7-3-11-1l-6 3-1 1h-1l3-7Zm94 8v-1l4 5-4-4Zm-21 70 1 1c3 4 4 8 4 12v4l-1 5-3-2-4-6v-1l-5-19v-1c2 1 5 2 4 5l2 4 2 2v-4Zm-2-10c-4-3-9-6-11-11l-2-4 4 2 2-1h2l12 4c2 1 3 3 3 5l1 10 1 6-1-1-1-1h-1l-9-9Zm48 37-12 10a167 167 0 0 1-48 28l-21 8-5 2-7-1c-7-2-12-6-16-12l-4-8c-3-9-5-17-6-26l-3-27 2-27 1-15 2-14 1-6 2-2 2 1 4 1h7l1 1a534 534 0 0 1-3 18l2 11 1 2c1 2 2 2 3 0l1-4 2-10c0-2 0-4-3-6l1-7 2 3c4 9 6 18 7 28l-1 4c-3 6-4 12-5 18l1 10 2 5 3-6c2-4 2-9 1-14 0-3-1-6 1-9l1-1 3 5 1 8c1 4 2 7 5 10l6 3 2-2c0-5-1-11-5-15-5-4-8-9-10-15-3-7-4-15-6-23l-1-5c2 0 6 2 6 0l2 2 5 10 10 18a76 76 0 0 1 10 37c-1 8 1 15 6 21l5 4 3 1v-4l2 3 1-3 5 8 2-3 1-12-4-12-2-8v-1l3 4 2 6 3 7c1 1 3 4 7 5l1 1h9v-2c0-4-2-8-4-12l-9-7-3-1 4 1v-6l-3-9-1-3-4-5-2-5 5 1 3 1 4 1 4 1c2 0 3 1 4 3l6 12 2 8 2 7v2l4 6v2Zm-32-20 3 2v1l-3-3Zm47 4-4 3-3-5c-2-2-4-4-8-5-2 0-3-1-4-3l-4-8v-1l3-1 6 2 2 2 5 2 4 1 2 3 2 4 2 1-3 5Zm31-50c-3 9-8 17-13 25l-4 6-2 1-5-3c-3-1-5-2-8 0l-2 1-2 1-16-6c-3-1-3-1-2-3l5-5 4-2 4-2h2l2 2c1 1 2 1 3-1l7 4c2-8 1-15-5-20l-6-6c-3-2-5-5-5-7h1v-1c1 2 3 2 5 2h2l7 2 4 1 10 4a167 167 0 0 1 9 2l2 1 5-1-2 5Zm15-48-5 21-3 10-1 1-9-5c-5-2-10-2-14 0s-7 2-10 1l-20-5-16-8v-1l6 1 14-2 6-1 15 3 4 2 6 1 6-3 3-4v-3c-3-2-6-3-9-1l-4 3-3 1-16-3v-2a1500 1500 0 0 0 13-17h7l3 2h6l1 1c4 0 8-1 10-3l5-5c-2-3-5-4-8-5l-7-2c-3 0-6 2-8 5l-2 2c-2 1-4 1-5-1l-1-1a158 158 0 0 1 7-8c4-1 8-3 10-7 2-2 2-5 3-7 0-3 0-5 2-8-4 0-8 2-11 3-4 2-7 5-9 9l-1 6v2c-6 8-12 16-16 25-4 6-9 10-16 11-7 0-14 0-20-3l-11-8-7-7-4-3c-4-6-9-11-15-16 2-1 4-2 7-1 6 1 9-2 11-7l1-1c1-3 0-4-3-5l-1-2c1-2 1-5 3-7h2l3 1h5l5 5c3 5 4 10 5 15l2 12v7c0 5 1 9 4 12 1 2 4 3 7 4v-2c0-4 1-7-1-10l-1-3c-2-2-3-5-3-7l-2-9 6 4v-2l3 3c2 6 5 11 10 14l8 2 1-7c-1-6-3-10-8-14-3-2-5-2-8-2h-2l-9-10a50 50 0 0 1-8-11l-1-1 4-1 17-2 3-1 4 1 3 3 4 7c1 2 3 4 6 5h4l2 1 2-1c3-1 3-1 2-3l-1-7c-2-4-5-7-11-7h-4l-4-2 1-1 17-3 3 1c2 2 5 2 7 2l2 1 5 6c2 2 5 2 8 3l8 2 6-1c0-1 0-2 2-2v5l1 20c0 9-1 17-3 25Z" style="fill:none;stroke:#a3d1d9;stroke-miterlimit:10;stroke-width:2px"/><ellipse cx="133.1" cy="157.9" rx="1.1" ry=".7" style="fill:none;stroke:#a3d1d9;stroke-miterlimit:10"/><ellipse cx="286.6" cy="261.7" rx="1.1" ry=".7" style="fill:none;stroke:#a3d1d9;stroke-miterlimit:10"/><ellipse cx="183.5" cy="69.8" rx="1.1" ry=".7" style="fill:none;stroke:#a3d1d9;stroke-miterlimit:10"/><g><path d="M219 236s4-5 7-4c3 0 7 5 4 10-4 7-11 12-11 12s-6-4-10-10c-2-4-1-10 3-11 3-1 7 3 7 3Z" style="fill:none;stroke:#a3d1d9;stroke-miterlimit:10;stroke-width:3px"/></g></svg>