<?xml version="1.0" standalone="no"?>
<!DOCTYPE svg PUBLIC "-//W3C//DTD SVG 20010904//EN"
 "http://www.w3.org/TR/2001/REC-SVG-20010904/DTD/svg10.dtd">
<svg version="1.0" xmlns="http://www.w3.org/2000/svg"
 width="1280.000000pt" height="731.000000pt" viewBox="0 0 1280.000000 731.000000"
 preserveAspectRatio="xMidYMid meet">
<metadata>
Created by potrace 1.15, written by Peter Selinger 2001-2017
</metadata>
<g transform="translate(0.000000,731.000000) scale(0.100000,-0.100000)"
fill="#000000" stroke="none">
<path d="M2760 7305 c0 -11 1104 -547 3180 -1545 421 -202 986 -475 1255 -605
270 -130 507 -243 529 -251 80 -29 97 -10 49 55 -76 104 -87 110 -526 312
-292 135 -1521 693 -2242 1019 -1018 460 -1451 657 -1700 777 -352 170 -545
254 -545 238z"/>
<path d="M1685 7269 c-104 -13 -255 -65 -348 -121 -146 -88 -225 -154 -662
-558 -99 -91 -244 -223 -323 -294 -78 -70 -154 -147 -167 -170 -105 -179 106
-342 870 -676 460 -202 961 -441 1925 -918 509 -253 1990 -999 1998 -1006 18
-19 -105 -116 -268 -211 -649 -377 -2074 -1049 -2550 -1201 -145 -46 -154 -42
-571 233 -317 209 -499 310 -539 300 -41 -10 -195 -141 -351 -296 -149 -149
-209 -226 -209 -268 0 -34 31 -91 90 -164 l51 -64 -108 -6 c-175 -11 -300 -63
-410 -171 -150 -147 -148 -324 5 -368 47 -14 331 -34 788 -56 287 -13 365 -20
391 -33 18 -9 111 -83 208 -166 97 -82 186 -156 199 -164 21 -12 137 8 1127
193 1881 353 3334 630 3699 706 l185 38 642 6 642 6 137 -182 c188 -250 435
-528 489 -548 55 -21 77 6 241 289 116 200 120 205 188 199 43 -4 136 -46 559
-254 279 -137 506 -253 504 -259 -6 -19 -122 -106 -172 -129 -112 -53 -261
-60 -446 -22 -78 17 -126 22 -150 17 -34 -8 -33 -8 36 -29 322 -98 508 -76
714 83 39 30 74 55 77 55 3 0 283 -146 622 -324 1033 -541 1010 -530 1030
-515 75 58 436 384 565 509 235 229 307 326 365 496 68 198 48 343 -65 488
-48 62 -187 177 -344 287 -380 264 -679 467 -794 539 -71 45 -129 87 -128 93
1 7 15 64 32 128 47 182 62 310 68 574 8 385 -33 694 -144 1068 -92 312 -256
636 -432 851 -259 316 -639 528 -1121 627 -159 33 -406 33 -556 1 -421 -90
-797 -338 -1077 -711 -82 -109 -187 -274 -187 -294 0 -14 41 -57 53 -57 4 0
18 25 32 55 13 31 48 93 78 138 253 388 719 706 1162 793 64 13 138 18 255 18
227 0 321 -21 583 -134 197 -85 241 -111 257 -149 25 -61 6 -110 -173 -461
-94 -184 -205 -405 -248 -490 -93 -187 -117 -215 -192 -213 -29 0 -85 12 -127
27 -151 54 -394 44 -524 -21 -28 -14 -76 -49 -107 -79 -31 -29 -69 -56 -84
-60 -45 -11 -578 147 -700 208 -108 54 -160 101 -195 173 -21 45 -40 69 -56
75 -29 11 -90 0 -174 -31 -65 -24 -94 -21 -205 21 -157 61 -426 190 -1460 703
-3095 1533 -3563 1753 -3886 1832 -193 47 -442 65 -614 44z m9130 -1940 c64
-47 90 -75 215 -234 112 -143 135 -183 205 -360 136 -344 202 -658 227 -1077
14 -230 2 -505 -32 -734 -30 -201 -44 -260 -61 -256 -16 4 -327 179 -409 230
-46 29 -256 168 -269 178 -2 2 4 19 13 38 36 77 48 125 53 223 9 168 -43 345
-149 510 -66 102 -108 145 -215 219 l-95 67 401 401 c220 221 401 405 401 410
0 25 -137 210 -201 273 -165 160 -185 187 -84 112z"/>
<path d="M1990 4835 c0 -5 127 -82 300 -182 301 -175 646 -364 2002 -1099 88
-48 128 -74 128 -87 0 -37 -215 -173 -715 -452 -480 -268 -760 -443 -742 -462
22 -22 1710 862 1724 903 4 13 -453 253 -1437 754 -560 286 -1260 633 -1260
625z"/>
<path d="M6368 1683 c6 -2 18 -2 25 0 6 3 1 5 -13 5 -14 0 -19 -2 -12 -5z"/>
<path d="M5735 1561 c-1062 -216 -1285 -261 -2015 -412 -2192 -453 -3430 -730
-3667 -820 -61 -23 -5 -16 143 17 215 48 428 93 1099 235 673 142 2719 579
3179 680 704 154 1687 371 1781 393 222 53 30 18 -520 -93z"/>
<path d="M10260 895 c0 -11 350 -236 510 -327 91 -52 316 -171 500 -265 184
-93 384 -200 445 -235 109 -66 110 -66 135 -48 77 55 650 659 650 685 0 4 -89
-79 -197 -184 -206 -197 -323 -300 -421 -369 l-57 -40 -700 350 c-385 192
-737 369 -782 394 -46 25 -83 42 -83 39z"/>
</g>
</svg>
