<?xml version="1.0" encoding="UTF-8"?><svg xmlns="http://www.w3.org/2000/svg" width="153.81mm" height="153.01mm" viewBox="0 0 436 433.74"><g id="Ebene_2"><path d="M4.78,216.86c.89,23.24,6.56,69.74,24.56,89.54,3.56,3.91,18.1,.23,23.38,0,4.77-.2,17.09-2.97,21.6-4.55,12.12-4.26,20.13-5.4,29.12-14.58,5.89-6.01,21.3-20.38,26.74-26.8,11.84-13.97,15.34,1.84,33.51,4.08,5.63,.69,16.78-4.99,19.47,0,1.41,2.62,26.7-4.67,28.14-2.07,1.29,2.32,36.22-.39,38.84,.03,62.22,9.85-12.24,60.27,15.38,82.55,11.42,9.21,36.99,18.8,43.54,31.93,16.66,33.35,52.82-18.64,72.33-36.44,25.4-23.18,26.68-35.98,38.04-68.44,9.58-27.39,5.09-56.11,6.05-85.11,.62-18.88-19.28-57.29-25.19-75.23-7.8-23.65-40.98-53.7-60.76-68.81C315.64,24.71,264.58,2.85,239.5,3.86c-22.44,.9-46.28-2.98-68.45,.59-23.45,3.78-44.52,17.95-65.5,29.09-23.53,12.5-72.51,60.89-89.58,102.84" style="fill:#95c11f;"/></g><g id="Ebene_1"><path d="M434.43,227.49c.06-.7,.11-1.39,.2-2.09,.11-.85,.39-1.69,.37-2.53-.07-2.94-.34-5.89-.33-8.83,0-2.36,.57-4.66,.06-7.11-.54-2.59-.4-5.32-.6-7.98-.17-2.29-.32-4.58-.64-6.85-.44-3.21-1.03-6.4-1.55-9.6-.52-3.2-.93-6.42-1.57-9.59-.56-2.82-1.29-5.61-2.07-8.37-1.56-5.53-3.05-11.08-4.85-16.53-2.83-8.59-6.24-16.96-10.36-25.03-2.45-4.8-4.67-9.74-7.34-14.41-5.81-10.13-12.49-19.69-20.11-28.55-4.06-4.72-8.22-9.36-12.43-13.95-5.23-5.72-10.97-10.91-17.05-15.7-7.86-6.2-16.31-11.53-24.85-16.73-8.76-5.34-17.87-9.96-27.3-13.97-9.83-4.18-19.87-7.81-30.18-10.58-11.92-3.21-23.99-5.74-36.32-6.82-9.81-.86-19.62-1.53-29.48-1.14-9.62,.38-19.18,1.27-28.58,3.26-8.6,1.82-17.2,3.8-25.64,6.25-13.55,3.92-26.5,9.48-39.12,15.77-6.88,3.43-13.54,7.25-19.89,11.63-8.87,6.11-17.15,12.93-25.18,20.1-11.2,9.99-20.98,21.17-29.26,33.68-7.85,11.86-14.55,24.33-20.24,37.36-4.09,9.35-7.69,18.86-10.22,28.74-1.61,6.27-2.94,12.62-4.5,18.91-.28,1.11-.17,2.22-.52,3.36-.55,1.81-.5,3.8-.73,5.72-.22,1.8-.49,3.59-.76,5.55,.01,.03,.26,.32,.23,.59-.1,1.13-.32,2.25-.43,3.38-.15,1.49-.23,2.99-.37,4.48-.17,1.79-.43,3.57-.56,5.37-.14,1.85-.09,3.71-.28,5.55-.14,1.42-.52,2.81-.79,4.21l.31,.05c.03-.12,.07-.25,.11-.37,.07,.02,.14,.04,.22,.05-.14,.69-.27,1.37-.42,2.08h.55c-.19,1.07-.47,2.11-.55,3.15-.09,1.3-.05,2.62,0,3.93,.03,.71,.27,1.42,.29,2.14,.03,.97-.12,1.95-.09,2.93,.04,.98,.23,1.95,.31,2.93,.31,3.78,.34,7.61,.96,11.35,1.2,7.22,2.51,14.43,4.18,21.55,1.56,6.66,3.36,13.3,5.58,19.76,2.63,7.63,5.67,15.13,8.82,22.56,2.06,4.84,4.59,9.48,7,14.17,4.32,8.41,9.55,16.26,15.07,23.92,4.48,6.22,9.4,12.08,14.55,17.75,5.05,5.56,10.3,10.91,16,15.8,7.68,6.59,15.75,12.67,24.11,18.38,6.46,4.42,13.12,8.49,20.06,12.09,7.54,3.91,15.31,7.34,23.36,10.06,5.97,2.02,11.96,4.04,18.04,5.69,5.92,1.61,11.99,2.7,17.97,4.11,8.27,1.94,16.7,2.57,25.14,3.06,6.81,.4,13.65,.4,20.48,.54,2.06,.04,4.15,.16,6.19-.06,7.69-.83,15.37-1.67,23.03-2.73,4.74-.65,9.47-1.53,14.13-2.61,4.55-1.05,9.01-2.46,13.5-3.76,7.46-2.16,14.79-4.72,21.88-7.89,4.95-2.21,9.89-4.48,14.67-7.03,6.32-3.36,12.54-6.92,18.7-10.58,8.06-4.79,15.58-10.37,22.63-16.55,3.51-3.08,6.93-6.26,10.32-9.46,2.32-2.2,4.54-4.51,6.79-6.78,1.58-1.6,3.35-3.06,4.67-4.86,1.88-2.56,4.57-4.43,6.06-7.31,.05-.1,.16-.18,.23-.27,1.82-2.24,3.74-4.4,5.44-6.72,1.98-2.71,3.8-5.54,5.64-8.36,2.85-4.36,5.73-8.7,8.45-13.15,1.9-3.11,3.65-6.32,5.3-9.57,2.44-4.8,4.96-9.58,7.02-14.55,2.87-6.93,5.36-14.02,7.99-21.06,1.01-2.71,1.56-5.58,2.62-8.27,.68-1.73-.08-3.76,1.24-5.32,.06-.07-.02-.23,0-.34,.09-.5,.19-1,.3-1.5,.18-.79,.38-1.57,.55-2.36,.24-1.15,.45-2.3,.69-3.45,.05-.26,.2-.5,.22-.76,.14-2.01,.09-4.06,.42-6.04,.41-2.49,1.01-4.92,.82-7.48-.05-.69,.09-1.49,.42-2.07,.44-.78,.53-1.48,.4-2.34-.12-.83,.05-1.7,.02-2.54-.07-2.52,1.56-4.88,.65-7.48-.03-.09,.09-.22,.09-.34,.04-.54,.07-1.08,.11-1.62ZM4.06,230.55c-.33-.64-1.8-.47-1.09-2.07,.52,.72,.93,1.29,1.35,1.86-.08,.07-.17,.14-.25,.2ZM394.12,125.29c1.4-1.09,2.31-2.5,2.97-4.05,.31-.73,.43-4.37,.87-4.23,.4,.13,1.96,3.42,2.62,4.9,.39,.87,2.39,5.57,2.73,6.28,3.59,7.35,7.24,14.68,9.58,22.54,3.11,10.45,6.08,20.95,7.81,31.75,.41,2.57,.77,5.16,1.19,8.04-1.93-1.2-3.56-2.21-5.18-3.22-1.92-1.19-3.87-2.34-5.76-3.58-3.57-2.36-7.5-3.11-11.69-2.72-1.62,.15-3.23,.38-4.85,.57-.38,.04-.76,.06-1.43,.11,.71-.86,1.25-1.51,1.79-2.17,.5-.61,1.02-1.21,1.45-1.87,.5-.78,1.22-1.12,2.09-1.16,5.32-.27,10.16-5.77,10.73-10.74,.22-1.96-.25-4-.37-6.01-.11-1.81-.24-3.62-.2-5.42,.03-1.22-.12-1.49-1.31-1.07-6.21,2.16-11.09,5.75-13.27,12.29-.55,1.64-.95,3.25-1.15,5.01-.51,4.32-3.65,9.1-9.28,10.04-1.05,.18-2.13,.21-3.19,.3-.75,.06-1.12-.24-1-1.04,.61-4.16,2.12-7.97,4.54-11.38,.41-.57,1.3-.89,2.03-1.12,4.74-1.53,7.3-5.11,8.98-9.5,.69-1.81,.23-2.39-1.71-2.5-4.91-.29-9.56,2.62-11.27,7.69-1.5,4.44-3.87,8.41-5.81,12.61-.4,.86-.96,1.09-1.79,.91-.89-.19-1.47-.73-1.4-1.65,.11-1.58,.34-3.15,.53-4.72,.08-.63,.23-1.25,.29-1.88,.14-1.5-.28-2.24-1.46-2.65-1.32-.46-2.63-.06-3.37,1.02-1.34,1.96-1.21,4.56,.38,6.66,1.51,2.01,1.69,4.22,.99,6.54-.12,.4-.61,.88-1.02,.98-4.33,1.1-8.43,2.71-12.32,4.97-1.01,.59-2.45,.48-3.69,.61-.19,.02-.56-.4-.61-.65-.85-4.71,.02-8.99,3.22-12.67,.15-.18,.33-.37,.54-.45,4.87-1.92,7.05-6.03,8.61-10.62,1.64-4.82,1.42-9.93-.6-15.08-4.57,2.19-8.17,5.26-10.36,9.82-1.62,3.35-2.32,6.88-2.17,10.6,.03,.71-.26,1.5-.61,2.13-3.02,5.34-4.64,11.02-4.24,17.2,.05,.7,.07,1.29-.9,1.46-4.03,.7-8.04,1.49-12.16,1.26-5.39-.29-10.78-.61-16.17-.84-2.74-.12-5.48-.09-8.22-.13-1.19-.02-1.36-.26-.93-1.34,.79-1.99,2.03-3.65,4.04-4.47,5.56-2.29,7.86-6.83,8.73-12.39,.35-2.25,.53-4.5-.15-6.72-.36-1.18-.71-1.4-1.65-.62-1.96,1.6-3.75,3.41-5.69,5.03-3.17,2.64-4.28,6.36-5.62,10.03-.95,2.59-2.16,5.1-3.43,7.56-.8,1.55-2.1,2.21-4.05,1.91-5.22-.83-10.43-.64-15.54,.9-6.28,1.9-12.06,4.81-17.35,8.7-1.33,.98-2.75,1.84-4.35,2.9-.28-2.47,.14-4.51,1.17-6.41,.41-.76,.95-1.47,1.53-2.12,2.81-3.12,3.3-6.88,2.86-10.81-.39-3.48-1.58-6.71-3.71-9.54-.21-.28-.41-.58-.63-.86-.56-.7-1.06-.62-1.44,.16-.38,.78-3.25,3.35-3.73,4.06,1.92-4.45,4.99-11.49,9.79-14.31,.22,.2,7.69-.77,7.96-.13,2.21,5.19,11.08,11.67,16.93,7.11,.34-.27,.69-.54,1-.84,2.45-2.31,2.55-4.16-.11-6.08-2.59-1.86-5.42-3.4-8.25-4.9-2.03-1.07-4.23-.99-6.33-.01-2.35,1.1-4.67,.98-7.08-.08,.1-.21,.16-.45,.31-.58,4.26-3.87,8.76-7.37,14.39-9,5.29-1.53,10.71-2.21,16.22-2.15,.6,0,1.2-.06,1.78,.04,.79,.13,1.55,.42,2.32,.6,.91,.21,1.83,.51,2.76,.55,1.21,.04,2.04,.37,2.69,1.51,1.68,2.93,3.67,5.65,6.23,7.91,.27,.24,.56,.66,.55,.99-.11,2.74,1.2,4.87,2.86,6.86,2.17,2.6,4.92,4.46,8.06,6.11,.13-1.05,.32-1.98,.34-2.91,.06-2.96-.21-5.9-1.42-8.62-1.28-2.89-3.17-5.14-6.57-5.78-2.77-.52-5.28-3.86-5.14-6.67,.8,0,1.62-.04,2.43,0,6.32,.34,12.59,.1,18.86-.99,3.22-.56,5.66-2.37,8.23-4.07,3.49-2.3,7.08-4.4,11.2-5.37,1.25-.29,2.53-.47,3.81-.6,.47-.05,.96,.17,1.69,.32,1.12-1.29,2.85-.44,4.31-.2,2.24,.37,4.39,1.3,6.59,1.94,1.16,.34,2.35,.66,3.55,.8,1.03,.12,1.59,.51,1.77,1.54,.52,2.89,1.65,5.45,3.97,7.39,1.93,1.61,4.25,2.05,6.62,2.39,.86,.12,1.74,.19,2.61,.23,.34,.02,.84,.03,1.01-.17,1.34-1.53,3.04-1.15,4.72-.98,.34,.03,.69,.06,1.2,.1-.03-3.58-.56-6.9-2.86-9.67-3.79-4.57-8.67-6.41-14.52-5.45-1.88,.31-3.14-.59-4.66-1.74,2.08-1.31,3.93-2.58,5.89-3.67,.6-.33,1.48-.28,2.22-.24,1.76,.09,3.52,.33,5.28,.39,.44,.02,.95-.33,1.34-.64Zm-135.31,65.07c.3,.25,.68,.63,.69,.95,.05,1.82,.14,3.65-.06,5.45-.23,2.03-1.26,3.71-2.92,5-3.1,2.41-6.17,4.85-9.26,7.27-.39,.31-.84,.55-1.59,1.03,.17-.85,.2-1.39,.38-1.86,1.71-4.52,3.46-9.02,5.17-13.54,1.29-3.41,2.5-6.84,3.78-10.25,.38-1,.91-1.94,1.37-2.91,.09,.04,1.82-3.67,1.92-3.63-.1,.44-1.14,4.43-1.24,7.16-.04,.95,1.06,4.75,1.77,5.33Zm-7.4,24.84c3.38-4.16,7.61-7.26,12.99-8.46,.82-.19,1.35-.19,1.7,.82,.59,1.72,2.23,1.9,3.73,2,1.37,.09,2.77-.11,4.15-.09,.47,0,1.04,.14,1.4,.42,2.18,1.74,4.77,2.35,7.43,2.54,2.3,.16,3.93-1.31,5.35-2.91,1.55-1.75,1.55-1.87,.11-3.79-2.64-3.52-6.01-5.61-10.59-5.11-.82,.09-1.61,.44-2.43,.54-.77,.1-1.56,.02-2.34,.02-.04-.12-.07-.24-.11-.37,.25-.2,.48-.43,.75-.58,4.4-2.52,9.07-4.41,14-5.54,3.69-.85,7.48-.88,11.25-.41,.63,.08,1.01,.32,1.3,.99,.22,.5,.91,1.01,1.46,1.12,1.51,.28,3.05,.41,4.59,.47,.72,.03,.87,.34,.95,.91,.35,2.51,.73,5.01,1.03,7.53,.03,.29-.31,.84-.58,.91-3.46,.94-5.48,3.29-6.73,6.52-.19,.5-.89,1.04-1.44,1.14-5.69,1.05-11.39,2.03-17.1,2.98-6.61,1.1-13.25,2.12-19.63,4.2-6.37,2.07-12.1,5.51-17.77,9.01-.87,.54-1.77,1.02-2.66,1.53-.08-.08-.17-.16-.25-.25,.54-1.05,1.19-2.05,1.59-3.14,1.76-4.86,4.66-9.05,7.86-12.99Zm131.39-112.45c.05-.1,.22-2.47,.51-3.7,.19-2.03-.22-4.73,.19-4.18,.8,1.08,4.1,5.28,4.93,6.33,.24,.3,3.45,6.5,3.62,6.68,.13,.14,.09,.62-.06,.78-.58,.64-1.15,1.32-1.86,1.79-2.78,1.87-4.64,4.46-6.25,7.35-3.11,5.59-7.68,8.98-14.36,8.86-1.3-.02-1.49-.21-.96-1.38,1.39-3.06,2.83-6.1,4.33-9.1,.34-.68,.96-1.29,1.59-1.73,3.86-2.69,6.4-6.33,7.91-10.73,.12-.34,.27-.66,.42-.98Zm-29.52-33.04c2.8-5.25,.46-6.85,1.39-6.03,1.57,1.37,3.26,3.42,7.39,7.26,1.21,1.12,2.5,2.76,3.52,3.85,4.05,4.34,8.06,8.7,12.07,13.08,.34,.37,.55,.87,.85,1.29,.27,.37,.57,.73,.89,1.05,.46,.47,.96,.9,1.39,1.3-.86,1.66-2.06,2.63-3.46,3.51-4.63,2.9-8.13,6.71-9.26,12.26-.2,.96-.29,1.97-.24,2.95,.3,5.97-1.89,10.69-6.73,14.27-5.64,4.17-11.5,7.93-18.05,10.48-7.79,3.03-15.86,4.28-24.17,3.11-3.09-.44-6.11-1.34-9.15-2.11-.31-.08-.76-.71-.69-.97,1.37-5.55,2.87-11.06,6.02-15.93,.52-.8,1.08-1.57,1.65-2.33,.69-.93,1.56-1.15,2.6-.57,.52,.29,1.08,.51,1.57,.84,.93,.63,1.79,.76,2.71-.03,.18-.15,.67-.07,.94,.05,.91,.4,1.77,.89,2.67,1.31,2.65,1.23,5.39,1.47,8.08,.3,2.2-.95,4.26-2.2,6.59-3.42-2.52-3.48-5.22-6.18-9.07-7.48-3.88-1.32-7.65,.13-11.81,.76,1.04-1.87,1.89-3.42,2.75-4.96,2.18-3.93,4.7-7.65,7.75-10.95,1.02-1.1,2.37-1.92,3.68-2.69,.44-.26,1.25-.05,1.83,.13,1.57,.51,3.11,1.14,4.67,1.66,.37,.12,.9,.14,1.23-.03,.68-.35,1.15-.23,1.52,.37,2.15,3.42,5.44,3.72,8.93,3.08,1.93-.36,3.77-1.18,5.67-1.75,.78-.24,.83-.68,.63-1.36-2.01-6.79-8.75-10.52-14.75-10.04-.89,.07-1.82,.36-2.56-.62,.17-.3,.33-.65,.55-.97,1.43-2.05,2.28-4.68,4.29-6.15,3.34-2.44,4.9-2.26,6.11-4.53Zm-29.1-16.36c.91-1.29,1.25-2.5,1.86-4.12,.69-1.83,.43-5.51,.43-5.51,0,0,4.67,2.64,5.27,3.02,6.62,4.23,9.58,7.27,12.73,9.5-.06,.15,2.69,1.9,2.63,2.05-1.24,.57-1.18,.85-2.2,1.78-1.51,1.38-2.09,2.74-2.35,3.6-.9,3.02-.03,6.7-.35,8.58-.81,4.72-4.36,8.36-7.87,11.65-.2,.19-.39,.4-.6,.58-.08,.07-.21,.1-.38,.17-1.31-2.06-1.47-4.28-.68-6.48,.55-1.55,1.35-3.05,2.29-4.4,2.67-3.82,4.49-7.95,4.74-12.64,.07-1.28-.16-2.62-.53-3.85-.56-1.88-2.07-2.36-3.75-1.34-.54,.32-1.05,.73-1.46,1.2-3.83,4.42-6.12,9.52-6.51,15.38-.1,1.48,.03,3.07,.46,4.48,.77,2.51,.08,4.86-.28,7.28-.3,1.98-.42,3.99-.52,6-.05,1.14-.19,2.12-1.07,3.01-4.32,4.43-7.3,9.75-10.12,15.19-.84,1.62-1.74,3.2-2.91,4.75,.08-.81,.09-1.64,.26-2.43,.83-3.87,1.46-7.8,2.63-11.56,.69-2.22,2.34-4.12,3.4-6.24,2.81-5.61,3.62-11.62,3.18-17.82-.08-1.1-.2-2.51-1.47-2.89-1.21-.36-2.05,.71-2.73,1.56-4.25,5.34-6.89,11.36-7.38,18.22-.08,1.14-.11,2.31,.02,3.44,.35,3.08-.5,5.96-1.19,8.9-1.19,5.09-2.16,10.24-3.38,15.33-.97,4.04-2.13,8.04-3.32,12.03-.3,1-.98,1.89-1.53,2.8-1.32,2.15-3.45,2.67-5.78,2.99-5.2,.72-10.24,2.09-15.09,4.14-6.63,2.81-11.33,7.75-15.21,13.59-2.47,3.73-4.78,7.58-7.17,11.37-.29,.45-.59,.9-1.06,1.62-.09-.56-.18-.78-.14-.98,1.15-6.7,2.58-13.32,5.64-19.46,2.09-4.2,5.11-7.64,8.8-10.49,.46-.35,1.35-.42,1.95-.27,3.33,.84,6.64,1.15,9.98,.14,3.8-1.15,6.66-4.76,6.93-8.69,.1-1.47-.24-1.77-1.72-1.45-2.9,.61-5.84,1.06-8.47,2.63-.89,.53-2.09,.54-3.15,.78-.08-.15-.16-.3-.24-.45,.73-.81,1.46-1.61,2.18-2.42,2.59-2.91,4.45-6.25,5.96-9.81,.71-1.68,1.53-3.31,2.26-4.99,.63-1.45,1.73-2.27,3.19-2.82,.97-.37,1.81-1.06,2.73-1.58,.36-.2,.77-.44,1.16-.46,4.98-.14,8.95-2.99,10.47-7.67,.46-1.42,.67-2.92,1.04-4.57-2.44,.08-4.54,.6-6.54,1.61-2.71,1.36-4.64,3.54-6.28,6.02-.42,.63-.87,1.26-1.94,.92,.1-.39,.14-.77,.29-1.11,4.04-9.44,8.12-18.86,12.15-28.31,2.37-5.55,5.97-10.16,10.52-14.07,.81-.7,1.54-1.5,2.39-2.14,.61-.46,1.33-.87,2.06-1.05,2.46-.58,4.44-2.37,5.77-4.24ZM65.13,80.91c3.77-3.9,7.5-7.84,11.34-11.66,2.05-2.03,4.24-3.94,6.5-5.73,1.22-.97,2.71-1.62,4.13-2.32,.38-.19,.93,0,1.39-.05,.86-.07,1.82,.03,2.54-.34,.88-.45,1.41-.19,2.16,.22,3.24,1.75,5.16,4.73,7.22,7.58,1.04,1.44,2.09,2.88,3.13,4.32-.02,.14-.04,.28-.06,.41-5.81-1.05-11.06-.28-15.16,4.32-1.44,1.61-3.02,4.44-3.05,5.41,1.8,.8,3.52,1.71,5.34,2.32,1.52,.51,3.15,.75,4.76,.94,1.76,.21,3.11-.75,4.31-1.91,.48-.47,.93-.98,1.39-1.47,.95-.98,2.06-1.45,3.44-1.06,1.53,.44,2.94,.38,4.25-.71,.28-.23,1.08-.22,1.38,.02,.92,.73,1.89,1.5,2.51,2.47,3.66,5.73,7.22,11.52,10.81,17.3,.17,.28,.27,.61,.52,1.18-1.62-.3-2.96-.56-4.31-.78-2.36-.4-4.71-.52-7.08,.08-3.24,.83-7.69,4.36-9.02,7.28,3.64,2.89,8.21,5.79,13.86,3.36,1.05-.45,2.05-1.03,3.12-1.4,1.87-.65,4.17-2.55,6.13-2.04,.19,.05,1.85,1.83,2.24,2.68,1.34,2.86,2.73,5.71,3.94,8.62,.46,1.1,.36,2.43,.76,3.57,.41,1.17,.27,2.51,1.23,3.55,.58,.63-.4,2.46-1.28,2.54-5.21,.48-10.42,1.24-15.63,1.3-3.27,.03-6.61-.76-9.81-1.62-8.04-2.15-15.18-6.13-21.65-11.33-1.3-1.04-2.61-2.08-3.96-3.05-3.26-2.32-4.75-5.69-5.44-9.44-.33-1.77-.25-3.61-.27-5.43-.05-3.58-1.27-6.72-3.34-9.6-2.14-2.97-5.09-4.97-8-7.03-1.3-.92-1.38-1.41-.31-2.52Zm-9.96,11.47c5.04-7.44,5.25-8.78,6.72,.63,.54,3.43,2.74,6.33,5.23,8.83,.45,.45,.86,.96,1.39,1.29,2.65,1.61,3.93,4.16,4.91,6.93,.63,1.79,1.18,3.62,1.74,5.43,.27,.88,0,1.29-1.02,1.3-6.2,.01-10.72-2.85-13.93-8.02-1.33-2.15-2.51-4.43-4.1-6.37-1.23-1.49-2.99-2.54-4.53-3.8-.06-2.4,2.5-4.62,3.58-6.21ZM21.03,162.98c.82-2.9,1.69-5.79,2.68-8.63,.52-1.48,1.48-2.81,1.99-4.3,1.24-3.62,2.49-7.25,3.45-10.95,.91-3.53,2.43-6.78,3.99-10.01,1.94-4.03,4.02-8,6.21-11.89,.68-1.22,2.75-5.68,3.73-6.73,2.68-2.83-.3-4.32,4.69,2.9,1.39,2.02,4.35,2.13,6.81,2.77,1.05,.27,2.19,.65,3.24,.52,2.56-.33,4.04,1.43,6.08,2.62-1.58,1.32-3.08,1.9-5.02,1.69-2.11-.23-4.29-.41-6.37-.12-5.77,.82-10.22,5.11-11.48,10.8-.22,.98-.14,2.02-.19,2.82,1.63,.24,3.25,.07,4.42,.73,2.57,1.43,5.35,1.1,8.03,1.53,.42,.07,.99-.08,1.32-.34,1.15-.9,2.24-1.89,3.34-2.86,2.1-1.84,2.98-4.34,3.71-6.92,.13-.46,.53-1.01,.94-1.19,1.88-.84,3.79-1.65,5.73-2.32,2.02-.69,4.09-1.11,5.96,.49,.15,.13,.45,.11,.67,.11,2.22,0,4.43-.05,6.64,0,.85,.02,1.75,.13,2.55,.41,3.92,1.39,7.53,3.43,10.67,6.12,3.3,2.82,7.14,4.16,11.25,5.03,5.26,1.11,10.59,1.53,15.96,1.23,.5-.03,1,0,1.53,0-.74,3.34-3.72,5.69-6.91,5.44-3.19-.26-5.28,1.48-6.94,3.83-2.22,3.15-3.23,6.77-3.59,10.58-.02,.19,.05,.38,.1,.69,4.21-1.28,8.35-2.56,11.3-6.02,.78-.92,1.45-2.03,1.83-3.16,.33-.98,.82-1.62,1.64-2.18,3.2-2.2,5.87-4.97,8.33-7.94,.68-.81,1.39-1.22,2.45-1.05,3.87,.61,7.77,1.09,11.62,1.82,3.5,.66,7,1.4,10.4,2.44,5.11,1.57,9.59,4.35,13.52,7.98,.7,.65,1.39,1.3,2.08,1.96,.07,.07,.07,.22,.13,.41-2.28,.79-4.6,1.21-6.8,.1-3.36-1.69-6.47-1.1-9.5,.67-1.71,1-3.3,2.18-4.94,3.29-.2,.13-.37,.29-.55,.46-2.52,2.4-2.12,4.08,0,6.04,3.08,2.85,6.82,3.73,10.95,2.86,3.55-.74,6.44-2.39,8.16-5.75,.17-.34,.82-.62,1.24-.6,.82,.03,1.65,.21,2.44,.46,1.43,.45,2.7,.37,3.9-.63,.82-.68,1.4-.02,1.71,.61,.81,1.67,1.6,3.36,2.22,5.11,.98,2.76,1.77,5.59,2.73,8.35,.28,.81,.27,1.39-.32,2.02-.23,.24-.29,.64-.53,1.2-.58-1.64-1.11-3.11-1.62-4.59-.43-1.24-.76-2.51-1.26-3.71-.43-1.03-.95-1.09-1.62-.19-3.82,5.08-5.75,10.72-4.19,17.05,.49,1.97,1.81,3.75,2.86,5.55,1.33,2.26,1.73,4.02,1.16,6.97-1.34-1.06-2.52-1.96-3.68-2.89-6.12-4.9-12.66-9.03-20.39-10.89-3.82-.92-7.72-.89-11.61-.7-2.73,.13-5.46,.37-8.19,.55-.22,.01-.44-.02-.81-.05,.74-1.27,1.44-2.4,2.07-3.57,2.37-4.37,3.26-8.99,2.29-13.91-.18-.93,.03-1.58,.64-2.43,1.13-1.59,2.54-2.39,4.32-2.54-1.22-1.83-2.32-3.65-3.6-5.33-.6-.78-1.46-1.48-2.36-1.9-2.12-1.01-4.23-.47-5.16,1.64-1.27,2.89-3.39,4.62-6.09,6.01-3.89,2-5.86,5.67-7.19,9.57-1.05,3.05-1.59,6.28-2.21,9.46-.38,1.94-.27,1.85-2.22,2.1-4.46,.57-8.87,.39-13.25-.57-1.86-.4-3.71-.87-5.53-1.42-.31-.09-.64-.73-.64-1.11,.02-1.38,.26-2.77,.27-4.15,.03-4.79-1-9.35-2.95-13.73-.33-.75-.45-1.68-.37-2.5,.59-6.42-.31-12.4-5.08-17.18-1.35-1.36-2.98-2.44-4.76-3.87-.72,1.88-1.45,3.41-1.9,5.03-1.62,5.92-.75,11.55,2.3,16.85,.99,1.72,2.31,3.1,4.09,4.04,.46,.25,.88,.69,1.17,1.14,1.93,2.98,2.65,6.25,2.24,9.77-.11,.94-.24,1.89-.36,2.83-.09,.66-.44,1-1.14,.89-1.53-.22-3.01-.47-4.34-1.41-3.19-2.26-6.63-4.05-10.35-5.27-.92-.3-1.34-.84-1.38-1.81-.09-2.29,.45-4.21,2.27-5.84,1.76-1.57,2.35-3.7,1.68-6.06-.36-1.26-1.38-2-2.66-1.91-1.1,.07-2.02,.92-2.15,2.18-.21,1.93-.31,3.87-.47,5.81-.13,1.53-.96,2.48-2.2,2.5-.8,.02-1.33-.28-1.62-1.09-1.06-2.95-2.21-5.86-3.22-8.82-.38-1.11-.49-2.32-.7-3.49-.87-5.04-3.28-8.8-8.49-10.23-.45-.12-.95-.26-1.4-.19-.62,.09-1.67,.27-1.73,.57-.15,.78,.22,1.7,.3,2.44,.26,2.49,1.1,3.88,1.02,3.94,.51,.79,.89,1.72,1.55,2.35,1.33,1.28,2.75,2.48,4.26,3.55,.91,.64,1.66,1.26,2.08,2.33,1.42,3.67,2.84,7.33,2.6,11.38-.04,.66-.18,1.09-.94,1.02-5.52-.48-10.05-2.58-11.98-8.34-.52-1.55-.73-3.26-.79-4.91-.31-8.2-4.71-13.63-11.62-17.39-.38-.2-1.02-.32-1.32-.12-.26,.17-.22,.82-.28,1.27-.23,1.55-.4,3.12-.71,4.66-.19,.96-.67,1.87-.89,2.83-.28,1.21-.27,2.38,.32,3.58,.44,.9,.61,1.95,.79,2.95,.04,.24-.32,.56-.69,1.15,1.05,3.47,3.44,6.24,7.23,7.57,1.75,.62,3.04,1.48,3.96,3.1,.69,1.21,1.65,2.25,2.49,3.37-.06,.1-.12,.21-.17,.31-.76-.1-1.52-.17-2.28-.29-3.94-.61-7.94-1.31-11.72,.37-2.28,1.01-4.3,2.63-6.43,3.99-1.9,1.22-3.78,2.47-5.69,3.67-.31,.19-.73,.19-1.1,.28-.09-.4-.26-.8-.27-1.21-.05-4.67,1.34-9.06,2.59-13.48Zm128.43,39.98c2.84,4.47,7.72,5.74,12.39,3.18,.56-.3,1.13-.61,1.61-1.01,.47-.39,.83-.91,1.08-1.2,.59,.4,1.17,.8,1.74,1.19,.08-.1,.17-.19,.25-.29-.12-.18-.25-.36-.51-.75,.76,.29,1.32,.46,1.84,.71,1.7,.82,3.28,.39,4.69-.61,.83-.59,1.55-.63,2.39-.19,1.81,.96,3.74,1.75,5.4,2.92,3.22,2.26,5.69,5.31,7.72,8.65,2.25,3.72,4.27,7.58,6.4,11.36,.48,.85,1.03,1.66,1.53,2.48-4.66-1.38-8.55-4.1-12.6-6.53-6.84-4.1-14.3-6.61-22.02-8.39-7.72-1.78-15.46-3.49-23.18-5.28-.43-.1-.88-.61-1.1-1.04-.44-.88-.66-1.87-1.1-2.75-1.05-2.07-2.69-3.52-4.9-4.27-.69-.24-.88-.51-.7-1.3,.57-2.42,1.02-4.86,1.49-7.31,.18-.92,.36-1.76,1.61-1.51,.14,.03,.35,0,.46-.08,2.68-2.02,5.85-1.53,8.88-1.75,1.78-.13,3.37,.55,5.03,1.06,1.79,.54,3.68,1.24,5.64,.47,.26-.1,.64-.05,.92,.04,4.11,1.41,7.96,3.35,11.64,5.65,.09,.05,.12,.19,.18,.29-.02,.16-.05,.31-.07,.47-.76-.1-1.61,0-2.25-.33-5.83-2.9-11.68,.01-14.45,4.32-.43,.67-.45,1.13-.02,1.81Zm41.04,1.54c-.18,.53-.33,1-.56,1.68-.79-.69-1.53-1.31-2.25-1.95-1.71-1.53-3.45-3.05-5.12-4.62-2.36-2.21-3.08-5.03-2.73-8.14,.37-3.23,.91-6.44,1.27-9.66,.15-1.36,.03-2.75,.03-3.93,.78,.97,1.65,2.03,2.5,3.11,.33,.43,.56,.95,.91,1.35,2.03,2.26,2.7,5.11,3.43,7.91,1.14,4.36,2.16,8.74,3.22,13.12,.13,.53,.19,1.08,.32,1.83-.42-.28-.66-.44-1.01-.67Zm-58.91-46.75c-.07-.24,.51-.67,.79-1.02,.39,.35,.78,.7,1.35,1.2-.52,.55-.83,.88-1.14,1.21-.35-.46-.84-.87-1-1.39ZM21.22,270.29c-1.17-4.44-2.63-8.83-3.5-13.33-1.24-6.37-2.42-12.79-2.96-19.25-.69-8.21-1.02-16.48-.93-24.72,.07-6.88,.95-13.76,1.54-20.64,.17-2.04,.37-2.1,2.38-1.98,.77,.05,1.44,.05,2.01-.69,.24-.31,.98-.33,1.48-.3,2.8,.16,5.63,.71,8.39,.49,4.16-.34,7.42-2.83,10.35-5.62,2.09-1.99,4.06-4.13,6.02-6.26,.94-1.02,1.99-1.55,3.37-1.57,2.41-.04,4.85-.42,7.23-.17,2.58,.27,5.11,1.06,7.64,1.71,2.99,.77,5.96,1.63,8.93,2.49,.49,.14,.93,.49,1.39,.75-.41,.44-.77,1.2-1.24,1.28-1.74,.27-3.52,.54-5.26,.4-3.12-.25-6.12-.04-8.9,1.49-3.57,1.97-5.51,5.14-6.34,9.05-.24,1.16-.39,2.33-.59,3.49,3,1.46,5.94,2.54,9.21,2.52,2.63-.01,4.86-.91,6.48-2.96,1.72-2.17,3.2-4.53,4.94-6.69,1.08-1.35,2.4-2.52,3.69-3.68,1.19-1.08,2.56-1.27,4.07-.55,.54,.26,1.23,.43,1.82,.36,2.42-.31,4.47,.92,6.66,1.53,2.25,.63,4.48,1.34,6.75,1.89,2.69,.65,5.41,1.16,8.12,1.74,.94,.2,.94,.75,.42,1.38-1.46,1.78-2.89,3.58-4.42,5.29-4.28,4.76-9.11,8.93-13.95,13.1-.83,.71-1.61,.86-2.71,.61-4.55-1.03-7.99,.96-10.94,4.2-3.14,3.46-4.86,7.59-5.6,12.13-.27,1.62-.09,3.33-.05,4.99,0,.22,.43,.62,.62,.6,1.61-.16,3.25-.25,4.82-.64,5.44-1.34,9.1-4.96,11.83-9.64,.8-1.36,1.43-2.83,2.02-4.3,1.04-2.59,5.37-5.74,8.15-5.82,.42-.01,.85,.05,1.48,.1-.39,2.17-.68,4.24-1.14,6.27-.48,2.08-1.02,4.16-1.73,6.18-.4,1.13-1.03,2.29-1.87,3.13-2.58,2.61-3.71,5.79-3.95,9.32-.14,2.11,.02,4.25,.05,6.46,3.38,0,5.9-1.11,7.87-3.51,3.09-3.79,4.21-8.21,3.68-12.93-.63-5.58,.96-10.77,2.29-16.01,1.35-5.3,3.46-10.29,6.78-14.69,1.32-1.76,2.79-3.35,4.74-4.44,1.47-.82,2.89-1.23,4.69-.9,2.03,.37,4.18,.18,6.27,.12,.77-.02,1.27,.18,1.46,.87,.62,2.21,1.22,4.42,1.74,6.65,.06,.28-.37,.84-.7,1.01-.77,.39-1.64,.59-2.44,.92-.82,.33-1.18,.98-1.21,1.87-.18,4.69,4.17,9.96,8.81,10.68,.52,.08,1.07,.3,1.5,.61,1.68,1.21,3.55,1.15,5.46,.97,.58-.05,1.14-.19,1.72-.28,.05,.09,.1,.18,.16,.28-.48,.42-.95,.84-1.43,1.25-2.98,2.48-5.98,4.94-8.92,7.46-.44,.38-.57,1.12-.99,1.54-.84,.84-1.82,1.54-2.68,2.36-.61,.59-1.12,1.28-1.8,2.07-2.36,.86-3.68,2.81-3.97,3.08-4.21,3.85-8.26,7.91-12.76,11.39-4.82,3.72-10.61,5.39-16.68,5.54-4.42,.11-8.88-.09-13.16-1.58-5.03-1.75-8.61-5.16-11.08-9.75-5.43-10.08-12.06-19.29-19.6-27.88-.49-.55-.97-1.39-.94-2.07,.2-5.25-2.23-8.98-6.63-11.51-2.42-1.39-4.98-2.52-7.62-3.84-1.41,4.88-1.77,9.42,.05,13.87,1.32,3.24,3.89,5.19,7.27,5.94,1.97,.44,3.44,1.47,4.7,2.98,2.06,2.46,4.18,4.88,6.3,7.29,.6,.68,.68,1.1-.15,1.69-2.57,1.82-5.42,1.4-7.28-1.16-1.91-2.62-4.21-4.71-7.6-5-2.63-.23-5.22,.16-7.68,1.22-3.03,1.31-5.94,2.81-8.47,5.25,.4,.53,.77,1.08,1.2,1.57,2.9,3.29,6.28,5.63,10.74,6.54,2.76,.56,5.03,.11,7.36-1.16,.6-.33,1.43-.21,2.03-.54,1.6-.87,3.28-1.39,5.08-1.36,.54,0,1.09,.4,1.62,.64,.63,.29,1.22,.81,1.87,.88,1.25,.12,2.55,.13,3.78-.06,1.48-.23,2.42,.32,3.19,1.5,2.93,4.53,5.88,9.04,8.82,13.56,.19,.29,.33,.61,.55,1.01-.37,.17-.63,.34-.91,.42-4.08,1.21-8.25,1.95-12.5,2.15-1.37,.06-2.77-.12-4.13-.34-.62-.1-1.23-.51-1.75-.91-1.38-1.06-2.62-2.31-4.07-3.26-2.94-1.93-6-1.68-9.02-.12-1.08,.56-1.5,1.54-1.06,2.6,1.49,3.58,3.43,6.83,7.41,8.18,2.1,.72,4.26,.89,6.27-.11,2.31-1.15,4.7-1.39,7.22-1.57,4.18-.3,8.35-.91,12.49-1.62,1.25-.21,2.24,.17,3.33,.38,5.16,.96,10.31,1.95,15.47,2.93,.7,.13,1.39,.28,2.09,.43,.19,.04,.46,.07,.55,.2,.8,1.12,1.66,1.66,2.93,.02-.22,1.53-.75,2.32-1.69,2.94-5.72,3.78-11.99,6.11-18.75,7.13-5.29,.8-10.59,1.5-15.87,2.28-1.28,.19-2.37-.1-3.53-.64-2.36-1.1-4.72-2.33-7.22-2.96-4.02-1.02-7.94,.02-11.74,1.47-2.59,.99-5.19,1.97-7.76,3-.79,.32-1.16,.15-1.37-.66Zm23.03,50.72c-.85,.41-1.27,.17-1.71-.57-3.82-6.37-7.37-12.88-10.29-19.7-2.29-5.35-4.34-10.81-6.48-16.22-.17-.43-2.85-7.07-3.06-7.77,1.81,1.24,4.91,4.49,11.11,5.81,2.95,.63,5.71-.05,8.45-1.17,1.78-.73,3.7-1.12,5.51-1.78,1.18-.43,2.25-1.18,3.43-1.61,.71-.26,1.55-.15,2.33-.24,2.95-.32,5.9-.69,8.86-.96,.42-.04,8.75-2.55,10.58-3.25-1.05,3.38-2.25,6.61-5.61,8.39-2.28,1.2-4.64,2.26-6.85,3.57-5.11,3.01-8.24,7.47-9.17,13.36-.35,2.25-.5,4.54-.76,7.02,4.24-.89,7.41-3.14,10.76-5.19,2.73-.99,4.31-3.85,4.5-3.32,.16,.44-.23,3.95,1.26,6.03,1.91,2.67,5.69,3.29,8.58,4.83,2.22,1.19,3.71,2.9,4.55,5.26,.31,.87,.05,1.2-.77,1.45-6,1.78-11.99,3.61-18,5.37-.43,.12-1.16-.04-1.46-.35-2.88-3.01-6.19-3.2-9.8-1.63-2,.87-4,1.73-5.96,2.67Zm17.08,20.65c-.35,.8-.66,1.71-1.84,1.42-.43-.11-.96-.25-1.21-.56-1.98-2.42-3.89-4.89-5.85-7.33-.66-.82-.46-1.25,.38-1.88,1.27-.95,2.56-2.01,3.48-3.28,2.53-3.45,5.91-5.41,9.98-6.4,1.62-.39,3.19-.96,4.81-1.35,.75-.18,1.57-.06,2.33-.21,.65-.12,1.29-.38,1.9-.64,1.99-.83,3.98-1.69,5.97-2.53,.16,.15,.31,.3,.47,.46-1.67,3.14-3.3,6.29-5.03,9.39-.67,1.21-1.59,2.27-2.33,3.45-.56,.89-1.34,1.32-2.34,1.42-5.21,.51-8.66,3.35-10.73,8.04Zm131.77,.38c-.63,6.98-1.38,13.99-2.67,20.87-2.06,10.97-5.07,21.7-10.37,31.63-2.43,4.55-5.63,8.45-10.33,10.87-3.85,1.97-7.94,3.26-12.22,3.74-1.33,.15-2.79-.42-4.14-.84-12.84-3.99-25.02-9.53-36.87-15.85-10.95-5.83-20.93-13.06-30.19-21.24-5.49-4.85-10.65-10.08-15.93-15.17-1.37-1.32-1.34-1.73,.01-3.14,2.66-2.78,5-5.81,5.92-9.61,.51-2.09,.51-4.31,.83-6.45,.14-.95,.31-1.99,.81-2.76,3.21-4.93,6.16-10,8.74-15.28,.27-.54,.83-1.15,1.37-1.32,5.61-1.74,11.24-3.39,16.87-5.06,.36-.11,.75-.15,1.28-.26-.1,1.66-.75,2.88-1.82,3.86-2.08,1.89-4.31,3.63-6.32,5.6-4.27,4.17-6.19,9.49-7.1,15.25-.05,.31,0,.63,0,1.04,1.73,.21,3.33-.17,4.9-.72,5.78-2.01,9.28-6.2,11.06-11.89,1.09-3.51,1.96-7.09,2.9-10.64,.56-2.08,1.84-3.55,3.84-4.22,3.98-1.33,8-2.55,12.04-3.73,.45-.13,2.11-.69,2.94-.39,1.81-.58,2.94-.2,5.09-.95,.35-.12,.56-.65,1.03-1.23,.04,.39,.18,.72,.07,.92-1.2,2.31-2.4,4.63-3.7,6.9-.57,.99-1.54,1.76-2.01,2.78-.52,1.14-1.27,1.76-2.26,2.52-3.56,2.7-6.83,5.77-10.26,8.65-2.59,2.17-4.46,4.92-6.4,7.63-2.07,2.9-4.04,5.93-7.31,7.67-1.74,.93-3.57,1.72-5.42,2.42-7.11,2.68-11.16,8.08-13.46,15.04-.31,.94-.44,1.93-.7,2.89-.26,.97,.15,1.4,1.07,1.53,1.33,.19,2.66,.41,4,.62,.2,.03,.42,.02,.58,.06,1.57,.42,2.68-.07,3.79-.86,2.84-2,4.95-4.68,6.71-7.63,1.31-2.19,2.32-4.57,3.76-6.67,1.39-2.03,1.94-4.66,4.17-6.09,1.03-.66,2.12-1.25,3.18-1.87,.15,.12,.3,.25,.45,.37-.58,2.24-1,4.54-1.79,6.71-1.12,3.09-2.71,6.01-3.75,9.12-1.72,5.14-2.17,10.41-.39,15.66,.35,1.03,.96,1.98,1.58,3.22,.7-.88,1.31-1.53,1.78-2.26,2.54-3.95,4.96-7.99,6.31-12.49,1.23-4.11,1.52-8.44,.24-12.58-1.73-5.58-.13-10.44,2.75-15.02,2.38-3.78,5.82-6.63,9.53-9.34-.27,1.28-.56,2.55-.81,3.83-.81,4.08-1.57,8.17-2.44,12.24-.47,2.2-.38,4.59-2.11,6.43-.67,.71-1.13,1.65-1.58,2.54-.35,.7-.64,1.46-.77,2.22-.22,1.25-.44,1.48-.59,2.82-.36,1.45,.05,2.17-.03,2.72,.6,5.25-.49,10.43-.67,15.88,2.02-.94,3.76-1.96,5.25-3.37,4.04-3.84,5.96-8.71,6.67-14.13,.51-3.88-.13-7.66-.99-11.43-.27-1.16-.29-2.44-.14-3.63,.7-5.47,1.87-10.83,3.49-16.13,1.93-6.33,5.12-12,8.41-17.67,2.37-4.08,4.37-8.36,6.64-12.5,1.88-3.44,3.8-6.87,5.92-10.16,1.4-2.19,4.01-2.86,6.17-4.08,.38-.21,.81-.36,1.14-.63,1.1-.9,2.17-1.25,3.4,.15-.47,.97-1.07,2.02-1.51,3.14-1.88,4.67-3.67,9.37-5.57,14.04-2.41,5.92-5.27,11.62-8.83,16.95-1.82,2.73-4.31,4.73-7.01,6.52-1.15,.76-2.34,1.52-3.29,2.5-2.88,2.95-4.75,6.46-5.29,10.6-.05,.35-.21,.68-.28,1.03-.36,1.81,.32,2.48,2.16,2.36,5.91-.39,9.48-3.79,11.6-9,1.3-3.19,2.4-6.46,3.72-9.65,.71-1.72,2.16-2.88,3.78-4.05,.93,2.28,1.33,4.5,.79,6.8-.59,2.51-1.51,4.94-1.97,7.47-.95,5.26-.62,10.43,2.03,15.62,.98-1.96,1.92-3.68,2.73-5.46,1.95-4.28,3.3-8.75,2.64-13.49-.7-5.01-.69-10.12-2.07-15.06-.37-1.34,.1-2.96,.36-4.42,1.63-8.91,5.32-16.99,9.99-24.67,.67-1.1,1.36-2.2,2.15-3.48,.9,2.46,.75,4.79,.59,7.1-.02,.24-.33,.55-.59,.68-1.28,.64-1.83,1.78-2.3,3.04-.98,2.65-.72,5.33-.12,7.97,.59,2.63,1.29,5.23,2.1,7.8,.58,1.83,1.76,2.04,2.7,.39,1.14-2.02,2.01-4.21,2.76-6.41,1.01-3.01,1.74-6.13,1.25-9.35-.13-.85-.73-1.61-1.09-2.43-.23-.55-.58-1.12-.57-1.68,.03-3.33,.18-6.66,.19-9.99,0-.86,.19-1.55,.98-1.81,1.07-.35,1.84-1.57,3.21-1.06,1.03,.38,2.07,.86,3.14,.98,2.14,.24,4.31,.23,6.46,.41,.5,.04,1.26,.35,1.39,.71,.68,1.88,1.56,3.8,1.71,5.75,.37,4.71,.36,9.44,.52,14.16,.25,7.5,.45,15,.8,22.5,.41,8.82,.41,17.63-.39,26.41Zm1.8-79.33c-1.75-.93-3.47-1.91-5.18-2.92-4.22-2.52-8.21-1.68-12.08,.8-1.55,1-1.57,.96-2.36-.66-.87-1.81-1.92-3.54-2.93-5.28-.87-1.5-1.87-2.94-2.7-4.47-1.78-3.31-4.6-4.92-8.26-5.19-1.23-.09-2.46-.12-3.69-.12-.9,0-1.65,.37-1.95,1.27-.31,.96,.06,1.72,.92,2.21,1.17,.67,1.56,1.79,1.92,3.01,.53,1.78,1.11,3.56,1.91,5.22,.85,1.77,2.38,2.79,4.36,3.16,.88,.17,1.77,.48,2.57,.89,1.43,.74,2.06,2.18,1.76,3.71-.04,.22-.17,.46-.34,.6-2.47,2.03-4.72,4.52-7.51,5.92-2.94,1.47-6.37,2.09-9.8,1.76-.24-.02-.53-.21-.67-.41-1.07-1.61-2.72-2.27-4.48-2.33-2-.07-4.02,.17-6.01,.43-1,.13-1.03,.59-.36,1.35,1.12,1.27,2.23,2.55,3.27,3.89,.75,.97,1.68,1.53,2.86,1.77,.49,.1,.98,.2,1.56,.32-.12,.39-.14,.67-.27,.89-2.13,3.66-4.2,7.36-6.43,10.96-3.83,6.18-9.44,10-16.34,12.06-.87,.26-1.9,.9-2.57,.64-.65-.25-.93-1.45-1.4-2.21-1.05-1.71-2.18-3.35-4.32-3.83-1.54-.35-3-.14-4.34,.71-.8,.5-.82,1.01-.02,1.51,.6,.37,1.28,.63,1.94,.9,1.47,.59,2.6,3.22,1.9,4.62-.15,.29-.59,.5-.93,.61-5.88,1.78-11.76,3.54-17.64,5.31-3.49,1.05-6.98,2.09-10.46,3.2-.84,.27-1.28,.15-1.69-.66-1.67-3.28-2.63-6.69-2.45-10.41,.12-2.55-.85-4.71-2.8-6.42-1.73-1.52-3.67-1.16-5.94-1.59-3-.57-4.02-.9-5.23-1.07-.3-.04-.08-.77,.08-1.06,2.37-4.4,4.6-8.89,7.23-13.12,1.85-2.97,4.24-5.61,6.45-8.34,.37-.46,1.03-.78,1.61-.94,5.29-1.48,9.98-4,13.86-7.95,.5-.5,1.06-.95,1.63-1.36,.56-.41,.97-.28,1.05,.47,.18,1.65,.41,3.31,.5,4.97,.02,.5-.29,1.07-.6,1.51-3.33,4.82-4.75,10.17-4.33,15.98,.13,1.85,.49,3.7,.95,5.49,.6,2.34,.86,4.67,.46,7.06-.04,.22,0,.45,0,.67,.09,.06,.18,.13,.27,.19,1.9-2.05,3.91-4,5.68-6.15,3.46-4.18,4.89-9.16,5.38-14.49,.35-3.78-.35-7.42-1.16-11.07-.79-3.55-1.14-7.14-.45-10.74,.13-.69,.62-1.55,1.2-1.89,4.08-2.41,7.52-5.55,10.75-8.96,.27-.28,.58-.52,.98-.87,.09,.31,.19,.48,.17,.64-.52,4.12-1.02,8.25-1.62,12.36-.08,.55-.51,1.2-.98,1.51-3.44,2.36-4.82,5.68-5.04,9.74-.17,3.08,.22,6.08,.59,9.1,.11,.9,.02,1.83,.14,2.73,.09,.65,.38,1.27,.65,2.09,.47-.4,.71-.55,.88-.75,3.03-3.87,6.27-7.67,7.46-12.58,.48-1.96,.51-4.06,.52-6.1,0-1.57-.53-3.15-.48-4.72,.07-2.16,.38-4.33,.73-6.47,.89-5.29,1.99-10.55,4.81-15.22,4.09-6.76,9.74-11.42,17.78-12.68,.4-.06,.81,0,1.25,.21-.48,.2-1.03,.32-1.43,.63-.3,.23-.41,.7-.6,1.06,.38,.16,.76,.47,1.13,.46,1.66-.04,3.33-.16,4.99-.26,.79-.05,1.58-.1,2.65-.17-.51,.51-.82,.94-1.23,1.22-2.54,1.74-4.69,3.88-6.65,6.24-.4,.48-1.06,.83-1.67,1.06-5.15,1.91-8.51,5.51-10.6,10.57-1.5,3.64-1.79,7.45-2.29,11.25-.04,.26,0,.54,0,.81,7.76-.63,12.39-3.38,15.14-10.37,1.23-3.12,1.93-6.44,2.93-9.65,.18-.56,.56-1.13,1-1.53,2.28-2.06,4.76-3.85,7.64-4.96,1.17-.45,2.41-.69,3.6-1.02,1.26,2.82,3.07,3.19,5.66,2.8,4.2-.63,7.73,.55,11.12,2.79,.57,.38,1.29,.55,1.98,.82,.47,.48,.95,1.15,1.59,1.58,3.97,2.64,6.68,6.35,8.52,10.62,2.34,5.41,4.37,10.96,6.53,16.45,.1,.25,.13,.53,.27,1.17-1-.37-1.82-.57-2.54-.96Zm36.91-198.66c-1.22-3.18-2.94-6.2-1.94-9.83-5.92,4.54-9.02,10.35-8.45,17.81,.14,1.79,.84,3.53,1.19,5.31,.19,.96,.3,1.96,.23,2.93-.14,2.1-.41,4.18-.65,6.27-.06,.49-.19,.97-.29,1.46-.12,.01-.24,.03-.36,.04-.65-2.26-1.39-4.5-1.95-6.79-1.84-7.47-3.66-14.94-5.37-22.43-.27-1.17-.05-2.53,.21-3.74,1.1-5.14-.52-9.52-3.85-13.29-1.82-2.06-4.03-3.79-6.07-5.66-.16-.15-.39-.24-.7-.42-.78,2.83-1.12,5.59-.99,8.41,.21,4.52,2.37,8.17,5.32,11.4,1.29,1.41,2.2,2.86,2.6,4.8,1.07,5.2,2.41,10.33,3.51,15.52,.72,3.37,1.26,6.78,1.76,10.19,.14,.97-.12,2-.23,3.34-.59-.65-3.07-.78-3.41-1.22-6.58-8.47-10.21-16.15-15.02-25.33-.35-.68-4.48-7.48-5.55-9.23-3.1-5.05-.72-6.55-1.15-8.44-.74-3.22-2.55-4.15-5.47-5.81-2.61-1.48-5.56-2.71-8.52-2.99-3.02-.29-5.33-.36-8.37-.43-1.29-.03-3.54,.55-4.88,.78,.14,.43,1.94,4.65,2.18,4.95,1.3,1.66,2.51,3.47,4,4.96,1.72,1.73,4.06,3.04,6.35,3.73,2.5,.75,5.24,.63,7.84,.19,1.24-.21,2.61-.91,3.3,1.44,.46,1.56,12.19,22.19,16.89,30.41,3.17,5.54,6.92,10.64,11.71,14.92,3.36,3,4.92,6.94,5.78,11.21,.57,2.84,1.66,5.46,3.22,7.88,2.64,4.09,3.92,8.61,4.53,13.4,.5,3.93,1.21,7.83,1.82,11.75,.09,.59,1.69,6.33,1.1,10.36-1.96-1.12-3.13-2.4-3.51-4.39-.56-3-.95-6.12-2.99-8.55-1.26-1.49-2.77-2.83-4.38-3.94-1.61-1.11-3.48-.81-5.4,.06,1.96,1.98,1.29,4.44,1.35,6.76,.07,2.74-.02,5.49,1,8.1,.25,.64,5.44,2.76,7.25,3.7,.88,.46,1.79,.87,2.64,1.37,3.04,1.78,3.71,3.58,3.19,7.07-.53,3.56-.86,7.16-1.07,10.75-.14,2.41,.19,4.84,.14,7.25-.16,7.09-2.64,13.4-6.79,19.08-1.02,1.4-2.11,2.75-3.29,4.29-.56-.78-1.03-1.35-1.42-1.97-2.99-4.73-5.58-9.67-6.21-15.3-.32-2.81-.27-5.75,.18-8.53,.94-5.77,.7-11.42-.36-17.14-.42-2.28-.34-4.78,.1-7.07,.96-4.98,.69-9.79-1.04-14.52-1.14-3.12-1.4-6.33-1.17-9.6,.4-5.64-3.76-10.97-7.58-14.3-.21,.91-.5,1.71-.58,2.53-.33,3.18-.8,6.37-.85,9.57-.04,3,1.53,5.33,3.98,7.09,.57,.41,1.05,1.08,1.31,1.74,2.02,5.21,1.97,10.62,1.49,16.07-.01,.15-.08,.29-.18,.67-.54-.54-.99-.95-1.39-1.4-2.69-2.99-4.63-6.42-6.15-10.12-2.08-5.06-4.39-10.02-6.27-15.15-2.4-6.53-3.04-13.36-2.51-20.28,.08-1.09,.62-2.2,1.16-3.18,3.85-6.96,2.43-14.26-3.43-19.75-2.49,2.79-3.6,5.99-3.22,9.58,.28,2.63,.91,5.23,1.28,7.85,.17,1.24,.31,2.55,.07,3.76-.83,4.17-1.14,8.33-.36,12.53,.05,.27,.04,.55,.09,1.17-.59-.66-1.02-1.08-1.37-1.54-3.59-4.77-6.6-9.9-9.14-15.3-.51-1.09-.44-2.47-.59-3.72-.45-3.96-2.42-7.24-4.58-10.45-.21-.32-.43-.63-.78-1.13,.89-.31,1.6-.64,2.35-.81,4.78-1.1,8.43-3.66,10.79-8.05,1.27-2.36,2.06-2.61,4.67-1.96,.27,.07,.54,.12,1.07,0-.3-.48-.63-.94-.9-1.43-.31-.56-.81-1.14-.8-1.71,.06-6.14-5.7-8.4-10.06-6.26-.72,.35-1.28,.35-2,.03-2.19-.97-4.46-1.26-6.85-.67-.93,.23-1.96,.13-2.94,.09-1.39-.06-2.68,.16-3.85,.97-.28,.2-.64,.29-.98,.4-1.52,.52-3.22,.76-4.53,1.61-2.71,1.76-5.54,1.64-8.48,1.17-1.25-.2-2.5-.34-3.78-.51,.15,2.01,.84,2.78,2.65,3.05,.43,.07,.86,.12,1.3,.19,1.3,.21,1.44,.48,.84,1.8,1.71,.68,4.19-.42,5.14,2.26,1.32-.77,2.09,.12,2.91,.98,2.81,2.99,4.27,6.44,4.32,10.62,.06,4.35,1.23,8.5,3.87,12.04,1.05,1.4,2.51,2.51,3.87,3.66,.89,.75,1.92,1.33,2.7,1.86,.41,.85,.76,1.63,1.14,2.4,1.09,2.17,2.2,4.33,3.12,6.69-3.42-1.38-6.42-3.64-10.25-3.4-3.65,.23-7.2,.9-10.94,2.36,1.96,1.82,3.7,3.46,5.47,5.06,2.84,2.58,6.45,3.38,9.99,4.48,3.08,.96,6.19,1.49,9.35,2.06,4.53,.82,8.52,2.87,10.2,7.85,1.64,4.84,3.59,9.58,5.4,14.37,.08,.22,.11,.47,.21,.68,.31,.71,.05,1.34-.55,1.59-.32,.13-.96-.19-1.29-.5-1.46-1.37-1.82-3.3-2.42-5.09-1.38-4.15-3.76-7.48-7.63-9.65-1.96-1.1-3.86-1.12-5.74-.06,.52,1.05,1.22,2.06,1.51,3.17,.45,1.75,.52,3.6,.94,5.37,.38,1.61,.87,3.22,1.55,4.72,1.04,2.31,2.96,3.72,5.27,4.73,2.72,1.18,5.38,2.49,8.04,3.8,1.21,.59,2.4,1.24,3.53,1.97,4.76,3.08,6.22,6.41,4.76,11.85-1.27,4.75-1.16,9.46-.57,14.26,.45,3.66,.52,7.36,.8,11.03,.05,.66,.34,1.3,.35,1.95,0,.62-.21,1.25-.31,1.88-.19,1.25-.42,2.5-.52,3.75-.2,2.61-.32,5.22-.47,7.83-.01,.23-.04,.46-.06,.69-.1,.02-.2,.05-.31,.07-.37-1.36-.76-2.72-1.11-4.09-2.08-8.31-4-16.65-6.26-24.91-1.97-7.2-4.57-14.21-8.27-20.73-6.24-11.01-15.37-18.83-26.93-23.9-4.81-2.11-9.71-3.9-14.79-5.21-1.66-.43-2.47-1.81-3.29-3.1-1.34-2.13-1.69-4.57-2.1-7-.61-3.67-1.42-7.31-1.99-10.99-.65-4.18-1.12-8.39-1.67-12.59-.08-.59-.22-1.16-.3-1.75-.25-1.76-.48-3.48,.32-5.24,2.11-4.64,2.59-9.61,2.56-14.64-.03-3.97-.1-7.94-.27-11.9-.06-1.45-.37-2.91-.77-4.3-.5-1.72-1.3-1.86-2.46-.45-.74,.91-1.46,1.92-1.87,3.01-1.54,4.07-3.14,8.14-4.36,12.31-1.36,4.65-.98,9.28,.86,13.86,.94,2.35,1.23,4.97,1.82,7.46,.2,.86,.41,1.71,.61,2.57,.03,.14,.09,.34,.02,.42-.74,.89-.12,1.7,.25,2.42,.51,.99,.74,1.81-.22,2.64-.12,.1-.06,.44-.07,.66,0,.54,0,1.08,0,1.62l-.36,.1c-.6-1.08-1.21-2.16-1.79-3.25-3.12-5.85-6.39-11.6-10.58-16.77-1.04-1.29-1.3-2.6-1.2-4.28,.19-3.04-.07-6.1-.05-9.16,0-.8,.11-1.76,.55-2.37,3.68-5.08,4.62-10.9,4.61-16.94,0-2.68-.36-5.37-.67-8.03-.13-1.09-.42-2.37-1.67-2.66-1.34-.3-2.33,.73-2.89,1.73-1.45,2.59-2.81,5.23-3.97,7.96-1.71,4.03-1.64,8.1-.18,12.3,1.2,3.46,1.07,7.04-.68,10.41-.16,.31-.37,.59-.65,1.03-.48-.43-.91-.76-1.26-1.15-3.96-4.45-7.1-9.45-9.51-14.87-.72-1.61-.73-3.54-1.05-5.33-.25-1.4-.42-2.82-.7-4.22-.15-.78,.05-1.3,.72-1.7,4.21-2.54,8.38-5.15,12.63-7.6,3.4-1.96,6.85-3.86,10.38-5.55,4.99-2.4,10.02-4.75,15.17-6.79,.64-.25,1.31-.43,2-.58,.68-.42,1.37-.84,2.08-1.21,1.73-.9,3.57-1.28,5.41-1.88,3.61-1.18,6.78-3.31,10.35-4.6,3.68-1.32,7.61-2.06,11.5-2.39,.28-.02,.56-.06,.85-.08,3.01-.72,6.04-1.39,9.09-1.92,5.34-.94,10.71-1.72,16.09-2.44,6.74-.91,11.71-1,18.49-1.45,4.38-.29,7.86-.33,13.78,.4-.43-.31,9.03,1.25,11.33,2,1.07,.35,.64,1.13,.63,1.75-.02,1.62-.43,5.23-.2,6.8,.51,3.43,1.35,4.88,2.03,8.29,.09,.46,.24,.9,.36,1.35-.06,.03,1.04,2.39,.04,4.68-1.71-1.06-2.6-2.34-3.36-3.73-1.34-2.47-2.57-5.01-4.04-7.4-.73-1.19-1.56-2.52-2.82-3.18-.98-.52-4.03-1.76-5.6-1.93-.04-.08-3.86-.89-4.51-.75-.04,0,.09,.01,.13,.02-.99-.13-2.01-.16-3.01-.05-.23,.04-.45,.09-.67,.16-.08,.03-.19,.05-.29,.06-.02,0-.05,0-.07,.01-.07,0-.13,.03-.22,.03-.97,0-1.22,.52-1.09,1.38,.9,6.29,4.13,10.88,9.98,13.49,1.59,.71,3.21,1.42,4.9,1.85,3.5,.9,6.03,3.24,8.71,5.4,3.69,2.98,5.32,7.1,6.15,11.51,.73,3.88,1.11,7.84,1.39,11.79,.4,5.42,.57,10.86,.83,16.28,.29,6.13-.67,12.1-2.41,17.96-.43,1.43-.81,2.87-1.24,4.4-1.63-1.04-2.37-2.36-2.37-4.13,0-1.79,.12-3.59-.12-5.35-.51-3.73-3.01-5.86-6.4-7.35-.99,2-1.58,4.07-1.78,6.23-.38,4,.66,7.56,3.52,10.47,1.51,1.53,1.61,3.46,1.69,5.42,.07,1.66,.03,3.35,.3,4.98,.18,1.1,.6,2.27,1.26,3.15,1.89,2.55,2.59,5.26,1.57,8.29-1.49,4.39-3.05,8.75-4.59,13.12-.06,.18-.2,.33-.44,.71-.3-.86-.54-1.55-.79-2.24-2.33-6.43-3.49-13.17-5.2-19.76-.87-3.36-2.17-6.63-3.5-9.85-2.11-5.11-2.9-10.34-2.18-15.83,.39-2.95,.58-5.92,.93-8.87,.07-.59,.34-1.26,.74-1.69,5.23-5.65,6.06-12.1,3.37-19.1Zm-48.8,5.5c-.01-.34,.57-.71,.89-1.06,.39,.41,.91,.77,1.11,1.26,.09,.22-.5,.7-1.02,1.37-.47-.71-.96-1.13-.98-1.58Zm54.5,140.24c-.26-.96-.52-1.91-.78-2.87-1.6-5.91-.52-11.63,1.16-17.33,1.18-3.99,1.57-8.09,1.15-12.24-.37-3.63,1.15-6.74,1.74-10.4,.46-2.78,.58-4.73,1.42-7.47,1.54-5.02,.07-9.97,1.72-14.81,1.14-3.33,1.76-6.83,2.8-10.2,.53-1.73,1.38-3.37,2.22-4.99,.96-1.84,2.45-3.07,4.56-3.5,2.67-.55,5.18-1.47,7.33-3.24,3.7-3.06,5.6-7.07,6.47-11.94-1.84,.1-3.59,.04-5.27,.33-1.78,.31-3.52,.89-5.24,1.48-1.81,.61-2.97,2.02-4.03,3.55-.45,.65-1.17,1.11-1.77,1.66-.17-.09-.34-.18-.52-.27,.13-2.36,.14-4.72,.4-7.06,.52-4.63,2.17-8.93,4.21-13.07,.35-.71,1.08-1.38,1.8-1.75,4.64-2.41,8.83-5.34,11.78-9.77,2.05-3.07,2.83-6.42,2.06-10.33-1.19,.38-2.38,.64-3.46,1.13-3.08,1.38-6.17,2.81-8.19,5.7-.6,.86-1,1.89-1.41,2.87-.45,1.07-1.07,1.9-2.53,2.21,.17-1.23,.4-2.3,.44-3.38,.13-3.09,.25-6.18,.26-9.28,0-1.01-.01-2.68,.08-3.69,.4-4.27,1.89-5.39,3.21-7.56,1.48-2.43,2.16-4.48,3.59-6.75,1.18-1.88,2.58-3.62,3.82-5.46,.63-.94,1.46-1.47,2.5-1.87,7.9-3.03,12.66-12.44,10.36-20.42-.04-.15-.11-.29-.27-.72-1.48,.55-3.01,.95-4.38,1.67-3.41,1.79-6.59,3.91-8.06,7.71-.45,1.16-.51,2.48-.84,3.7-.29,1.09-.51,2.27-1.09,3.2-3.25,5.26-6.61,10.46-9.93,15.67-.12,.18-.32,.31-.67,.63-.37-2.14-.74-4.08-1.05-6.03-.82-5.07-1.12-10.2-.78-15.31,.13-2,1.02-3.97,1.69-5.91,1.53-4.39,2.98-8.93,2.08-13.54-.45-2.32-1.8-3.25-1.76-3.69,1.06,.17,7.81,1.93,8.57,2.13,3.99,1.05,8,2.01,11.95,3.17,5.06,1.49,10.1,3.05,15.08,4.77,3.78,1.31,7.51,2.79,11.17,4.41,4.95,2.18,9.81,4.57,14.72,6.84,.78,.36,1.69,.6,.69,1.62-3.05,3.09-2.5,8.27-2.98,12.59-.34,3.05-2.35,4.88-4.7,6.63-1.18-1.68-1.26-3.38-.86-5.19,.48-2.17,1.09-4.32,1.38-6.51,.57-4.32-.67-8.08-4-11.04-.26-.23-.56-.4-.9-.64-4.35,5.93-5.27,12.24-2.64,19.05,.63,1.63,1.33,3.23,1.88,4.88,.48,1.43,.3,2.9-.68,4.07-3.14,3.73-5.36,7.94-6.91,12.53-.08,.24-.26,.45-.7,.7-.17-.65-.51-1.3-.49-1.95,.05-1.94,.21-3.88,.37-5.81,.35-4.23,.12-8.34-2.47-11.97-1.5-2.1-3.42-3.69-5.49-4.7-.31,1.59-.37,3.25-.98,4.68-1.41,3.34-1.37,6.75-.87,10.19,.53,3.63,1.36,7.25,3.87,10.08,1.43,1.61,2.07,3.42,2.45,5.43,.45,2.34,.29,4.56-.58,6.87-2.38,6.32-5.09,12.48-8.16,18.48-.2,.38-.42,.76-.77,1.4-.65-1.7-1.32-3.08-.9-4.8,.9-3.72,.91-7.42-1.04-10.86-.63-1.12-1.55-2.08-2.45-3.25-1.73,2.44-2.94,4.86-3.41,7.58-.9,5.14,.18,9.87,3.25,14.09,1.3,1.79,1.23,3.66,.81,5.67-.6,2.88-2.63,4.85-4.39,6.96-3.92,4.73-7.93,9.38-11.93,14.05-4.81,5.62-7.33,12.28-8.72,19.43-1.84,9.44-4.23,18.72-7.4,27.8-2.67,7.67-5.26,15.38-7.88,23.07-.1,.28-.25,.55-.37,.82-.12,.01-.23,.03-.35,.04Zm3.54,47.9c1.72-3.83,3.35-7.71,5.33-11.41,2.89-5.4,7.39-9.16,12.97-11.62,2.24-.99,4.51-1.95,6.83-2.75,1.31-.45,2.61-.53,4.11,.11,1.99,.85,4.25,1.07,6.41,1.5,.36,.07,.9,0,1.13-.24,.85-.86,1.61-.45,2.28,.12,1.74,1.48,3.51,2.95,5.09,4.6,.52,.54,.53,1.6,.69,2.44,.61,3.27,1.05,6.58,1.79,9.82,.96,4.18,3.65,7.23,7.24,9.32,1.78,1.04,3.97,1.39,5.97,2.05,.13-.11,.26-.23,.4-.34-.14-3-.18-6-.44-8.99-.26-2.99-1.27-5.8-2.67-8.45-1.56-2.95-3.96-5.01-6.89-6.52-.6-.31-1.21-.82-1.56-1.4-2.45-4.08-5.78-7.21-9.93-9.49-.12-.07-.22-.18-.53-.43,2.29-.07,4.26-.66,6.29,.79,1.12,.8,2.96,.55,4.43,.93,1.78,.46,3.53,.75,5.38,.34,.46-.1,1.08,.19,1.54,.45,6.62,3.69,11.13,9.18,13.14,16.46,1.04,3.76,1.29,7.73,2.08,11.57,.68,3.31,.24,6.53-.27,9.79-.6,3.78-.06,7.5,1.71,10.87,1.58,3.01,3.55,5.82,5.36,8.71,.12,.19,.34,.3,.56,.49,.9-.65,1.06-1.58,1.08-2.52,.04-1.43-.1-2.86,.02-4.28,.19-2.17,.58-4.32,.81-6.49,.46-4.24-.84-7.81-4.14-10.61-.47-.4-.84-1.06-1.01-1.67-1.12-4.06-1.5-9.87-.83-13,.83,.99,1.51,1.8,2.05,2.45,.63,.95,1.8,1.73,2.91,2.94,.73,.55,1.31,.99,1.9,1.43,1.43,1.07,2.8,2.22,4.29,3.19,.88,.57,1.34,1.23,1.49,2.26,.61,4.16,.18,8.23-.98,12.24-1.49,5.13-1.69,10.26-.48,15.5,1.44,6.26,5.35,10.84,9.89,15.33,.03-.4,.09-.61,.06-.8-.39-2.72-.1-5.35,.78-7.97,2.45-7.35,1.51-14.33-2.62-20.84-.87-1.38-.75-2.57-.3-3.93,.28-.85,.66-.87,1.27-.3,.95,.9,1.9,1.79,2.9,2.63,.3,.25,.76,.33,1.14,.48,.12-.47,.28-.94,.33-1.43,.03-.25-.13-.52-.28-1.05,.68,.4,1.19,.66,1.66,.98,2.56,1.79,5.28,3.28,8.3,4.06,2.48,.64,3.89,2.45,5.4,4.23,3.76,4.42,5.82,9.68,7.48,15.14,.29,.95,.63,1.88,.95,2.82,.6,1.72,.16,2.78-1.57,3.47-.52,.2-1.16,.21-1.72,.15-.94-.11-1.86-.46-2.8-.52-4.55-.28-8.04,3.29-7.99,8.22,.02,2.11,.08,4.22-.72,6.22-.55,1.36-1.18,2.68-1.75,4.03-.29,.68-.67,.81-1.4,.6-9.39-2.78-18.76-5.59-27.89-9.15-.42-.16-.88-.83-.91-1.29-.15-2.35,.64-3.29,2.9-4.02,.69-.22,1.29-.72,1.97-1.12-1.93-2.46-6.11-2.46-8.08-.13-.86,1.01-1.46,2.25-2.11,3.42-.29,.53-.58,.83-1.2,.58-6.2-2.48-12.25-5.25-16.28-10.88-1.79-2.5-3.12-5.32-4.62-8.02-.25-.46-.31-1.02-.5-1.71,.61,.05,1.04,.06,1.46,.12,1.07,.15,2.05,.11,3.1-.39,.73-.35,1.72-.18,2.59-.15,.83,.02,1.65,.2,2.48,.22,.22,0,.53-.25,.68-.47,.81-1.23,1.67-1.42,2.76-.57,2.05-1.6,3.07,.41,4.42,1.28,0-.12,.01-.24,.02-.37,.36-.06,.8-.28,1.06-.15,2.09,1.06,3.8,2.56,5.1,4.53,.36,.54,.75,1.07,1.2,1.7,.6-1-.66-2.63,1.38-2.73-.48-2.01-1.79-3.29-3.33-4.36-1.2-.84-2.51-1.54-3.66-2.43-2.36-1.81-3.47-4.49-4.59-7.11-1.91-4.47-4.69-8.37-8.14-11.69-1.76-1.69-3.67-3.13-4.99-5.28-.55-.91-1.81-1.54-2.89-1.93-1.56-.57-3.07-.19-4.16,1.19-.62,.79-1.31,1.31-2.4,1.27-.43-.01-.87,.41-1.3,.64-.03,.14-.06,.28-.09,.43,.78,.45,1.59,.85,2.33,1.36,.4,.28,.94,.72,.97,1.13,.09,1.18,.13,2.41-.13,3.55-.7,3.07-.66,6.06,.42,9.02,.07,.18,.11,.38,.15,.57,.01,.07-.02,.15-.08,.58-1.72-.29-3.5-.41-5.16-.91-4.78-1.44-8.33-4.64-11.42-8.41-.76-.92-.33-3.06,.83-3.69,.87-.48,1.91-.81,2.9-.9,2.88-.26,5-1.8,5.92-4.55,.3-.9,.59-1.81,.82-2.73,.38-1.52,1.04-2.79,2.48-3.59,.83-.46,1.38-1.15,1.1-2.26-.29-1.15-1.17-1.37-2.09-1.37-1.98,0-3.99-.05-5.94,.25-2.79,.42-4.75,2.21-6.28,4.51-1.03,1.54-2.16,3.03-3.18,4.58-1,1.52-1.91,3.1-2.85,4.65-.22,.37-.41,.76-.69,1.27-.99-.65-1.93-1.21-2.82-1.84-3.57-2.56-7.28-2.61-11.12-.68-1.88,.95-3.75,1.9-5.64,2.83-.52,.25-1.07,.43-1.61,.65-.11-.08-.22-.16-.33-.24,.95-2.3,1.85-4.63,2.87-6.9Zm93.62,8.06l.31-.26c1.38,1.29,2.75,2.57,4.36,4.08-2.78-.64-4.75-2.34-4.67-3.81Zm-20.73,70.72c.39,.29,.6,.39,.74,.56,2.82,3.55,4.56,7.53,4.58,12.11,0,1.32-.44,2.64-.69,3.97-.3,1.63-.61,3.26-.92,4.91-1.08,.01-2.45-.94-2.74-2.03-.61-2.31-1.58-4.38-3.47-5.96-.36-.3-.6-.85-.72-1.33-1.53-6.32-3.02-12.65-4.52-18.97-.05-.22-.05-.46-.09-1,1.96,1.67,4.48,2.75,4.33,5.44-.1,1.8,.87,2.86,1.43,4.24,.4,.98,1.05,1.53,2.45,1.67-.13-1.19-.24-2.26-.38-3.6Zm-2.33-10.06c-4.1-3.41-8.13-6.86-10.8-11.58-.58-1.02-1.1-2.07-1.81-3.41,1.53,.46,2.71,.77,3.84,1.17,.8,.29,1.37,.15,2.07-.36,.49-.36,1.37-.64,1.9-.45,4.11,1.45,8.18,3.01,12.26,4.55,2.19,.83,3.13,2.55,3.3,4.79,.25,3.36,.43,6.73,.77,10.08,.18,1.83,.63,3.63,.96,5.45-.1,.04-.19,.08-.29,.13-.12-.22-.25-.43-.35-.66-.3-.65-.68-1.1-1.52-1-.34,.04-.81-.14-1.07-.37-3.09-2.77-6.06-5.68-9.25-8.34Zm-24.16-64.55c.06,.23-.35,.58-.55,.87-.33-.37-.65-.74-1.07-1.22,.38-.41,.62-.66,.86-.92,.27,.42,.64,.81,.76,1.26Zm72.32,100.96c-3.96,3.54-7.79,7.24-11.9,10.6-6.27,5.12-12.89,9.8-19.84,13.96-8.93,5.34-18.1,10.23-27.83,13.97-7.06,2.72-14.2,5.26-21.32,7.82-1.64,.59-3.35,.98-5.02,1.46-2.53,.73-4.87-.23-7.21-.89-6.74-1.9-12.07-5.8-15.68-11.78-1.53-2.53-2.6-5.34-3.74-8.09-3.47-8.41-5.25-17.26-6.73-26.2-1.49-8.99-2.53-18.03-2.25-27.12,.28-9,1.01-17.98,1.65-26.97,.34-4.83,.94-9.63,1.36-14.45,.43-4.86,.67-9.74,1.25-14.58,.23-1.87,1.05-3.71,1.85-5.45,.33-.71,1.43-1.03,2-1.68,.78-.9,1.17-.47,1.79,.17,.6,.62,3.33,.42,4.2,.95,1.57,.96,3.32,1.23,5.04,.02,.38-.26,1.23-.27,1.59-.02,.37,.27,.56,1.01,.53,1.53-.16,3.52-.38,7.04-.61,10.56-.03,.46-.07,1.05-.36,1.33-1.9,1.82-1.98,4.2-1.64,6.45,.53,3.55,1.42,7.05,2.26,10.55,.21,.86,.73,1.68,1.24,2.42,.8,1.16,1.46,1.16,2.1-.08,.65-1.26,1.17-2.6,1.6-3.95,1.02-3.22,1.88-6.47,1.78-9.9-.07-2.35-.21-4.63-2.52-6.06-.22-.14-.39-.53-.41-.81-.17-2.37,.37-4.62,1.37-6.91,.53,1.07,1.14,2.11,1.59,3.21,3.62,8.99,6.29,18.2,6.66,27.97,.05,1.44-.29,2.71-.82,4.02-2.39,5.94-4.25,12.05-4.79,18.44-.28,3.32,.56,6.62,1.45,9.84,.4,1.45,.88,2.88,1.37,4.47,1.6-1.66,2.51-3.61,3.24-5.64,1.6-4.48,1.65-9.09,1.03-13.74-.41-3.08-.89-6.16,.8-9.05,.2-.34,.4-.67,.68-1.14,1.43,1.44,2.65,2.93,3.14,4.77,.74,2.79,1.27,5.64,1.8,8.48,.67,3.58,1.82,6.89,4.59,9.46,1.83,1.69,3.98,2.55,6.42,2.81,.94,.1,1.41-.21,1.45-1.17,.24-5.65-.85-11.03-5.14-14.92-4.68-4.25-7.42-9.44-9.53-15.24-2.77-7.64-4.54-15.52-6.28-23.42-.36-1.62-.87-3.2-1.37-5.04,2.81,.27,6.55,1.75,6.63,.68,.48,.46,.96,.88,1.38,1.35,2.57,2.84,4.12,6.29,5.66,9.73,2.79,6.23,5.78,12.36,9.36,18.18,5.37,8.71,8.67,18.14,10.27,28.21,.07,.47,.15,.95,.3,1.39,.88,2.57,.59,5.16,.17,7.76-1.25,7.8,.94,14.7,5.61,20.88,1.3,1.72,3.23,2.75,5.18,3.65,.85,.39,1.71,.75,2.83,1.24-.16-1.3-.28-2.32-.44-3.59,.95,1.14,1.73,2.1,2.52,3.05,.04-1.39-.04-2.72,1.24-3.65,1.55,2.59,3.13,5.23,4.92,8.2,.62-1.19,1.19-2.06,1.56-3.02,1.45-3.76,1.6-7.64,1.11-11.6-.55-4.45-2.6-8.38-4.08-12.51-.93-2.59-1.48-5.33-2.19-8-.02-.09,.06-.21,.12-.4,1.54,1.03,2.12,2.64,2.82,4.15,.88,1.89,1.64,3.84,2.5,5.75,1.09,2.4,2.23,4.79,3.37,7.17,.26,.53,2.77,3.11,6.23,4.38,.4,.15,.66,.59,1.05,.74,2.95,1.14,5.95,1.36,8.91,.09,.32-.14,.58-.88,.56-1.32-.27-4.55-1.79-8.64-4.5-12.33-2.34-3.18-5.66-4.89-9.05-6.56-.88-.43-1.75-.89-2.53-1.56,1.31,.43,2.62,.87,4.3,1.43,0-2.16,.15-4.09-.03-5.99-.32-3.4-1.04-6.74-2.93-9.68-.28-.44-1.8-2.29-1.57-2.28-.04-.12-.04-.25-.11-.34-1.09-1.51-2.13-3.06-3.31-4.5-1.79-2.17-2.47-3.81-2.14-5.94,1.82,.54,3.33,1.15,4.9,1.75,1.11-.13,2.4,.52,2.5,.55,1.32,.38,2.63,.81,3.94,1.22,1.37,.43,2.73,1.1,4.13,1.22,1.96,.16,3.34,.81,4.2,2.65,1.85,3.95,3.65,7.93,5.74,11.75,1.4,2.55,2.35,4.99,2.34,8.01,0,2.34,1.03,4.68,1.59,7.02,.18,.76,.13,1.62,.46,2.3,1.03,2.14,1.84,4.44,3.65,6.12,.65,.6,.62,1.1-.03,1.67Zm-32.09-19.75l.28-.34,3.29,2.56-.21,.28c-1.12-.83-2.24-1.67-3.36-2.5Zm47.25,3.6c-1.29,1.31-2.9,2.31-4.33,3.41-.99-1.64-1.83-3.15-2.79-4.6-1.79-2.7-4.27-4.51-7.46-5.08-1.93-.35-3.25-1.24-4.11-2.96-1.46-2.94-2.95-5.87-4.41-8.81-.15-.3-.17-.67-.28-1.13,1.84,.66,3.77-.25,3.77-.25,1.94,.7,3.91,1.34,5.82,2.12,.66,.27,1.13,.99,1.79,1.29,1.82,.85,3.7,1.57,5.55,2.36,1.05,.45,2.09,.91,3.11,1.42,1.08,.54,1.75,1.45,2.3,2.51,.64,1.24,1.24,2.53,2.09,3.62,.51,.65,1.47,.95,2.49,1.57-1.14,1.49-2.2,3.16-3.55,4.53Zm31.41-49.53c-3.76,8.68-8.53,16.83-13.3,24.97-1.18,2.02-2.5,3.96-3.8,5.9-.93,1.39-1.22,1.45-2.71,.69-1.59-.81-3.12-1.74-4.72-2.52-2.46-1.19-5.03-1.84-7.66-.58-.91,.44-1.68,1.18-2.48,1.82-.55,.44-1.01,.48-1.72,.22-5.42-2.02-10.85-4.01-16.31-5.92-2.21-.78-2.26-.77-1.19-2.91,1-2,2.51-3.44,4.51-4.41,1.5-.72,3.06-1.35,4.51-2.16,1.1-.61,2.12-1.38,3.08-2.19,1.03-.87,1.39-.92,2.4,.04,.55,.52,1.09,1.05,1.66,1.54,1.77,1.52,2.58,1.29,3.29-.93,2.21,1.47,4.44,2.95,6.73,4.48,2.18-7.69,1.32-15.42-4.19-20.58-2.04-1.92-4.39-3.51-6.61-5.23-2.42-1.88-4.47-4.98-4.79-7.38,.22,.06,.4,.1,.69,.18-.04-.32-.08-.58-.11-.84,1.56,1.98,3.78,1.56,5.81,1.78,.62,.07,1.24,.2,1.86,.34,2.36,.52,4.73,1.01,7.06,1.62,1.18,.31,2.35,.75,3.42,1.31,3.3,1.74,6.8,2.77,10.48,3.28,2.47,.34,4.94,.72,7.39,1.17,.48,.09,1.06,.48,1.3,.9,.58,1.05,1.46,1.1,2.44,1.02,1.53-.12,3.05-.27,4.93-.43-.7,1.72-1.3,3.29-1.97,4.84Zm15.1-48.45c-1.49,7.13-3.21,14.22-5,21.29-.88,3.49-2.16,6.88-3.23,10.33-.26,.84-.51,1.16-1.49,.64-2.96-1.6-5.97-3.1-8.99-4.59-4.66-2.3-9.49-2.49-14.13-.28-3.18,1.52-6.18,1.63-9.49,.79-6.6-1.67-13.3-2.96-19.85-4.78-5.77-1.6-10.93-4.64-15.81-8.09-.18-.12-.3-.31-.64-.67,2.33,.17,4.41,.34,6.5,.47,4.58,.3,9.07-.39,13.33-1.96,2.2-.81,4.34-.68,6.43-.35,5.13,.8,10.23,1.88,15.32,2.94,1.22,.25,2.35,.94,3.57,1.27,1.94,.52,3.89,1.07,5.87,1.28,2.43,.25,4.51-.8,6.14-2.59,1.22-1.35,2.38-2.76,3.47-4.22,1.05-1.41,.72-2.59-.77-3.54-2.85-1.8-5.94-2.2-9.01-.47-1.2,.68-2.33,1.51-3.43,2.36-.92,.72-1.87,1.02-3.06,1.05-5.5,.12-10.66-1.42-15.81-3.05-.82-.26-.82-.63-.38-1.31,3.47-5.31,6.94-10.63,10.34-15.98,.69-1.08,1.41-1.6,2.76-1.54,2.33,.1,4.69-.14,6.93,.77,1.13,.46,2.25,1.03,3.43,1.29,1.73,.37,3.51,.5,5.27,.72,.55,.07,1.11,0,1.65,.11,3.92,.76,7.31-.24,10.14-3.05,1.51-1.5,2.99-3.02,4.53-4.57-2.31-2.49-4.92-4.01-7.71-5.3-2.31-1.07-4.71-1.68-7.25-1.57-3.47,.16-5.82,2.17-7.85,4.78-.7,.9-1.67,1.67-2.66,2.26-1.57,.94-3.81,.57-5.04-.74-.22-.23-.24-.94-.05-1.2,1.63-2.2,3.29-4.37,5.03-6.48,.45-.55,1.18-.92,1.85-1.22,3.87-1.68,7.45-3.73,9.87-7.36,1.51-2.26,2.27-4.73,2.54-7.44,.25-2.54,.45-5.15,2.07-7.48-4.05,.23-7.71,1.35-11.2,2.95-3.96,1.82-7.06,4.61-8.91,8.69-.9,1.98-.78,3.94-.26,5.92,.21,.82,.08,1.4-.44,2.06-6.1,7.88-11.65,16.13-16.24,25-3.35,6.49-8.57,10.37-15.98,10.99-6.82,.57-13.46-.09-19.83-2.77-4.29-1.8-7.79-4.75-11.12-7.85-2.31-2.15-4.38-4.59-6.46-6.98-.39-.45-2.38-2.45-4.04-3.47-4.38-6.06-9.43-11.17-15.59-15.59,2.52-1.04,4.47-2.26,7.01-1.52,6.18,1.82,9.45-2.11,11.57-6.85,.08-.18,.13-.37,.2-.56,1.08-2.93,.76-3.8-2.16-4.89-1.27-.47-1.49-1.17-1.24-2.34,.54-2.46,1.22-4.83,2.84-6.85,.68-.85,1.37-.99,2.26-.45,.88,.53,1.77,1.04,2.64,1.6,.68,.44,1.34,.5,1.99,0,1-.77,2.01-.55,3-.02,2.12,1.14,3.63,2.9,4.91,4.9,2.87,4.47,4.58,9.41,5.65,14.56,.83,3.99,1.61,8.02,2.03,12.07,.26,2.44-.22,4.96-.35,7.45-.23,4.35,.69,8.38,3.45,11.83,1.8,2.24,4.23,3.38,7.24,3.64,.13-.64,.31-1.24,.36-1.86,.26-3.41,.48-6.83-.83-10.1-.44-1.09-.98-2.21-1.73-3.1-1.72-2.05-2.62-4.4-3.05-6.98-.5-2.95-1.04-5.9-1.55-8.78,1.9,1.34,3.65,2.58,5.62,3.96,.21-.85,.35-1.43,.53-2.16,1.41,1.01,2.58,2.06,3.04,3.72,1.53,5.56,4.43,10.14,9.5,13.16,2.35,1.4,5.39,2.38,8.41,2.61,.86-2.19,1.17-4.52,.88-6.83-.73-5.91-3.4-10.78-8.34-14.22-2.39-1.67-5.06-2.39-8.02-1.8-.45,.09-1.14-.16-1.48-.49-3.25-3.19-6.56-6.33-9.63-9.68-3-3.28-5.6-6.89-7.64-10.87-.13-.25-.23-.5-.32-.77-.05-.14-.04-.3-.08-.62,1.36-.14,2.68-.22,3.99-.43,5.56-.89,11.11-1.82,16.66-2.74,.89-.15,1.76-.34,2.64-.51,0,.1,3.5-.25,4.53,.88,0,0,1.78,1.35,2.79,2.78,1.54,2.2,2.69,4.67,4.02,7.02,1.28,2.26,2.79,4.35,5.46,4.99,1.6,.39,3.29,.36,4.94,.55,.54,.06,1.06,.22,1.75,.36,.58-.31,1.37-.85,2.23-1.15,2.06-.73,2.22-.7,1.95-2.83-.29-2.21-.57-4.51-1.41-6.55-1.91-4.63-5.49-7.15-10.61-7.24-1.35-.02-2.7,.04-4.05-.05-1.81-.12-3.32-.88-4.52-2.48,.37-.16,.6-.31,.85-.36,5.7-.99,11.42-1.91,17.11-3,1.56-.3,2.6,.35,3.67,1.16,1.9,1.43,4.1,1.81,6.39,1.88,.75,.02,1.27,.22,1.83,.8,1.87,1.94,3.84,3.78,5.8,5.62,2.01,1.88,4.58,2.54,7.15,3.18,2.68,.66,5.34,1.38,8.04,1.96,2.2,.47,4.43,.69,6.5-.49,.13-1.67,.32-2.08,1.37-2.56,.22,1.68,.55,3.3,.63,4.93,.34,6.9,.81,13.8,.83,20.7,.02,8.18-.86,16.33-2.54,24.34Z"/></g><g id="Ebene_3"><path d="M434.43,227.49c.06-.7,.11-1.39,.2-2.09,.11-.85,.39-1.69,.37-2.53-.07-2.94-.34-5.89-.33-8.83,0-2.36,.57-4.66,.06-7.11-.54-2.59-.4-5.32-.6-7.98-.17-2.29-.32-4.58-.64-6.85-.44-3.21-1.03-6.4-1.55-9.6-.52-3.2-.93-6.42-1.57-9.59-.56-2.82-1.29-5.61-2.07-8.37-1.56-5.53-3.05-11.08-4.85-16.53-2.83-8.59-6.24-16.96-10.36-25.03-2.45-4.8-4.67-9.74-7.34-14.41-5.81-10.13-12.49-19.69-20.11-28.55-4.06-4.72-8.22-9.36-12.43-13.95-5.23-5.72-10.97-10.91-17.05-15.7-7.86-6.2-16.31-11.53-24.85-16.73-8.76-5.34-17.87-9.96-27.3-13.97-9.83-4.18-19.87-7.81-30.18-10.58-11.92-3.21-23.99-5.74-36.32-6.82-9.81-.86-19.62-1.53-29.48-1.14-9.62,.38-19.18,1.27-28.58,3.26-8.6,1.82-17.2,3.8-25.64,6.25-13.55,3.92-26.5,9.48-39.12,15.77-6.88,3.43-13.54,7.25-19.89,11.63-8.87,6.11-17.15,12.93-25.18,20.1-11.2,9.99-20.98,21.17-29.26,33.68-7.85,11.86-14.55,24.33-20.24,37.36-4.09,9.35-7.69,18.86-10.22,28.74-1.61,6.27-2.94,12.62-4.5,18.91-.28,1.11-.17,2.22-.52,3.36-.55,1.81-.5,3.8-.73,5.72-.22,1.8-.49,3.59-.76,5.55,.01,.03,.26,.32,.23,.59-.1,1.13-.32,2.25-.43,3.38-.15,1.49-.23,2.99-.37,4.48-.17,1.79-.43,3.57-.56,5.37-.14,1.85-.09,3.71-.28,5.55-.14,1.42-.52,2.81-.79,4.21l.31,.05c.03-.12,.07-.25,.11-.37,.07,.02,.14,.04,.22,.05-.14,.69-.27,1.37-.42,2.08h.55c-.19,1.07-.47,2.11-.55,3.15-.09,1.3-.05,2.62,0,3.93,.03,.71,.27,1.42,.29,2.14,.03,.97-.12,1.95-.09,2.93,.04,.98,.23,1.95,.31,2.93,.31,3.78,.34,7.61,.96,11.35,1.2,7.22,2.51,14.43,4.18,21.55,1.56,6.66,3.36,13.3,5.58,19.76,2.63,7.63,5.67,15.13,8.82,22.56,2.06,4.84,4.59,9.48,7,14.17,4.32,8.41,9.55,16.26,15.07,23.92,4.48,6.22,9.4,12.08,14.55,17.75,5.05,5.56,10.3,10.91,16,15.8,7.68,6.59,15.75,12.67,24.11,18.38,6.46,4.42,13.12,8.49,20.06,12.09,7.54,3.91,15.31,7.34,23.36,10.06,5.97,2.02,11.96,4.04,18.04,5.69,5.92,1.61,11.99,2.7,17.97,4.11,8.27,1.94,16.7,2.57,25.14,3.06,6.81,.4,13.65,.4,20.48,.54,2.06,.04,4.15,.16,6.19-.06,7.69-.83,15.37-1.67,23.03-2.73,4.74-.65,9.47-1.53,14.13-2.61,4.55-1.05,9.01-2.46,13.5-3.76,7.46-2.16,14.79-4.72,21.88-7.89,4.95-2.21,9.89-4.48,14.67-7.03,6.32-3.36,12.54-6.92,18.7-10.58,8.06-4.79,15.58-10.37,22.63-16.55,3.51-3.08,6.93-6.26,10.32-9.46,2.32-2.2,4.54-4.51,6.79-6.78,1.58-1.6,3.35-3.06,4.67-4.86,1.88-2.56,4.57-4.43,6.06-7.31,.05-.1,.16-.18,.23-.27,1.82-2.24,3.74-4.4,5.44-6.72,1.98-2.71,3.8-5.54,5.64-8.36,2.85-4.36,5.73-8.7,8.45-13.15,1.9-3.11,3.65-6.32,5.3-9.57,2.44-4.8,4.96-9.58,7.02-14.55,2.87-6.93,5.36-14.02,7.99-21.06,1.01-2.71,1.56-5.58,2.62-8.27,.68-1.73-.08-3.76,1.24-5.32,.06-.07-.02-.23,0-.34,.09-.5,.19-1,.3-1.5,.18-.79,.38-1.57,.55-2.36,.24-1.15,.45-2.3,.69-3.45,.05-.26,.2-.5,.22-.76,.14-2.01,.09-4.06,.42-6.04,.41-2.49,1.01-4.92,.82-7.48-.05-.69,.09-1.49,.42-2.07,.44-.78,.53-1.48,.4-2.34-.12-.83,.05-1.7,.02-2.54-.07-2.52,1.56-4.88,.65-7.48-.03-.09,.09-.22,.09-.34,.04-.54,.07-1.08,.11-1.62Zm-40.3-102.2c1.4-1.09,2.31-2.5,2.97-4.05,.31-.73,.43-4.37,.87-4.23,.4,.13,1.96,3.42,2.62,4.9,.39,.87,2.39,5.57,2.73,6.28,3.59,7.35,7.24,14.68,9.58,22.54,3.11,10.45,6.08,20.95,7.81,31.75,.41,2.57,.77,5.16,1.19,8.04-1.93-1.2-3.56-2.21-5.18-3.22-1.92-1.19-3.87-2.34-5.76-3.58-3.57-2.36-7.5-3.11-11.69-2.72-1.62,.15-3.23,.38-4.85,.57-.38,.04-.76,.06-1.43,.11,.71-.86,1.25-1.51,1.79-2.17,.5-.61,1.02-1.21,1.45-1.87,.5-.78,1.22-1.12,2.09-1.16,5.32-.27,10.16-5.77,10.73-10.74,.22-1.96-.25-4-.37-6.01-.11-1.81-.24-3.62-.2-5.42,.03-1.22-.12-1.49-1.31-1.07-6.21,2.16-11.09,5.75-13.27,12.29-.55,1.64-.95,3.25-1.15,5.01-.51,4.32-3.65,9.1-9.28,10.04-1.05,.18-2.13,.21-3.19,.3-.75,.06-1.12-.24-1-1.04,.61-4.16,2.12-7.97,4.54-11.38,.41-.57,1.3-.89,2.03-1.12,4.74-1.53,7.3-5.11,8.98-9.5,.69-1.81,.23-2.39-1.71-2.5-4.91-.29-9.56,2.62-11.27,7.69-1.5,4.44-3.87,8.41-5.81,12.61-.4,.86-.96,1.09-1.79,.91-.89-.19-1.47-.73-1.4-1.65,.11-1.58,.34-3.15,.53-4.72,.08-.63,.23-1.25,.29-1.88,.14-1.5-.28-2.24-1.46-2.65-1.32-.46-2.63-.06-3.37,1.02-1.34,1.96-1.21,4.56,.38,6.66,1.51,2.01,1.69,4.22,.99,6.54-.12,.4-.61,.88-1.02,.98-4.33,1.1-8.43,2.71-12.32,4.97-1.01,.59-2.45,.48-3.69,.61-.19,.02-.56-.4-.61-.65-.85-4.71,.02-8.99,3.22-12.67,.15-.18,.33-.37,.54-.45,4.87-1.92,7.05-6.03,8.61-10.62,1.64-4.82,1.42-9.93-.6-15.08-4.57,2.19-8.17,5.26-10.36,9.82-1.62,3.35-2.32,6.88-2.17,10.6,.03,.71-.26,1.5-.61,2.13-3.02,5.34-4.64,11.02-4.24,17.2,.05,.7,.07,1.29-.9,1.46-4.03,.7-8.04,1.49-12.16,1.26-5.39-.29-10.78-.61-16.17-.84-2.74-.12-5.48-.09-8.22-.13-1.19-.02-1.36-.26-.93-1.34,.79-1.99,2.03-3.65,4.04-4.47,5.56-2.29,7.86-6.83,8.73-12.39,.35-2.25,.53-4.5-.15-6.72-.36-1.18-.71-1.4-1.65-.62-1.96,1.6-3.75,3.41-5.69,5.03-3.17,2.64-4.28,6.36-5.62,10.03-.95,2.59-2.16,5.1-3.43,7.56-.8,1.55-2.1,2.21-4.05,1.91-5.22-.83-10.43-.64-15.54,.9-6.28,1.9-12.06,4.81-17.35,8.7-1.33,.98-2.75,1.84-4.35,2.9-.28-2.47,.14-4.51,1.17-6.41,.41-.76,.95-1.47,1.53-2.12,2.81-3.12,3.3-6.88,2.86-10.81-.39-3.48-1.58-6.71-3.71-9.54-.21-.28-.41-.58-.63-.86-.56-.7-1.06-.62-1.44,.16-.38,.78-3.25,3.35-3.73,4.06,1.92-4.45,4.99-11.49,9.79-14.31,.22,.2,.37,.26,.39,.35,.34,2.09,2.2,2.12,3.66,2.62,.38,.13,.95-.06,1.34-.28,.66-.36,1.03-.21,1.3,.43,2.21,5.19,12.36,8.41,18.21,3.84,.34-.27,.69-.54,1-.84,2.45-2.31,2.55-4.16-.11-6.08-2.59-1.86-5.42-3.4-8.25-4.9-2.03-1.07-4.23-.99-6.33-.01-2.35,1.1-4.67,.98-7.08-.08,.1-.21,.16-.45,.31-.58,4.26-3.87,8.76-7.37,14.39-9,5.29-1.53,10.71-2.21,16.22-2.15,.6,0,1.2-.06,1.78,.04,.79,.13,1.55,.42,2.32,.6,.91,.21,1.83,.51,2.76,.55,1.21,.04,2.04,.37,2.69,1.51,1.68,2.93,3.67,5.65,6.23,7.91,.27,.24,.56,.66,.55,.99-.11,2.74,1.2,4.87,2.86,6.86,2.17,2.6,4.92,4.46,8.06,6.11,.13-1.05,.32-1.98,.34-2.91,.06-2.96-.21-5.9-1.42-8.62-1.28-2.89-3.17-5.14-6.57-5.78-2.77-.52-5.28-3.86-5.14-6.67,.8,0,1.62-.04,2.43,0,6.32,.34,12.59,.1,18.86-.99,3.22-.56,5.66-2.37,8.23-4.07,3.49-2.3,7.08-4.4,11.2-5.37,1.25-.29,2.53-.47,3.81-.6,.47-.05,.96,.17,1.69,.32,1.12-1.29,2.85-.44,4.31-.2,2.24,.37,4.39,1.3,6.59,1.94,1.16,.34,2.35,.66,3.55,.8,1.03,.12,1.59,.51,1.77,1.54,.52,2.89,1.65,5.45,3.97,7.39,1.93,1.61,4.25,2.05,6.62,2.39,.86,.12,1.74,.19,2.61,.23,.34,.02,.84,.03,1.01-.17,1.34-1.53,3.04-1.15,4.72-.98,.34,.03,.69,.06,1.2,.1-.03-3.58-.56-6.9-2.86-9.67-3.79-4.57-8.67-6.41-14.52-5.45-1.88,.31-3.14-.59-4.66-1.74,2.08-1.31,3.93-2.58,5.89-3.67,.6-.33,1.48-.28,2.22-.24,1.76,.09,3.52,.33,5.28,.39,.44,.02,.95-.33,1.34-.64Zm-135.31,65.07c.3,.25,.68,.63,.69,.95,.05,1.82,.14,3.65-.06,5.45-.23,2.03-1.26,3.71-2.92,5-3.1,2.41-6.17,4.85-9.26,7.27-.39,.31-.84,.55-1.59,1.03,.17-.85,.2-1.39,.38-1.86,1.71-4.52,3.46-9.02,5.17-13.54,1.29-3.41,2.5-6.84,3.78-10.25,.38-1,.91-1.94,1.37-2.91,.09,.04,1.82-3.67,1.92-3.63-.1,.44-1.14,4.43-1.24,7.16-.04,.95,1.06,4.75,1.77,5.33Zm-7.4,24.84c3.38-4.16,7.61-7.26,12.99-8.46,.82-.19,1.35-.19,1.7,.82,.59,1.72,2.23,1.9,3.73,2,1.37,.09,2.77-.11,4.15-.09,.47,0,1.04,.14,1.4,.42,2.18,1.74,4.77,2.35,7.43,2.54,2.3,.16,3.93-1.31,5.35-2.91,1.55-1.75,1.55-1.87,.11-3.79-2.64-3.52-6.01-5.61-10.59-5.11-.82,.09-1.61,.44-2.43,.54-.77,.1-1.56,.02-2.34,.02-.04-.12-.07-.24-.11-.37,.25-.2,.48-.43,.75-.58,4.4-2.52,9.07-4.41,14-5.54,3.69-.85,7.48-.88,11.25-.41,.63,.08,1.01,.32,1.3,.99,.22,.5,.91,1.01,1.46,1.12,1.51,.28,3.05,.41,4.59,.47,.72,.03,.87,.34,.95,.91,.35,2.51,.73,5.01,1.03,7.53,.03,.29-.31,.84-.58,.91-3.46,.94-5.48,3.29-6.73,6.52-.19,.5-.89,1.04-1.44,1.14-5.69,1.05-11.39,2.03-17.1,2.98-6.61,1.1-13.25,2.12-19.63,4.2-6.37,2.07-12.1,5.51-17.77,9.01-.87,.54-1.77,1.02-2.66,1.53-.08-.08-.17-.16-.25-.25,.54-1.05,1.19-2.05,1.59-3.14,1.76-4.86,4.66-9.05,7.86-12.99Zm131.39-112.45c.05-.1,.22-2.47,.51-3.7,.19-2.03-.22-4.73,.19-4.18,.8,1.08,4.1,5.28,4.93,6.33,.24,.3,3.45,6.5,3.62,6.68,.13,.14,.09,.62-.06,.78-.58,.64-1.15,1.32-1.86,1.79-2.78,1.87-4.64,4.46-6.25,7.35-3.11,5.59-7.68,8.98-14.36,8.86-1.3-.02-1.49-.21-.96-1.38,1.39-3.06,2.83-6.1,4.33-9.1,.34-.68,.96-1.29,1.59-1.73,3.86-2.69,6.4-6.33,7.91-10.73,.12-.34,.27-.66,.42-.98Zm-29.52-33.04c1-.45,2.24-.57,3.17,.25,1.57,1.37,3.35,2.29,5.38,2.56,1.64,.22,2.73,1.19,3.75,2.28,4.05,4.34,8.06,8.7,12.07,13.08,.34,.37,.55,.87,.85,1.29,.27,.37,.57,.73,.89,1.05,.46,.47,.96,.9,1.39,1.3-.86,1.66-2.06,2.63-3.46,3.51-4.63,2.9-8.13,6.71-9.26,12.26-.2,.96-.29,1.97-.24,2.95,.3,5.97-1.89,10.69-6.73,14.27-5.64,4.17-11.5,7.93-18.05,10.48-7.79,3.03-15.86,4.28-24.17,3.11-3.09-.44-6.11-1.34-9.15-2.11-.31-.08-.76-.71-.69-.97,1.37-5.55,2.87-11.06,6.02-15.93,.52-.8,1.08-1.57,1.65-2.33,.69-.93,1.56-1.15,2.6-.57,.52,.29,1.08,.51,1.57,.84,.93,.63,1.79,.76,2.71-.03,.18-.15,.67-.07,.94,.05,.91,.4,1.77,.89,2.67,1.31,2.65,1.23,5.39,1.47,8.08,.3,2.2-.95,4.26-2.2,6.59-3.42-2.52-3.48-5.22-6.18-9.07-7.48-3.88-1.32-7.65,.13-11.81,.76,1.04-1.87,1.89-3.42,2.75-4.96,2.18-3.93,4.7-7.65,7.75-10.95,1.02-1.1,2.37-1.92,3.68-2.69,.44-.26,1.25-.05,1.83,.13,1.57,.51,3.11,1.14,4.67,1.66,.37,.12,.9,.14,1.23-.03,.68-.35,1.15-.23,1.52,.37,2.15,3.42,5.44,3.72,8.93,3.08,1.93-.36,3.77-1.18,5.67-1.75,.78-.24,.83-.68,.63-1.36-2.01-6.79-8.75-10.52-14.75-10.04-.89,.07-1.82,.36-2.56-.62,.17-.3,.33-.65,.55-.97,1.43-2.05,2.98-4.03,4.29-6.15,1.46-2.36,3.76-3.48,6.11-4.53Zm-29.65-16.38c.91-1.29,1.64-2.72,2.42-4.1,.77-1.36,1.45-1.57,2.8-.81,.66,.37,1.27,.93,1.97,1.08,.8,.17,1.72,.13,2.49-.12,.67-.22,1.12-.27,1.71,.15,3.13,2.26,6.3,4.48,9.45,6.71-.06,.15-.12,.29-.18,.44-.4,.03-.8,.07-1.2,.09-.71,.04-1.08,.26-.64,1.04,2.74,4.86,1.84,9.63-.25,14.44-1.9,4.39-4.36,8.36-7.87,11.65-.2,.19-.39,.4-.6,.58-.08,.07-.21,.1-.38,.17-1.31-2.06-1.47-4.28-.68-6.48,.55-1.55,1.35-3.05,2.29-4.4,2.67-3.82,4.49-7.95,4.74-12.64,.07-1.28-.16-2.62-.53-3.85-.56-1.88-2.07-2.36-3.75-1.34-.54,.32-1.05,.73-1.46,1.2-3.83,4.42-6.12,9.52-6.51,15.38-.1,1.48,.03,3.07,.46,4.48,.77,2.51,.08,4.86-.28,7.28-.3,1.98-.42,3.99-.52,6-.05,1.14-.19,2.12-1.07,3.01-4.32,4.43-7.3,9.75-10.12,15.19-.84,1.62-1.74,3.2-2.91,4.75,.08-.81,.09-1.64,.26-2.43,.83-3.87,1.46-7.8,2.63-11.56,.69-2.22,2.34-4.12,3.4-6.24,2.81-5.61,3.62-11.62,3.18-17.82-.08-1.1-.2-2.51-1.47-2.89-1.21-.36-2.05,.71-2.73,1.56-4.25,5.34-6.89,11.36-7.38,18.22-.08,1.14-.11,2.31,.02,3.44,.35,3.08-.5,5.96-1.19,8.9-1.19,5.09-2.16,10.24-3.38,15.33-.97,4.04-2.13,8.04-3.32,12.03-.3,1-.98,1.89-1.53,2.8-1.32,2.15-3.45,2.67-5.78,2.99-5.2,.72-10.24,2.09-15.09,4.14-6.63,2.81-11.33,7.75-15.21,13.59-2.47,3.73-4.78,7.58-7.17,11.37-.29,.45-.59,.9-1.06,1.62-.09-.56-.18-.78-.14-.98,1.15-6.7,2.58-13.32,5.64-19.46,2.09-4.2,5.11-7.64,8.8-10.49,.46-.35,1.35-.42,1.95-.27,3.33,.84,6.64,1.15,9.98,.14,3.8-1.15,6.66-4.76,6.93-8.69,.1-1.47-.24-1.77-1.72-1.45-2.9,.61-5.84,1.06-8.47,2.63-.89,.53-2.09,.54-3.15,.78-.08-.15-.16-.3-.24-.45,.73-.81,1.46-1.61,2.18-2.42,2.59-2.91,4.45-6.25,5.96-9.81,.71-1.68,1.53-3.31,2.26-4.99,.63-1.45,1.73-2.27,3.19-2.82,.97-.37,1.81-1.06,2.73-1.58,.36-.2,.77-.44,1.16-.46,4.98-.14,8.95-2.99,10.47-7.67,.46-1.42,.67-2.92,1.04-4.57-2.44,.08-4.54,.6-6.54,1.61-2.71,1.36-4.64,3.54-6.28,6.02-.42,.63-.87,1.26-1.94,.92,.1-.39,.14-.77,.29-1.11,4.04-9.44,8.12-18.86,12.15-28.31,2.37-5.55,5.97-10.16,10.52-14.07,.81-.7,1.54-1.5,2.39-2.14,.61-.46,1.33-.87,2.06-1.05,2.46-.58,3.88-2.39,5.21-4.27ZM65.13,80.91c3.77-3.9,7.5-7.84,11.34-11.66,2.05-2.03,4.24-3.94,6.5-5.73,1.22-.97,2.71-1.62,4.13-2.32,.38-.19,1.75-.43,2.18-.62,1.32-.57,1.65-.81,2.37-1.17,.88-.45,.8,1.22,1.54,1.62,3.24,1.75,5.16,4.73,7.22,7.58,1.04,1.44,2.09,2.88,3.13,4.32-.02,.14-.04,.28-.06,.41-5.81-1.05-11.06-.28-15.16,4.32-1.44,1.61-3.02,4.44-3.05,5.41,1.8,.8,3.52,1.71,5.34,2.32,1.52,.51,3.15,.75,4.76,.94,1.76,.21,3.11-.75,4.31-1.91,.48-.47,.93-.98,1.39-1.47,.95-.98,2.06-1.45,3.44-1.06,1.53,.44,2.94,.38,4.25-.71,.28-.23,1.08-.22,1.38,.02,.92,.73,1.89,1.5,2.51,2.47,3.66,5.73,7.22,11.52,10.81,17.3,.17,.28,.27,.61,.52,1.18-1.62-.3-2.96-.56-4.31-.78-2.36-.4-4.71-.52-7.08,.08-3.24,.83-7.69,4.36-9.02,7.28,3.64,2.89,8.21,5.79,13.86,3.36,1.05-.45,2.05-1.03,3.12-1.4,1.87-.65,2.92-1.2,4.62-2.28,.56-.35,1.26-.56,1.39-.64,1.19-.77,1.96,2.72,2.36,3.56,1.34,2.86,2.73,5.71,3.94,8.62,.46,1.1,.36,2.43,.76,3.57,.41,1.17,.27,2.51,1.23,3.55,.58,.63-.4,2.46-1.28,2.54-5.21,.48-10.42,1.24-15.63,1.3-3.27,.03-6.61-.76-9.81-1.62-8.04-2.15-15.18-6.13-21.65-11.33-1.3-1.04-2.61-2.08-3.96-3.05-3.26-2.32-4.75-5.69-5.44-9.44-.33-1.77-.25-3.61-.27-5.43-.05-3.58-1.27-6.72-3.34-9.6-2.14-2.97-5.09-4.97-8-7.03-1.3-.92-1.38-1.41-.31-2.52Zm-10.9,11.37c.48-.65,3.89-5.28,4.42-5.91,.65-.77,2.87,5.66,3.24,6.63,1.23,3.25,2.74,6.33,5.23,8.83,.45,.45,.86,.96,1.39,1.29,2.65,1.61,3.93,4.16,4.91,6.93,.63,1.79,1.18,3.62,1.74,5.43,.27,.88,0,1.29-1.02,1.3-6.2,.01-10.72-2.85-13.93-8.02-1.33-2.15-2.51-4.43-4.1-6.37-1.23-1.49-2.99-2.54-4.53-3.8-.06-2.4,1.5-4.76,2.64-6.31ZM21.03,162.98c.82-2.9,1.69-5.79,2.68-8.63,.52-1.48,1.48-2.81,1.99-4.3,1.24-3.62,2.49-7.25,3.45-10.95,.91-3.53,2.43-6.78,3.99-10.01,1.94-4.03,4.02-8,6.21-11.89,.68-1.22,2.89-6.45,3.61-7.69,2.03-3.5,2.44,2.43,4.81,3.87,2.1,1.27,4.51,1.93,6.81,2.77,1.02,.37,2.19,.65,3.24,.52,2.56-.33,4.04,1.43,6.08,2.62-1.58,1.32-3.08,1.9-5.02,1.69-2.11-.23-4.29-.41-6.37-.12-5.77,.82-10.22,5.11-11.48,10.8-.22,.98-.14,2.02-.19,2.82,1.63,.24,3.25,.07,4.42,.73,2.57,1.43,5.35,1.1,8.03,1.53,.42,.07,.99-.08,1.32-.34,1.15-.9,2.24-1.89,3.34-2.86,2.1-1.84,2.98-4.34,3.71-6.92,.13-.46,.53-1.01,.94-1.19,1.88-.84,3.79-1.65,5.73-2.32,2.02-.69,4.09-1.11,5.96,.49,.15,.13,.45,.11,.67,.11,2.22,0,4.43-.05,6.64,0,.85,.02,1.75,.13,2.55,.41,3.92,1.39,7.53,3.43,10.67,6.12,3.3,2.82,7.14,4.16,11.25,5.03,5.26,1.11,10.59,1.53,15.96,1.23,.5-.03,1,0,1.53,0-.74,3.34-3.72,5.69-6.91,5.44-3.19-.26-5.28,1.48-6.94,3.83-2.22,3.15-3.23,6.77-3.59,10.58-.02,.19,.05,.38,.1,.69,4.21-1.28,8.35-2.56,11.3-6.02,.78-.92,1.45-2.03,1.83-3.16,.33-.98,.82-1.62,1.64-2.18,3.2-2.2,5.87-4.97,8.33-7.94,.68-.81,1.39-1.22,2.45-1.05,3.87,.61,7.77,1.09,11.62,1.82,3.5,.66,7,1.4,10.4,2.44,5.11,1.57,9.59,4.35,13.52,7.98,.7,.65,1.39,1.3,2.08,1.96,.07,.07,.07,.22,.13,.41-2.28,.79-4.6,1.21-6.8,.1-3.36-1.69-6.47-1.1-9.5,.67-1.71,1-3.3,2.18-4.94,3.29-.2,.13-.37,.29-.55,.46-2.52,2.4-2.12,4.08,0,6.04,3.08,2.85,6.82,3.73,10.95,2.86,3.55-.74,6.44-2.39,8.16-5.75,.17-.34,.82-.62,1.24-.6,.82,.03,1.65,.21,2.44,.46,1.43,.45,2.7,.37,3.9-.63,.82-.68,1.4-.02,1.71,.61,.81,1.67,1.6,3.36,2.22,5.11,.98,2.76,1.77,5.59,2.73,8.35,.28,.81,.27,1.39-.32,2.02-.23,.24-.29,.64-.53,1.2-.58-1.64-1.11-3.11-1.62-4.59-.43-1.24-.76-2.51-1.26-3.71-.43-1.03-.95-1.09-1.62-.19-3.82,5.08-5.75,10.72-4.19,17.05,.49,1.97,1.81,3.75,2.86,5.55,1.33,2.26,1.73,4.02,1.16,6.97-1.34-1.06-2.52-1.96-3.68-2.89-6.12-4.9-12.66-9.03-20.39-10.89-3.82-.92-7.72-.89-11.61-.7-2.73,.13-5.46,.37-8.19,.55-.22,.01-.44-.02-.81-.05,.74-1.27,1.44-2.4,2.07-3.57,2.37-4.37,3.26-8.99,2.29-13.91-.18-.93,.03-1.58,.64-2.43,1.13-1.59,2.54-2.39,4.32-2.54-1.22-1.83-2.32-3.65-3.6-5.33-.6-.78-1.46-1.48-2.36-1.9-2.12-1.01-4.23-.47-5.16,1.64-1.27,2.89-3.39,4.62-6.09,6.01-3.89,2-5.86,5.67-7.19,9.57-1.05,3.05-1.59,6.28-2.21,9.46-.38,1.94-.27,1.85-2.22,2.1-4.46,.57-8.87,.39-13.25-.57-1.86-.4-3.71-.87-5.53-1.42-.31-.09-.64-.73-.64-1.11,.02-1.38,.26-2.77,.27-4.15,.03-4.79-1-9.35-2.95-13.73-.33-.75-.45-1.68-.37-2.5,.59-6.42-.31-12.4-5.08-17.18-1.35-1.36-2.98-2.44-4.76-3.87-.72,1.88-1.45,3.41-1.9,5.03-1.62,5.92-.75,11.55,2.3,16.85,.99,1.72,2.31,3.1,4.09,4.04,.46,.25,.88,.69,1.17,1.14,1.93,2.98,2.65,6.25,2.24,9.77-.11,.94-.24,1.89-.36,2.83-.09,.66-.44,1-1.14,.89-1.53-.22-3.01-.47-4.34-1.41-3.19-2.26-6.63-4.05-10.35-5.27-.92-.3-1.34-.84-1.38-1.81-.09-2.29,.45-4.21,2.27-5.84,1.76-1.57,2.35-3.7,1.68-6.06-.36-1.26-1.38-2-2.66-1.91-1.1,.07-2.02,.92-2.15,2.18-.21,1.93-.31,3.87-.47,5.81-.13,1.53-.96,2.48-2.2,2.5-.8,.02-1.33-.28-1.62-1.09-1.06-2.95-2.21-5.86-3.22-8.82-.38-1.11-.49-2.32-.7-3.49-.87-5.04-3.28-8.8-8.49-10.23-.45-.12-.95-.26-1.4-.19-.62,.09-1.67,.27-1.73,.57-.15,.78-.12,1.82,.3,2.44,.78,1.13,2.14,1.89,2.08,3.53,0,.13,.13,.37,.23,.4,1.33,.28,.94,1.48,1.42,2.45-1.64-.29-1.54-1.94-2.46-2.61-.09,.06-.17,.11-.26,.17,.51,.79,.89,1.72,1.55,2.35,1.33,1.28,2.75,2.48,4.26,3.55,.91,.64,1.66,1.26,2.08,2.33,1.42,3.67,2.84,7.33,2.6,11.38-.04,.66-.18,1.09-.94,1.02-5.52-.48-10.05-2.58-11.98-8.34-.52-1.55-.73-3.26-.79-4.91-.31-8.2-4.71-13.63-11.62-17.39-.38-.2-1.02-.32-1.32-.12-.26,.17-.22,.82-.28,1.27-.23,1.55-.4,3.12-.71,4.66-.19,.96-.67,1.87-.89,2.83-.28,1.21-.27,2.38,.32,3.58,.44,.9,.61,1.95,.79,2.95,.04,.24-.32,.56-.69,1.15,1.05,3.47,3.44,6.24,7.23,7.57,1.75,.62,3.04,1.48,3.96,3.1,.69,1.21,1.65,2.25,2.49,3.37-.06,.1-.12,.21-.17,.31-.76-.1-1.52-.17-2.28-.29-3.94-.61-7.94-1.31-11.72,.37-2.28,1.01-4.3,2.63-6.43,3.99-1.9,1.22-3.78,2.47-5.69,3.67-.31,.19-.73,.19-1.1,.28-.09-.4-.26-.8-.27-1.21-.05-4.67,1.34-9.06,2.59-13.48Zm128.43,39.98c2.84,4.47,7.72,5.74,12.39,3.18,.56-.3,1.13-.61,1.61-1.01,.47-.39,.83-.91,1.08-1.2,.59,.4,1.17,.8,1.74,1.19,.08-.1,.17-.19,.25-.29-.12-.18-.25-.36-.51-.75,.76,.29,1.32,.46,1.84,.71,1.7,.82,3.28,.39,4.69-.61,.83-.59,1.55-.63,2.39-.19,1.81,.96,3.74,1.75,5.4,2.92,3.22,2.26,5.69,5.31,7.72,8.65,2.25,3.72,4.27,7.58,6.4,11.36,.48,.85,1.03,1.66,1.53,2.48-4.66-1.38-8.55-4.1-12.6-6.53-6.84-4.1-14.3-6.61-22.02-8.39-7.72-1.78-15.46-3.49-23.18-5.28-.43-.1-.88-.61-1.1-1.04-.44-.88-.66-1.87-1.1-2.75-1.05-2.07-2.69-3.52-4.9-4.27-.69-.24-.88-.51-.7-1.3,.57-2.42,1.02-4.86,1.49-7.31,.18-.92,.36-1.76,1.61-1.51,.14,.03,.35,0,.46-.08,2.68-2.02,5.85-1.53,8.88-1.75,1.78-.13,3.37,.55,5.03,1.06,1.79,.54,3.68,1.24,5.64,.47,.26-.1,.64-.05,.92,.04,4.11,1.41,7.96,3.35,11.64,5.65,.09,.05,.12,.19,.18,.29-.02,.16-.05,.31-.07,.47-.76-.1-1.61,0-2.25-.33-5.83-2.9-11.68,.01-14.45,4.32-.43,.67-.45,1.13-.02,1.81Zm41.04,1.54c-.18,.53-.33,1-.56,1.68-.79-.69-1.53-1.31-2.25-1.95-1.71-1.53-3.45-3.05-5.12-4.62-2.36-2.21-3.08-5.03-2.73-8.14,.37-3.23,.91-6.44,1.27-9.66,.15-1.36,.03-2.75,.03-3.93,.78,.97,1.65,2.03,2.5,3.11,.33,.43,.56,.95,.91,1.35,2.03,2.26,2.7,5.11,3.43,7.91,1.14,4.36,2.16,8.74,3.22,13.12,.13,.53,.19,1.08,.32,1.83-.42-.28-.66-.44-1.01-.67ZM21.22,270.29c-1.17-4.44-2.63-8.83-3.5-13.33-1.24-6.37-2.42-12.79-2.96-19.25-.69-8.21-1.02-16.48-.93-24.72,.07-6.88,.95-13.76,1.54-20.64,.17-2.04,.37-2.1,2.38-1.98,.77,.05,1.44,.05,2.01-.69,.24-.31,.98-.33,1.48-.3,2.8,.16,5.63,.71,8.39,.49,4.16-.34,7.42-2.83,10.35-5.62,2.09-1.99,4.06-4.13,6.02-6.26,.94-1.02,1.99-1.55,3.37-1.57,2.41-.04,4.85-.42,7.23-.17,2.58,.27,5.11,1.06,7.64,1.71,2.99,.77,5.96,1.63,8.93,2.49,.49,.14,.93,.49,1.39,.75-.41,.44-.77,1.2-1.24,1.28-1.74,.27-3.52,.54-5.26,.4-3.12-.25-6.12-.04-8.9,1.49-3.57,1.97-5.51,5.14-6.34,9.05-.24,1.16-.39,2.33-.59,3.49,3,1.46,5.94,2.54,9.21,2.52,2.63-.01,4.86-.91,6.48-2.96,1.72-2.17,3.2-4.53,4.94-6.69,1.08-1.35,2.4-2.52,3.69-3.68,1.19-1.08,2.56-1.27,4.07-.55,.54,.26,1.23,.43,1.82,.36,2.42-.31,4.47,.92,6.66,1.53,2.25,.63,4.48,1.34,6.75,1.89,2.69,.65,5.41,1.16,8.12,1.74,.94,.2,.94,.75,.42,1.38-1.46,1.78-2.89,3.58-4.42,5.29-4.28,4.76-9.11,8.93-13.95,13.1-.83,.71-1.61,.86-2.71,.61-4.55-1.03-7.99,.96-10.94,4.2-3.14,3.46-4.86,7.59-5.6,12.13-.27,1.62-.09,3.33-.05,4.99,0,.22,.43,.62,.62,.6,1.61-.16,3.25-.25,4.82-.64,5.44-1.34,9.1-4.96,11.83-9.64,.8-1.36,1.43-2.83,2.02-4.3,1.04-2.59,5.37-5.74,8.15-5.82,.42-.01,.85,.05,1.48,.1-.39,2.17-.68,4.24-1.14,6.27-.48,2.08-1.02,4.16-1.73,6.18-.4,1.13-1.03,2.29-1.87,3.13-2.58,2.61-3.71,5.79-3.95,9.32-.14,2.11,.02,4.25,.05,6.46,3.38,0,5.9-1.11,7.87-3.51,3.09-3.79,4.21-8.21,3.68-12.93-.63-5.58,.96-10.77,2.29-16.01,1.35-5.3,3.46-10.29,6.78-14.69,1.32-1.76,2.79-3.35,4.74-4.44,1.47-.82,2.89-1.23,4.69-.9,2.03,.37,4.18,.18,6.27,.12,.77-.02,1.27,.18,1.46,.87,.62,2.21,1.22,4.42,1.74,6.65,.06,.28-.37,.84-.7,1.01-.77,.39-1.64,.59-2.44,.92-.82,.33-1.18,.98-1.21,1.87-.18,4.69,4.17,9.96,8.81,10.68,.52,.08,1.07,.3,1.5,.61,1.68,1.21,3.55,1.15,5.46,.97,.58-.05,1.14-.19,1.72-.28,.05,.09,.1,.18,.16,.28-.48,.42-.95,.84-1.43,1.25-2.98,2.48-5.98,4.94-8.92,7.46-.44,.38-.57,1.12-.99,1.54-.84,.84-1.82,1.54-2.68,2.36-.61,.59-1.12,1.28-1.8,2.07-2.36,.86-3.68,2.81-3.97,3.08-4.21,3.85-8.26,7.91-12.76,11.39-4.82,3.72-10.61,5.39-16.68,5.54-4.42,.11-8.88-.09-13.16-1.58-5.03-1.75-8.61-5.16-11.08-9.75-5.43-10.08-12.06-19.29-19.6-27.88-.49-.55-.97-1.39-.94-2.07,.2-5.25-2.23-8.98-6.63-11.51-2.42-1.39-4.98-2.52-7.62-3.84-1.41,4.88-1.77,9.42,.05,13.87,1.32,3.24,3.89,5.19,7.27,5.94,1.97,.44,3.44,1.47,4.7,2.98,2.06,2.46,4.18,4.88,6.3,7.29,.6,.68,.68,1.1-.15,1.69-2.57,1.82-5.42,1.4-7.28-1.16-1.91-2.62-4.21-4.71-7.6-5-2.63-.23-5.22,.16-7.68,1.22-3.03,1.31-5.94,2.81-8.47,5.25,.4,.53,.77,1.08,1.2,1.57,2.9,3.29,6.28,5.63,10.74,6.54,2.76,.56,5.03,.11,7.36-1.16,.6-.33,1.43-.21,2.03-.54,1.6-.87,3.28-1.39,5.08-1.36,.54,0,1.09,.4,1.62,.64,.63,.29,1.22,.81,1.87,.88,1.25,.12,2.55,.13,3.78-.06,1.48-.23,2.42,.32,3.19,1.5,2.93,4.53,5.88,9.04,8.82,13.56,.19,.29,.33,.61,.55,1.01-.37,.17-.63,.34-.91,.42-4.08,1.21-8.25,1.95-12.5,2.15-1.37,.06-2.77-.12-4.13-.34-.62-.1-1.23-.51-1.75-.91-1.38-1.06-2.62-2.31-4.07-3.26-2.94-1.93-6-1.68-9.02-.12-1.08,.56-1.5,1.54-1.06,2.6,1.49,3.58,3.43,6.83,7.41,8.18,2.1,.72,4.26,.89,6.27-.11,2.31-1.15,4.7-1.39,7.22-1.57,4.18-.3,8.35-.91,12.49-1.62,1.25-.21,2.24,.17,3.33,.38,5.16,.96,10.31,1.95,15.47,2.93,.7,.13,1.39,.28,2.09,.43,.19,.04,.46,.07,.55,.2,.8,1.12,1.66,1.66,2.93,.02-.22,1.53-.75,2.32-1.69,2.94-5.72,3.78-11.99,6.11-18.75,7.13-5.29,.8-10.59,1.5-15.87,2.28-1.28,.19-2.37-.1-3.53-.64-2.36-1.1-4.72-2.33-7.22-2.96-4.02-1.02-7.94,.02-11.74,1.47-2.59,.99-5.19,1.97-7.76,3-.79,.32-1.16,.15-1.37-.66Zm23.03,50.72c-.85,.41-1.27,.17-1.71-.57-3.82-6.37-7.37-12.88-10.29-19.7-2.29-5.35-4.34-10.81-6.48-16.22-.17-.43-2.85-7.07-3.06-7.77,1.81,1.24,4.91,4.49,11.11,5.81,2.95,.63,5.71-.05,8.45-1.17,1.78-.73,3.7-1.12,5.51-1.78,1.18-.43,2.25-1.18,3.43-1.61,.71-.26,1.55-.15,2.33-.24,2.95-.32,5.9-.69,8.86-.96,.42-.04,8.75-2.55,10.58-3.25-1.05,3.38-2.25,6.61-5.61,8.39-2.28,1.2-4.64,2.26-6.85,3.57-5.11,3.01-8.24,7.47-9.17,13.36-.35,2.25-.5,4.54-.76,7.02,4.24-.89,7.41-3.14,10.76-5.19,2.73-.99,4.31-3.85,4.5-3.32,.16,.44-.23,3.95,1.26,6.03,1.91,2.67,5.69,3.29,8.58,4.83,2.22,1.19,3.71,2.9,4.55,5.26,.31,.87,.05,1.2-.77,1.45-6,1.78-11.99,3.61-18,5.37-.43,.12-1.16-.04-1.46-.35-2.88-3.01-6.19-3.2-9.8-1.63-2,.87-4,1.73-5.96,2.67Zm17.08,20.65c-.35,.8-.66,1.71-1.84,1.42-.43-.11-.96-.25-1.21-.56-1.98-2.42-3.89-4.89-5.85-7.33-.66-.82-.46-1.25,.38-1.88,1.27-.95,2.56-2.01,3.48-3.28,2.53-3.45,5.91-5.41,9.98-6.4,1.62-.39,3.19-.96,4.81-1.35,.75-.18,1.57-.06,2.33-.21,.65-.12,1.29-.38,1.9-.64,1.99-.83,3.98-1.69,5.97-2.53,.16,.15,.31,.3,.47,.46-1.67,3.14-3.3,6.29-5.03,9.39-.67,1.21-1.59,2.27-2.33,3.45-.56,.89-1.34,1.32-2.34,1.42-5.21,.51-8.66,3.35-10.73,8.04Zm131.77,.38c-.63,6.98-1.38,13.99-2.67,20.87-2.06,10.97-5.07,21.7-10.37,31.63-2.43,4.55-5.63,8.45-10.33,10.87-3.85,1.97-7.94,3.26-12.22,3.74-1.33,.15-2.79-.42-4.14-.84-12.84-3.99-25.02-9.53-36.87-15.85-10.95-5.83-20.93-13.06-30.19-21.24-5.49-4.85-10.65-10.08-15.93-15.17-1.37-1.32-1.34-1.73,.01-3.14,2.66-2.78,5-5.81,5.92-9.61,.51-2.09,.51-4.31,.83-6.45,.14-.95,.31-1.99,.81-2.76,3.21-4.93,6.16-10,8.74-15.28,.27-.54,.83-1.15,1.37-1.32,5.61-1.74,11.24-3.39,16.87-5.06,.36-.11,.75-.15,1.28-.26-.1,1.66-.75,2.88-1.82,3.86-2.08,1.89-4.31,3.63-6.32,5.6-4.27,4.17-6.19,9.49-7.1,15.25-.05,.31,0,.63,0,1.04,1.73,.21,3.33-.17,4.9-.72,5.78-2.01,9.28-6.2,11.06-11.89,1.09-3.51,1.96-7.09,2.9-10.64,.56-2.08,1.84-3.55,3.84-4.22,3.98-1.33,8-2.55,12.04-3.73,.45-.13,2.11-.69,2.94-.39,1.81-.58,2.94-.2,5.09-.95,.35-.12,.56-.65,1.03-1.23,.04,.39,.18,.72,.07,.92-1.2,2.31-2.4,4.63-3.7,6.9-.57,.99-1.54,1.76-2.01,2.78-.52,1.14-1.27,1.76-2.26,2.52-3.56,2.7-6.83,5.77-10.26,8.65-2.59,2.17-4.46,4.92-6.4,7.63-2.07,2.9-4.04,5.93-7.31,7.67-1.74,.93-3.57,1.72-5.42,2.42-7.11,2.68-11.16,8.08-13.46,15.04-.31,.94-.44,1.93-.7,2.89-.26,.97,.15,1.4,1.07,1.53,1.33,.19,2.66,.41,4,.62,.2,.03,.42,.02,.58,.06,1.57,.42,2.68-.07,3.79-.86,2.84-2,4.95-4.68,6.71-7.63,1.31-2.19,2.32-4.57,3.76-6.67,1.39-2.03,1.94-4.66,4.17-6.09,1.03-.66,2.12-1.25,3.18-1.87,.15,.12,.3,.25,.45,.37-.58,2.24-1,4.54-1.79,6.71-1.12,3.09-2.71,6.01-3.75,9.12-1.72,5.14-2.17,10.41-.39,15.66,.35,1.03,.96,1.98,1.58,3.22,.7-.88,1.31-1.53,1.78-2.26,2.54-3.95,4.96-7.99,6.31-12.49,1.23-4.11,1.52-8.44,.24-12.58-1.73-5.58-.13-10.44,2.75-15.02,2.38-3.78,5.82-6.63,9.53-9.34-.27,1.28-.56,2.55-.81,3.83-.81,4.08-1.57,8.17-2.44,12.24-.47,2.2-.38,4.59-2.11,6.43-.67,.71-1.13,1.65-1.58,2.54-.35,.7-.64,1.46-.77,2.22-.22,1.25-.44,1.48-.59,2.82-.36,1.45,.05,2.17-.03,2.72,.6,5.25-.49,10.43-.67,15.88,2.02-.94,3.76-1.96,5.25-3.37,4.04-3.84,5.96-8.71,6.67-14.13,.51-3.88-.13-7.66-.99-11.43-.27-1.16-.29-2.44-.14-3.63,.7-5.47,1.87-10.83,3.49-16.13,1.93-6.33,5.12-12,8.41-17.67,2.37-4.08,4.37-8.36,6.64-12.5,1.88-3.44,3.8-6.87,5.92-10.16,1.4-2.19,4.01-2.86,6.17-4.08,.38-.21,.81-.36,1.14-.63,1.1-.9,2.17-1.25,3.4,.15-.47,.97-1.07,2.02-1.51,3.14-1.88,4.67-3.67,9.37-5.57,14.04-2.41,5.92-5.27,11.62-8.83,16.95-1.82,2.73-4.31,4.73-7.01,6.52-1.15,.76-2.34,1.52-3.29,2.5-2.88,2.95-4.75,6.46-5.29,10.6-.05,.35-.21,.68-.28,1.03-.36,1.81,.32,2.48,2.16,2.36,5.91-.39,9.48-3.79,11.6-9,1.3-3.19,2.4-6.46,3.72-9.65,.71-1.72,2.16-2.88,3.78-4.05,.93,2.28,1.33,4.5,.79,6.8-.59,2.51-1.51,4.94-1.97,7.47-.95,5.26-.62,10.43,2.03,15.62,.98-1.96,1.92-3.68,2.73-5.46,1.95-4.28,3.3-8.75,2.64-13.49-.7-5.01-.69-10.12-2.07-15.06-.37-1.34,.1-2.96,.36-4.42,1.63-8.91,5.32-16.99,9.99-24.67,.67-1.1,1.36-2.2,2.15-3.48,.9,2.46,.75,4.79,.59,7.1-.02,.24-.33,.55-.59,.68-1.28,.64-1.83,1.78-2.3,3.04-.98,2.65-.72,5.33-.12,7.97,.59,2.63,1.29,5.23,2.1,7.8,.58,1.83,1.76,2.04,2.7,.39,1.14-2.02,2.01-4.21,2.76-6.41,1.01-3.01,1.74-6.13,1.25-9.35-.13-.85-.73-1.61-1.09-2.43-.23-.55-.58-1.12-.57-1.68,.03-3.33,.18-6.66,.19-9.99,0-.86,.19-1.55,.98-1.81,1.07-.35,1.84-1.57,3.21-1.06,1.03,.38,2.07,.86,3.14,.98,2.14,.24,4.31,.23,6.46,.41,.5,.04,1.26,.35,1.39,.71,.68,1.88,1.56,3.8,1.71,5.75,.37,4.71,.36,9.44,.52,14.16,.25,7.5,.45,15,.8,22.5,.41,8.82,.41,17.63-.39,26.41Zm1.8-79.33c-1.75-.93-3.47-1.91-5.18-2.92-4.22-2.52-8.21-1.68-12.08,.8-1.55,1-1.57,.96-2.36-.66-.87-1.81-1.92-3.54-2.93-5.28-.87-1.5-1.87-2.94-2.7-4.47-1.78-3.31-4.6-4.92-8.26-5.19-1.23-.09-2.46-.12-3.69-.12-.9,0-1.65,.37-1.95,1.27-.31,.96,.06,1.72,.92,2.21,1.17,.67,1.56,1.79,1.92,3.01,.53,1.78,1.11,3.56,1.91,5.22,.85,1.77,2.38,2.79,4.36,3.16,.88,.17,1.77,.48,2.57,.89,1.43,.74,2.06,2.18,1.76,3.71-.04,.22-.17,.46-.34,.6-2.47,2.03-4.72,4.52-7.51,5.92-2.94,1.47-6.37,2.09-9.8,1.76-.24-.02-.53-.21-.67-.41-1.07-1.61-2.72-2.27-4.48-2.33-2-.07-4.02,.17-6.01,.43-1,.13-1.03,.59-.36,1.35,1.12,1.27,2.23,2.55,3.27,3.89,.75,.97,1.68,1.53,2.86,1.77,.49,.1,.98,.2,1.56,.32-.12,.39-.14,.67-.27,.89-2.13,3.66-4.2,7.36-6.43,10.96-3.83,6.18-9.44,10-16.34,12.06-.87,.26-1.9,.9-2.57,.64-.65-.25-.93-1.45-1.4-2.21-1.05-1.71-2.18-3.35-4.32-3.83-1.54-.35-3-.14-4.34,.71-.8,.5-.82,1.01-.02,1.51,.6,.37,1.28,.63,1.94,.9,1.47,.59,2.6,3.22,1.9,4.62-.15,.29-.59,.5-.93,.61-5.88,1.78-11.76,3.54-17.64,5.31-3.49,1.05-6.98,2.09-10.46,3.2-.84,.27-1.28,.15-1.69-.66-1.67-3.28-2.63-6.69-2.45-10.41,.12-2.55-.85-4.71-2.8-6.42-1.73-1.52-3.67-1.16-5.94-1.59-3-.57-4.02-.9-5.23-1.07-.3-.04-.08-.77,.08-1.06,2.37-4.4,4.6-8.89,7.23-13.12,1.85-2.97,4.24-5.61,6.45-8.34,.37-.46,1.03-.78,1.61-.94,5.29-1.48,9.98-4,13.86-7.95,.5-.5,1.06-.95,1.63-1.36,.56-.41,.97-.28,1.05,.47,.18,1.65,.41,3.31,.5,4.97,.02,.5-.29,1.07-.6,1.51-3.33,4.82-4.75,10.17-4.33,15.98,.13,1.85,.49,3.7,.95,5.49,.6,2.34,.86,4.67,.46,7.06-.04,.22,0,.45,0,.67,.09,.06,.18,.13,.27,.19,1.9-2.05,3.91-4,5.68-6.15,3.46-4.18,4.89-9.16,5.38-14.49,.35-3.78-.35-7.42-1.16-11.07-.79-3.55-1.14-7.14-.45-10.74,.13-.69,.62-1.55,1.2-1.89,4.08-2.41,7.52-5.55,10.75-8.96,.27-.28,.58-.52,.98-.87,.09,.31,.19,.48,.17,.64-.52,4.12-1.02,8.25-1.62,12.36-.08,.55-.51,1.2-.98,1.51-3.44,2.36-4.82,5.68-5.04,9.74-.17,3.08,.22,6.08,.59,9.1,.11,.9,.02,1.83,.14,2.73,.09,.65,.38,1.27,.65,2.09,.47-.4,.71-.55,.88-.75,3.03-3.87,6.27-7.67,7.46-12.58,.48-1.96,.51-4.06,.52-6.1,0-1.57-.53-3.15-.48-4.72,.07-2.16,.38-4.33,.73-6.47,.89-5.29,1.99-10.55,4.81-15.22,4.09-6.76,9.74-11.42,17.78-12.68,.4-.06,.81,0,1.25,.21-.48,.2-1.03,.32-1.43,.63-.3,.23-.41,.7-.6,1.06,.38,.16,.76,.47,1.13,.46,1.66-.04,3.33-.16,4.99-.26,.79-.05,1.58-.1,2.65-.17-.51,.51-.82,.94-1.23,1.22-2.54,1.74-4.69,3.88-6.65,6.24-.4,.48-1.06,.83-1.67,1.06-5.15,1.91-8.51,5.51-10.6,10.57-1.5,3.64-1.79,7.45-2.29,11.25-.04,.26,0,.54,0,.81,7.76-.63,12.39-3.38,15.14-10.37,1.23-3.12,1.93-6.44,2.93-9.65,.18-.56,.56-1.13,1-1.53,2.28-2.06,4.76-3.85,7.64-4.96,1.17-.45,2.41-.69,3.6-1.02,1.26,2.82,3.07,3.19,5.66,2.8,4.2-.63,7.73,.55,11.12,2.79,.57,.38,1.29,.55,1.98,.82,.47,.48,.95,1.15,1.59,1.58,3.97,2.64,6.68,6.35,8.52,10.62,2.34,5.41,4.37,10.96,6.53,16.45,.1,.25,.13,.53,.27,1.17-1-.37-1.82-.57-2.54-.96Zm36.91-198.66c-1.22-3.18-2.94-6.2-1.94-9.83-5.92,4.54-9.02,10.35-8.45,17.81,.14,1.79,.84,3.53,1.19,5.31,.19,.96,.3,1.96,.23,2.93-.14,2.1-.41,4.18-.65,6.27-.06,.49-.19,.97-.29,1.46-.12,.01-.24,.03-.36,.04-.65-2.26-1.39-4.5-1.95-6.79-1.84-7.47-3.66-14.94-5.37-22.43-.27-1.17-.05-2.53,.21-3.74,1.1-5.14-.52-9.52-3.85-13.29-1.82-2.06-4.03-3.79-6.07-5.66-.16-.15-.39-.24-.7-.42-.78,2.83-1.12,5.59-.99,8.41,.21,4.52,2.37,8.17,5.32,11.4,1.29,1.41,2.2,2.86,2.6,4.8,1.07,5.2,2.41,10.33,3.51,15.52,.72,3.37,1.26,6.78,1.76,10.19,.14,.97-.12,2-.23,3.34-.99,.35-3.21-.96-3.55-1.41-6.58-8.47-10.11-14.77-14.55-24.51-1.48-3.26-7.84-10.01-7.44-13.68,.6-5.57-2.12-8.35-2.94-9.64-1.75-2.77-7.66-3.07-12.1-3.79-4.8-.68-12.17,.2-12.17,.2,0,0,3.84,7.34,5.63,9.06,2.18,2.08,5.52,5.05,10.39,5.25,1.66,.07,4.75-.87,6.38-.59,.47,.08,4.22,6.8,4.49,7.26,4.7,8.28,9.32,16.59,14.04,24.86,3.17,5.54,6.92,10.64,11.71,14.92,3.36,3,4.92,6.94,5.78,11.21,.57,2.84,1.66,5.46,3.22,7.88,2.64,4.09,3.92,8.61,4.53,13.4,.5,3.93,1.21,7.83,1.82,11.75,.09,.59,1.69,6.33,1.1,10.36-1.96-1.12-3.13-2.4-3.51-4.39-.56-3-.95-6.12-2.99-8.55-1.26-1.49-2.77-2.83-4.38-3.94-1.61-1.11-3.48-.81-5.4,.06,1.96,1.98,1.29,4.44,1.35,6.76,.07,2.74-.02,5.49,1,8.1,.25,.64,5.44,2.76,7.25,3.7,.88,.46,1.79,.87,2.64,1.37,3.04,1.78,3.71,3.58,3.19,7.07-.53,3.56-.86,7.16-1.07,10.75-.14,2.41,.19,4.84,.14,7.25-.16,7.09-2.64,13.4-6.79,19.08-1.02,1.4-2.11,2.75-3.29,4.29-.56-.78-1.03-1.35-1.42-1.97-2.99-4.73-5.58-9.67-6.21-15.3-.32-2.81-.27-5.75,.18-8.53,.94-5.77,.7-11.42-.36-17.14-.42-2.28-.34-4.78,.1-7.07,.96-4.98,.69-9.79-1.04-14.52-1.14-3.12-1.4-6.33-1.17-9.6,.4-5.64-3.76-10.97-7.58-14.3-.21,.91-.5,1.71-.58,2.53-.33,3.18-.8,6.37-.85,9.57-.04,3,1.53,5.33,3.98,7.09,.57,.41,1.05,1.08,1.31,1.74,2.02,5.21,1.97,10.62,1.49,16.07-.01,.15-.08,.29-.18,.67-.54-.54-.99-.95-1.39-1.4-2.69-2.99-4.63-6.42-6.15-10.12-2.08-5.06-4.39-10.02-6.27-15.15-2.4-6.53-3.04-13.36-2.51-20.28,.08-1.09,.62-2.2,1.16-3.18,3.85-6.96,2.43-14.26-3.43-19.75-2.49,2.79-3.6,5.99-3.22,9.58,.28,2.63,.91,5.23,1.28,7.85,.17,1.24,.31,2.55,.07,3.76-.83,4.17-1.14,8.33-.36,12.53,.05,.27,.04,.55,.09,1.17-.59-.66-1.02-1.08-1.37-1.54-3.59-4.77-6.6-9.9-9.14-15.3-.51-1.09-.44-2.47-.59-3.72-.45-3.96-2.42-7.24-4.58-10.45-.21-.32-.43-.63-.78-1.13,.89-.31,1.6-.64,2.35-.81,4.78-1.1,8.43-3.66,10.79-8.05,1.27-2.36,2.06-2.61,4.67-1.96,.27,.07,.54,.12,1.07,0-.3-.48-.63-.94-.9-1.43-.31-.56-.81-1.14-.8-1.71,.06-6.14-5.7-8.4-10.06-6.26-.72,.35-1.28,.35-2,.03-2.19-.97-4.46-1.26-6.85-.67-.93,.23-1.96,.13-2.94,.09-1.39-.06-2.68,.16-3.85,.97-.28,.2-.64,.29-.98,.4-1.52,.52-3.22,.76-4.53,1.61-2.71,1.76-5.54,1.64-8.48,1.17-1.25-.2-2.5-.34-3.78-.51,.15,2.01,.84,2.78,2.65,3.05,.43,.07,.86,.12,1.3,.19,1.3,.21,1.44,.48,.84,1.8,1.71,.68,4.19-.42,5.14,2.26,1.32-.77,2.09,.12,2.91,.98,2.81,2.99,4.27,6.44,4.32,10.62,.06,4.35,1.23,8.5,3.87,12.04,1.05,1.4,2.51,2.51,3.87,3.66,.89,.75,1.92,1.33,2.7,1.86,.41,.85,.76,1.63,1.14,2.4,1.09,2.17,2.2,4.33,3.12,6.69-3.42-1.38-6.42-3.64-10.25-3.4-3.65,.23-7.2,.9-10.94,2.36,1.96,1.82,3.7,3.46,5.47,5.06,2.84,2.58,6.45,3.38,9.99,4.48,3.08,.96,6.19,1.49,9.35,2.06,4.53,.82,8.52,2.87,10.2,7.85,1.64,4.84,3.59,9.58,5.4,14.37,.08,.22,.11,.47,.21,.68,.31,.71,.05,1.34-.55,1.59-.32,.13-.96-.19-1.29-.5-1.46-1.37-1.82-3.3-2.42-5.09-1.38-4.15-3.76-7.48-7.63-9.65-1.96-1.1-3.86-1.12-5.74-.06,.52,1.05,1.22,2.06,1.51,3.17,.45,1.75,.52,3.6,.94,5.37,.38,1.61,.87,3.22,1.55,4.72,1.04,2.31,2.96,3.72,5.27,4.73,2.72,1.18,5.38,2.49,8.04,3.8,1.21,.59,2.4,1.24,3.53,1.97,4.76,3.08,6.22,6.41,4.76,11.85-1.27,4.75-1.16,9.46-.57,14.26,.45,3.66,.52,7.36,.8,11.03,.05,.66,.34,1.3,.35,1.95,0,.62-.21,1.25-.31,1.88-.19,1.25-.42,2.5-.52,3.75-.2,2.61-.32,5.22-.47,7.83-.01,.23-.04,.46-.06,.69-.1,.02-.2,.05-.31,.07-.37-1.36-.76-2.72-1.11-4.09-2.08-8.31-4-16.65-6.26-24.91-1.97-7.2-4.57-14.21-8.27-20.73-6.24-11.01-15.37-18.83-26.93-23.9-4.81-2.11-9.71-3.9-14.79-5.21-1.66-.43-2.47-1.81-3.29-3.1-1.34-2.13-1.69-4.57-2.1-7-.61-3.67-1.42-7.31-1.99-10.99-.65-4.18-1.12-8.39-1.67-12.59-.08-.59-.22-1.16-.3-1.75-.25-1.76-.48-3.48,.32-5.24,2.11-4.64,2.59-9.61,2.56-14.64-.03-3.97-.1-7.94-.27-11.9-.06-1.45-.37-2.91-.77-4.3-.5-1.72-1.3-1.86-2.46-.45-.74,.91-1.46,1.92-1.87,3.01-1.54,4.07-3.14,8.14-4.36,12.31-1.36,4.65-.98,9.28,.86,13.86,.94,2.35,1.23,4.97,1.82,7.46,.2,.86,.41,1.71,.61,2.57,.03,.14,.09,.34,.02,.42-.74,.89-.12,1.7,.25,2.42,.51,.99,.74,1.81-.22,2.64-.12,.1-.06,.44-.07,.66,0,.54,0,1.08,0,1.62l-.36,.1c-.6-1.08-1.21-2.16-1.79-3.25-3.12-5.85-6.39-11.6-10.58-16.77-1.04-1.29-1.3-2.6-1.2-4.28,.19-3.04-.07-6.1-.05-9.16,0-.8,.11-1.76,.55-2.37,3.68-5.08,4.62-10.9,4.61-16.94,0-2.68-.36-5.37-.67-8.03-.13-1.09-.42-2.37-1.67-2.66-1.34-.3-2.33,.73-2.89,1.73-1.45,2.59-2.81,5.23-3.97,7.96-1.71,4.03-1.64,8.1-.18,12.3,1.2,3.46,1.07,7.04-.68,10.41-.16,.31-.37,.59-.65,1.03-.48-.43-.91-.76-1.26-1.15-3.96-4.45-7.1-9.45-9.51-14.87-.72-1.61-.73-3.54-1.05-5.33-.25-1.4-.42-2.82-.7-4.22-.15-.78,.05-1.3,.72-1.7,4.21-2.54,8.38-5.15,12.63-7.6,3.4-1.96,6.85-3.86,10.38-5.55,4.99-2.4,10.02-4.75,15.17-6.79,2.23-.88,5.17-2.13,7.44-3.05,3.14-1.28,9.86-3.24,13.97-4.49,2.73-.83,5.4-1.85,8.16-2.55,3.88-.98,7.78-1.88,11.72-2.57,5.34-.94,10.71-1.72,16.09-2.44,6.74-.91,11.71-1,18.49-1.45,4.38-.29,7.86-.33,13.78,.4-.43-.31,9.03,1.25,11.33,2,1.07,.35,.64,1.13,.63,1.75-.02,1.62-.43,5.23-.2,6.8,.51,3.43,1.35,4.88,2.03,8.29,.09,.46,.24,.9,.36,1.35-.06,.03,1.04,2.39,.04,4.68-1.71-1.06-2.6-2.34-3.36-3.73-1.34-2.47-2.57-5.01-4.04-7.4-.73-1.19-1.56-2.52-2.82-3.18-.98-.52-4.03-1.76-5.6-1.93-.04-.08-3.86-.89-4.51-.75-.04,0,.09,.01,.13,.02-.99-.13-2.01-.16-3.01-.05-.23,.04-.45,.09-.67,.16-.08,.03-.19,.05-.29,.06-.02,0-.05,0-.07,.01-.07,0-.13,.03-.22,.03-.97,0-1.22,.52-1.09,1.38,.9,6.29,4.13,10.88,9.98,13.49,1.59,.71,3.21,1.42,4.9,1.85,3.5,.9,6.03,3.24,8.71,5.4,3.69,2.98,5.32,7.1,6.15,11.51,.73,3.88,1.11,7.84,1.39,11.79,.4,5.42,.57,10.86,.83,16.28,.29,6.13-.67,12.1-2.41,17.96-.43,1.43-.81,2.87-1.24,4.4-1.63-1.04-2.37-2.36-2.37-4.13,0-1.79,.12-3.59-.12-5.35-.51-3.73-3.01-5.86-6.4-7.35-.99,2-1.58,4.07-1.78,6.23-.38,4,.66,7.56,3.52,10.47,1.51,1.53,1.61,3.46,1.69,5.42,.07,1.66,.03,3.35,.3,4.98,.18,1.1,.6,2.27,1.26,3.15,1.89,2.55,2.59,5.26,1.57,8.29-1.49,4.39-3.05,8.75-4.59,13.12-.06,.18-.2,.33-.44,.71-.3-.86-.54-1.55-.79-2.24-2.33-6.43-3.49-13.17-5.2-19.76-.87-3.36-2.17-6.63-3.5-9.85-2.11-5.11-2.9-10.34-2.18-15.83,.39-2.95,.58-5.92,.93-8.87,.07-.59,.34-1.26,.74-1.69,5.23-5.65,6.06-12.1,3.37-19.1Zm5.7,145.74c-.26-.96-.52-1.91-.78-2.87-1.6-5.91-.52-11.63,1.16-17.33,1.18-3.99,1.57-8.09,1.15-12.24-.37-3.63,1.15-6.74,1.74-10.4,.46-2.78,.58-4.73,1.42-7.47,1.54-5.02,.07-9.97,1.72-14.81,1.14-3.33,1.76-6.83,2.8-10.2,.53-1.73,1.38-3.37,2.22-4.99,.96-1.84,2.45-3.07,4.56-3.5,2.67-.55,5.18-1.47,7.33-3.24,3.7-3.06,5.6-7.07,6.47-11.94-1.84,.1-3.59,.04-5.27,.33-1.78,.31-3.52,.89-5.24,1.48-1.81,.61-2.97,2.02-4.03,3.55-.45,.65-1.17,1.11-1.77,1.66-.17-.09-.34-.18-.52-.27,.13-2.36,.14-4.72,.4-7.06,.52-4.63,2.17-8.93,4.21-13.07,.35-.71,1.08-1.38,1.8-1.75,4.64-2.41,8.83-5.34,11.78-9.77,2.05-3.07,2.83-6.42,2.06-10.33-1.19,.38-2.38,.64-3.46,1.13-3.08,1.38-6.17,2.81-8.19,5.7-.6,.86-1,1.89-1.41,2.87-.45,1.07-1.07,1.9-2.53,2.21,.17-1.23,.4-2.3,.44-3.38,.13-3.09,.25-6.18,.26-9.28,0-1.01-.01-2.68,.08-3.69,.4-4.27,1.89-5.39,3.21-7.56,1.48-2.43,2.16-4.48,3.59-6.75,1.18-1.88,2.58-3.62,3.82-5.46,.63-.94,1.46-1.47,2.5-1.87,7.9-3.03,12.66-12.44,10.36-20.42-.04-.15-.11-.29-.27-.72-1.48,.55-3.01,.95-4.38,1.67-3.41,1.79-6.59,3.91-8.06,7.71-.45,1.16-.51,2.48-.84,3.7-.29,1.09-.51,2.27-1.09,3.2-3.25,5.26-6.61,10.46-9.93,15.67-.12,.18-.32,.31-.67,.63-.37-2.14-.74-4.08-1.05-6.03-.82-5.07-1.12-10.2-.78-15.31,.13-2,1.02-3.97,1.69-5.91,1.53-4.39,2.98-8.93,2.08-13.54-.45-2.32-1.8-3.25-1.76-3.69,1.06,.17,7.81,1.93,8.57,2.13,3.99,1.05,8,2.01,11.95,3.17,5.06,1.49,10.1,3.05,15.08,4.77,3.78,1.31,7.51,2.79,11.17,4.41,4.95,2.18,9.81,4.57,14.72,6.84,.78,.36,1.03,.71,.69,1.62-1.51,4.07-2.5,8.27-2.98,12.59-.34,3.05-2.35,4.88-4.7,6.63-1.18-1.68-1.26-3.38-.86-5.19,.48-2.17,1.09-4.32,1.38-6.51,.57-4.32-.67-8.08-4-11.04-.26-.23-.56-.4-.9-.64-4.35,5.93-5.27,12.24-2.64,19.05,.63,1.63,1.33,3.23,1.88,4.88,.48,1.43,.3,2.9-.68,4.07-3.14,3.73-5.36,7.94-6.91,12.53-.08,.24-.26,.45-.7,.7-.17-.65-.51-1.3-.49-1.95,.05-1.94,.21-3.88,.37-5.81,.35-4.23,.12-8.34-2.47-11.97-1.5-2.1-3.42-3.69-5.49-4.7-.31,1.59-.37,3.25-.98,4.68-1.41,3.34-1.37,6.75-.87,10.19,.53,3.63,1.36,7.25,3.87,10.08,1.43,1.61,2.07,3.42,2.45,5.43,.45,2.34,.29,4.56-.58,6.87-2.38,6.32-5.09,12.48-8.16,18.48-.2,.38-.42,.76-.77,1.4-.65-1.7-1.32-3.08-.9-4.8,.9-3.72,.91-7.42-1.04-10.86-.63-1.12-1.55-2.08-2.45-3.25-1.73,2.44-2.94,4.86-3.41,7.58-.9,5.14,.18,9.87,3.25,14.09,1.3,1.79,1.23,3.66,.81,5.67-.6,2.88-2.63,4.85-4.39,6.96-3.92,4.73-7.93,9.38-11.93,14.05-4.81,5.62-7.33,12.28-8.72,19.43-1.84,9.44-4.23,18.72-7.4,27.8-2.67,7.67-5.26,15.38-7.88,23.07-.1,.28-.25,.55-.37,.82-.12,.01-.23,.03-.35,.04Zm3.54,47.9c1.72-3.83,3.35-7.71,5.33-11.41,2.89-5.4,7.39-9.16,12.97-11.62,2.24-.99,4.51-1.95,6.83-2.75,1.31-.45,2.61-.53,4.11,.11,1.99,.85,4.25,1.07,6.41,1.5,.36,.07,.9,0,1.13-.24,.85-.86,1.61-.45,2.28,.12,1.74,1.48,3.51,2.95,5.09,4.6,.52,.54,.53,1.6,.69,2.44,.61,3.27,1.05,6.58,1.79,9.82,.96,4.18,3.65,7.23,7.24,9.32,1.78,1.04,3.97,1.39,5.97,2.05,.13-.11,.26-.23,.4-.34-.14-3-.18-6-.44-8.99-.26-2.99-1.27-5.8-2.67-8.45-1.56-2.95-3.96-5.01-6.89-6.52-.6-.31-1.21-.82-1.56-1.4-2.45-4.08-5.78-7.21-9.93-9.49-.12-.07-.22-.18-.53-.43,2.29-.07,4.26-.66,6.29,.79,1.12,.8,2.96,.55,4.43,.93,1.78,.46,3.53,.75,5.38,.34,.46-.1,1.08,.19,1.54,.45,6.62,3.69,11.13,9.18,13.14,16.46,1.04,3.76,1.29,7.73,2.08,11.57,.68,3.31,.24,6.53-.27,9.79-.6,3.78-.06,7.5,1.71,10.87,1.58,3.01,3.55,5.82,5.36,8.71,.12,.19,.34,.3,.56,.49,.9-.65,1.06-1.58,1.08-2.52,.04-1.43-.1-2.86,.02-4.28,.19-2.17,.58-4.32,.81-6.49,.46-4.24-.84-7.81-4.14-10.61-.47-.4-.84-1.06-1.01-1.67-1.12-4.06-1.5-9.87-.83-13,.83,.99,1.51,1.8,2.05,2.45,.63,.95,1.8,1.73,2.91,2.94,.73,.55,1.31,.99,1.9,1.43,1.43,1.07,2.8,2.22,4.29,3.19,.88,.57,1.34,1.23,1.49,2.26,.61,4.16,.18,8.23-.98,12.24-1.49,5.13-1.69,10.26-.48,15.5,1.44,6.26,5.35,10.84,9.89,15.33,.03-.4,.09-.61,.06-.8-.39-2.72-.1-5.35,.78-7.97,2.45-7.35,1.51-14.33-2.62-20.84-.87-1.38-.75-2.57-.3-3.93,.28-.85,.66-.87,1.27-.3,.95,.9,1.9,1.79,2.9,2.63,.3,.25,.76,.33,1.14,.48,.12-.47,.28-.94,.33-1.43,.03-.25-.13-.52-.28-1.05,.68,.4,1.19,.66,1.66,.98,2.56,1.79,5.28,3.28,8.3,4.06,2.48,.64,3.89,2.45,5.4,4.23,3.76,4.42,5.82,9.68,7.48,15.14,.29,.95,.63,1.88,.95,2.82,.6,1.72,.16,2.78-1.57,3.47-.52,.2-1.16,.21-1.72,.15-.94-.11-1.86-.46-2.8-.52-4.55-.28-8.04,3.29-7.99,8.22,.02,2.11,.08,4.22-.72,6.22-.55,1.36-1.18,2.68-1.75,4.03-.29,.68-.67,.81-1.4,.6-9.39-2.78-18.76-5.59-27.89-9.15-.42-.16-.88-.83-.91-1.29-.15-2.35,.64-3.29,2.9-4.02,.69-.22,1.29-.72,1.97-1.12-1.93-2.46-6.11-2.46-8.08-.13-.86,1.01-1.46,2.25-2.11,3.42-.29,.53-.58,.83-1.2,.58-6.2-2.48-12.25-5.25-16.28-10.88-1.79-2.5-3.12-5.32-4.62-8.02-.25-.46-.31-1.02-.5-1.71,.61,.05,1.04,.06,1.46,.12,1.07,.15,2.05,.11,3.1-.39,.73-.35,1.72-.18,2.59-.15,.83,.02,1.65,.2,2.48,.22,.22,0,.53-.25,.68-.47,.81-1.23,1.67-1.42,2.76-.57,2.05-1.6,3.07,.41,4.42,1.28,0-.12,.01-.24,.02-.37,.36-.06,.8-.28,1.06-.15,2.09,1.06,3.8,2.56,5.1,4.53,.36,.54,.75,1.07,1.2,1.7,.6-1-.66-2.63,1.38-2.73-.48-2.01-1.79-3.29-3.33-4.36-1.2-.84-2.51-1.54-3.66-2.43-2.36-1.81-3.47-4.49-4.59-7.11-1.91-4.47-4.69-8.37-8.14-11.69-1.76-1.69-3.67-3.13-4.99-5.28-.55-.91-1.81-1.54-2.89-1.93-1.56-.57-3.07-.19-4.16,1.19-.62,.79-1.31,1.31-2.4,1.27-.43-.01-.87,.41-1.3,.64-.03,.14-.06,.28-.09,.43,.78,.45,1.59,.85,2.33,1.36,.4,.28,.94,.72,.97,1.13,.09,1.18,.13,2.41-.13,3.55-.7,3.07-.66,6.06,.42,9.02,.07,.18,.11,.38,.15,.57,.01,.07-.02,.15-.08,.58-1.72-.29-3.5-.41-5.16-.91-4.78-1.44-8.33-4.64-11.42-8.41-.76-.92-.33-3.06,.83-3.69,.87-.48,1.91-.81,2.9-.9,2.88-.26,5-1.8,5.92-4.55,.3-.9,.59-1.81,.82-2.73,.38-1.52,1.04-2.79,2.48-3.59,.83-.46,1.38-1.15,1.1-2.26-.29-1.15-1.17-1.37-2.09-1.37-1.98,0-3.99-.05-5.94,.25-2.79,.42-4.75,2.21-6.28,4.51-1.03,1.54-2.16,3.03-3.18,4.58-1,1.52-1.91,3.1-2.85,4.65-.22,.37-.41,.76-.69,1.27-.99-.65-1.93-1.21-2.82-1.84-3.57-2.56-7.28-2.61-11.12-.68-1.88,.95-3.75,1.9-5.64,2.83-.52,.25-1.07,.43-1.61,.65-.11-.08-.22-.16-.33-.24,.95-2.3,1.85-4.63,2.87-6.9Zm93.62,8.06l.31-.26c1.38,1.29,2.75,2.57,4.36,4.08-2.78-.64-4.75-2.34-4.67-3.81Zm-20.73,70.72c.39,.29,.6,.39,.74,.56,2.82,3.55,4.56,7.53,4.58,12.11,0,1.32-.44,2.64-.69,3.97-.3,1.63-.61,3.26-.92,4.91-1.08,.01-2.45-.94-2.74-2.03-.61-2.31-1.58-4.38-3.47-5.96-.36-.3-.6-.85-.72-1.33-1.53-6.32-3.02-12.65-4.52-18.97-.05-.22-.05-.46-.09-1,1.96,1.67,4.48,2.75,4.33,5.44-.1,1.8,.87,2.86,1.43,4.24,.4,.98,1.05,1.53,2.45,1.67-.13-1.19-.24-2.26-.38-3.6Zm-2.33-10.06c-4.1-3.41-8.13-6.86-10.8-11.58-.58-1.02-1.1-2.07-1.81-3.41,1.53,.46,2.71,.77,3.84,1.17,.8,.29,1.37,.15,2.07-.36,.49-.36,1.37-.64,1.9-.45,4.11,1.45,8.18,3.01,12.26,4.55,2.19,.83,3.13,2.55,3.3,4.79,.25,3.36,.43,6.73,.77,10.08,.18,1.83,.63,3.63,.96,5.45-.1,.04-.19,.08-.29,.13-.12-.22-.25-.43-.35-.66-.3-.65-.68-1.1-1.52-1-.34,.04-.81-.14-1.07-.37-3.09-2.77-6.06-5.68-9.25-8.34Zm48.16,36.41c-3.96,3.54-7.79,7.24-11.9,10.6-6.27,5.12-12.89,9.8-19.84,13.96-8.93,5.34-18.1,10.23-27.83,13.97-7.06,2.72-14.2,5.26-21.32,7.82-1.64,.59-3.35,.98-5.02,1.46-2.53,.73-4.87-.23-7.21-.89-6.74-1.9-12.07-5.8-15.68-11.78-1.53-2.53-2.6-5.34-3.74-8.09-3.47-8.41-5.25-17.26-6.73-26.2-1.49-8.99-2.53-18.03-2.25-27.12,.28-9,1.01-17.98,1.65-26.97,.34-4.83,.94-9.63,1.36-14.45,.43-4.86,.67-9.74,1.25-14.58,.23-1.87,1.05-3.71,1.85-5.45,.33-.71,1.43-1.03,2-1.68,.78-.9,1.17-.47,1.79,.17,.6,.62,3.33,.42,4.2,.95,1.57,.96,3.32,1.23,5.04,.02,.38-.26,1.23-.27,1.59-.02,.37,.27,.56,1.01,.53,1.53-.16,3.52-.38,7.04-.61,10.56-.03,.46-.07,1.05-.36,1.33-1.9,1.82-1.98,4.2-1.64,6.45,.53,3.55,1.42,7.05,2.26,10.55,.21,.86,.73,1.68,1.24,2.42,.8,1.16,1.46,1.16,2.1-.08,.65-1.26,1.17-2.6,1.6-3.95,1.02-3.22,1.88-6.47,1.78-9.9-.07-2.35-.21-4.63-2.52-6.06-.22-.14-.39-.53-.41-.81-.17-2.37,.37-4.62,1.37-6.91,.53,1.07,1.14,2.11,1.59,3.21,3.62,8.99,6.29,18.2,6.66,27.97,.05,1.44-.29,2.71-.82,4.02-2.39,5.94-4.25,12.05-4.79,18.44-.28,3.32,.56,6.62,1.45,9.84,.4,1.45,.88,2.88,1.37,4.47,1.6-1.66,2.51-3.61,3.24-5.64,1.6-4.48,1.65-9.09,1.03-13.74-.41-3.08-.89-6.16,.8-9.05,.2-.34,.4-.67,.68-1.14,1.43,1.44,2.65,2.93,3.14,4.77,.74,2.79,1.27,5.64,1.8,8.48,.67,3.58,1.82,6.89,4.59,9.46,1.83,1.69,3.98,2.55,6.42,2.81,.94,.1,1.41-.21,1.45-1.17,.24-5.65-.85-11.03-5.14-14.92-4.68-4.25-7.42-9.44-9.53-15.24-2.77-7.64-4.54-15.52-6.28-23.42-.36-1.62-.87-3.2-1.37-5.04,2.81,.27,6.55,1.75,6.63,.68,.48,.46,.96,.88,1.38,1.35,2.57,2.84,4.12,6.29,5.66,9.73,2.79,6.23,5.78,12.36,9.36,18.18,5.37,8.71,8.67,18.14,10.27,28.21,.07,.47,.15,.95,.3,1.39,.88,2.57,.59,5.16,.17,7.76-1.25,7.8,.94,14.7,5.61,20.88,1.3,1.72,3.23,2.75,5.18,3.65,.85,.39,1.71,.75,2.83,1.24-.16-1.3-.28-2.32-.44-3.59,.95,1.14,1.73,2.1,2.52,3.05,.04-1.39-.04-2.72,1.24-3.65,1.55,2.59,3.13,5.23,4.92,8.2,.62-1.19,1.19-2.06,1.56-3.02,1.45-3.76,1.6-7.64,1.11-11.6-.55-4.45-2.6-8.38-4.08-12.51-.93-2.59-1.48-5.33-2.19-8-.02-.09,.06-.21,.12-.4,1.54,1.03,2.12,2.64,2.82,4.15,.88,1.89,1.64,3.84,2.5,5.75,1.09,2.4,2.23,4.79,3.37,7.17,.26,.53,2.77,3.11,6.23,4.38,.4,.15,.66,.59,1.05,.74,2.95,1.14,5.95,1.36,8.91,.09,.32-.14,.58-.88,.56-1.32-.27-4.55-1.79-8.64-4.5-12.33-2.34-3.18-5.66-4.89-9.05-6.56-.88-.43-1.75-.89-2.53-1.56,1.31,.43,2.62,.87,4.3,1.43,0-2.16,.15-4.09-.03-5.99-.32-3.4-1.04-6.74-2.93-9.68-.28-.44-1.8-2.29-1.57-2.28-.04-.12-.04-.25-.11-.34-1.09-1.51-2.13-3.06-3.31-4.5-1.79-2.17-2.47-3.81-2.14-5.94,1.82,.54,3.33,1.15,4.9,1.75,1.11-.13,2.4,.52,2.5,.55,1.32,.38,2.63,.81,3.94,1.22,1.37,.43,2.73,1.1,4.13,1.22,1.96,.16,3.34,.81,4.2,2.65,1.85,3.95,3.65,7.93,5.74,11.75,1.4,2.55,2.35,4.99,2.34,8.01,0,2.34,1.03,4.68,1.59,7.02,.18,.76,.13,1.62,.46,2.3,1.03,2.14,1.84,4.44,3.65,6.12,.65,.6,.62,1.1-.03,1.67Zm-32.09-19.75l.28-.34,3.29,2.56-.21,.28c-1.12-.83-2.24-1.67-3.36-2.5Zm47.25,3.6c-1.29,1.31-2.9,2.31-4.33,3.41-.99-1.64-1.83-3.15-2.79-4.6-1.79-2.7-4.27-4.51-7.46-5.08-1.93-.35-3.25-1.24-4.11-2.96-1.46-2.94-2.95-5.87-4.41-8.81-.15-.3-.17-.67-.28-1.13,1.84,.66,3.77-.25,3.77-.25,1.94,.7,3.91,1.34,5.82,2.12,.66,.27,1.13,.99,1.79,1.29,1.82,.85,3.7,1.57,5.55,2.36,1.05,.45,2.09,.91,3.11,1.42,1.08,.54,1.75,1.45,2.3,2.51,.64,1.24,1.24,2.53,2.09,3.62,.51,.65,1.47,.95,2.49,1.57-1.14,1.49-2.2,3.16-3.55,4.53Zm31.41-49.53c-3.76,8.68-8.53,16.83-13.3,24.97-1.18,2.02-2.5,3.96-3.8,5.9-.93,1.39-1.22,1.45-2.71,.69-1.59-.81-3.12-1.74-4.72-2.52-2.46-1.19-5.03-1.84-7.66-.58-.91,.44-1.68,1.18-2.48,1.82-.55,.44-1.01,.48-1.72,.22-5.42-2.02-10.85-4.01-16.31-5.92-2.21-.78-2.26-.77-1.19-2.91,1-2,2.51-3.44,4.51-4.41,1.5-.72,3.06-1.35,4.51-2.16,1.1-.61,2.12-1.38,3.08-2.19,1.03-.87,1.39-.92,2.4,.04,.55,.52,1.09,1.05,1.66,1.54,1.77,1.52,2.58,1.29,3.29-.93,2.21,1.47,4.44,2.95,6.73,4.48,2.18-7.69,1.32-15.42-4.19-20.58-2.04-1.92-4.39-3.51-6.61-5.23-2.42-1.88-4.47-4.98-4.79-7.38,.22,.06,.4,.1,.69,.18-.04-.32-.08-.58-.11-.84,1.56,1.98,3.78,1.56,5.81,1.78,.62,.07,1.24,.2,1.86,.34,2.36,.52,4.73,1.01,7.06,1.62,1.18,.31,2.35,.75,3.42,1.31,3.3,1.74,6.8,2.77,10.48,3.28,2.47,.34,4.94,.72,7.39,1.17,.48,.09,1.06,.48,1.3,.9,.58,1.05,1.46,1.1,2.44,1.02,1.53-.12,3.05-.27,4.93-.43-.7,1.72-1.3,3.29-1.97,4.84Zm15.1-48.45c-1.49,7.13-3.21,14.22-5,21.29-.88,3.49-2.16,6.88-3.23,10.33-.26,.84-.51,1.16-1.49,.64-2.96-1.6-5.97-3.1-8.99-4.59-4.66-2.3-9.49-2.49-14.13-.28-3.18,1.52-6.18,1.63-9.49,.79-6.6-1.67-13.3-2.96-19.85-4.78-5.77-1.6-10.93-4.64-15.81-8.09-.18-.12-.3-.31-.64-.67,2.33,.17,4.41,.34,6.5,.47,4.58,.3,9.07-.39,13.33-1.96,2.2-.81,4.34-.68,6.43-.35,5.13,.8,10.23,1.88,15.32,2.94,1.22,.25,2.35,.94,3.57,1.27,1.94,.52,3.89,1.07,5.87,1.28,2.43,.25,4.51-.8,6.14-2.59,1.22-1.35,2.38-2.76,3.47-4.22,1.05-1.41,.72-2.59-.77-3.54-2.85-1.8-5.94-2.2-9.01-.47-1.2,.68-2.33,1.51-3.43,2.36-.92,.72-1.87,1.02-3.06,1.05-5.5,.12-10.66-1.42-15.81-3.05-.82-.26-.82-.63-.38-1.31,3.47-5.31,6.94-10.63,10.34-15.98,.69-1.08,1.41-1.6,2.76-1.54,2.33,.1,4.69-.14,6.93,.77,1.13,.46,2.25,1.03,3.43,1.29,1.73,.37,3.51,.5,5.27,.72,.55,.07,1.11,0,1.65,.11,3.92,.76,7.31-.24,10.14-3.05,1.51-1.5,2.99-3.02,4.53-4.57-2.31-2.49-4.92-4.01-7.71-5.3-2.31-1.07-4.71-1.68-7.25-1.57-3.47,.16-5.82,2.17-7.85,4.78-.7,.9-1.67,1.67-2.66,2.26-1.57,.94-3.81,.57-5.04-.74-.22-.23-.24-.94-.05-1.2,1.63-2.2,3.29-4.37,5.03-6.48,.45-.55,1.18-.92,1.85-1.22,3.87-1.68,7.45-3.73,9.87-7.36,1.51-2.26,2.27-4.73,2.54-7.44,.25-2.54,.45-5.15,2.07-7.48-4.05,.23-7.71,1.35-11.2,2.95-3.96,1.82-7.06,4.61-8.91,8.69-.9,1.98-.78,3.94-.26,5.92,.21,.82,.08,1.4-.44,2.06-6.1,7.88-11.65,16.13-16.24,25-3.35,6.49-8.57,10.37-15.98,10.99-6.82,.57-13.46-.09-19.83-2.77-4.29-1.8-7.79-4.75-11.12-7.85-2.31-2.15-4.38-4.59-6.46-6.98-.39-.45-2.38-2.45-4.04-3.47-4.38-6.06-9.43-11.17-15.59-15.59,2.52-1.04,4.47-2.26,7.01-1.52,6.18,1.82,9.45-2.11,11.57-6.85,.08-.18,.13-.37,.2-.56,1.08-2.93,.76-3.8-2.16-4.89-1.27-.47-1.49-1.17-1.24-2.34,.54-2.46,1.22-4.83,2.84-6.85,.68-.85,1.37-.99,2.26-.45,.88,.53,1.77,1.04,2.64,1.6,.68,.44,1.34,.5,1.99,0,1-.77,2.01-.55,3-.02,2.12,1.14,3.63,2.9,4.91,4.9,2.87,4.47,4.58,9.41,5.65,14.56,.83,3.99,1.61,8.02,2.03,12.07,.26,2.44-.22,4.96-.35,7.45-.23,4.35,.69,8.38,3.45,11.83,1.8,2.24,4.23,3.38,7.24,3.64,.13-.64,.31-1.24,.36-1.86,.26-3.41,.48-6.83-.83-10.1-.44-1.09-.98-2.21-1.73-3.1-1.72-2.05-2.62-4.4-3.05-6.98-.5-2.95-1.04-5.9-1.55-8.78,1.9,1.34,3.65,2.58,5.62,3.96,.21-.85,.35-1.43,.53-2.16,1.41,1.01,2.58,2.06,3.04,3.72,1.53,5.56,4.43,10.14,9.5,13.16,2.35,1.4,5.39,2.38,8.41,2.61,.86-2.19,1.17-4.52,.88-6.83-.73-5.91-3.4-10.78-8.34-14.22-2.39-1.67-5.06-2.39-8.02-1.8-.45,.09-1.14-.16-1.48-.49-3.25-3.19-6.56-6.33-9.63-9.68-3-3.28-5.6-6.89-7.64-10.87-.13-.25-.23-.5-.32-.77-.05-.14-.04-.3-.08-.62,1.36-.14,2.68-.22,3.99-.43,5.56-.89,11.11-1.82,16.66-2.74,.89-.15,1.76-.34,2.64-.51,0,.1,3.5-.25,4.53,.88,0,0,1.78,1.35,2.79,2.78,1.54,2.2,2.69,4.67,4.02,7.02,1.28,2.26,2.79,4.35,5.46,4.99,1.6,.39,3.29,.36,4.94,.55,.54,.06,1.06,.22,1.75,.36,.58-.31,1.37-.85,2.23-1.15,2.06-.73,2.22-.7,1.95-2.83-.29-2.21-.57-4.51-1.41-6.55-1.91-4.63-5.49-7.15-10.61-7.24-1.35-.02-2.7,.04-4.05-.05-1.81-.12-3.32-.88-4.52-2.48,.37-.16,.6-.31,.85-.36,5.7-.99,11.42-1.91,17.11-3,1.56-.3,2.6,.35,3.67,1.16,1.9,1.43,4.1,1.81,6.39,1.88,.75,.02,1.27,.22,1.83,.8,1.87,1.94,3.84,3.78,5.8,5.62,2.01,1.88,4.58,2.54,7.15,3.18,2.68,.66,5.34,1.38,8.04,1.96,2.2,.47,4.43,.69,6.5-.49,.13-1.67,.32-2.08,1.37-2.56,.22,1.68,.55,3.3,.63,4.93,.34,6.9,.81,13.8,.83,20.7,.02,8.18-.86,16.33-2.54,24.34Z" style="fill:none; stroke:#a3d1d9; stroke-miterlimit:10; stroke-width:2px;"/><ellipse cx="133.1" cy="157.92" rx="1.13" ry=".69" style="fill:none; stroke:#a3d1d9; stroke-miterlimit:10;"/><ellipse cx="286.63" cy="261.67" rx="1.13" ry=".69" style="fill:none; stroke:#a3d1d9; stroke-miterlimit:10;"/><ellipse cx="183.48" cy="69.81" rx="1.13" ry=".69" style="fill:none; stroke:#a3d1d9; stroke-miterlimit:10;"/></g><g id="Ebene_4"><path d="M219.32,235.72s3.66-4.22,6.59-4.14c2.84,.08,6.65,5.18,3.74,10.88-3.27,6.42-10.24,11.52-10.24,11.52,0,0-5.97-4.13-10.08-9.95-2.54-3.59-1.58-10.08,2.65-11.41,2.66-.83,7.34,3.1,7.34,3.1Z" style="fill:none; stroke:#a3d1d9; stroke-miterlimit:10; stroke-width:3px;"/></g></svg>